<svg width="31" height="30" viewBox="0 0 31 30" fill="none" xmlns="http://www.w3.org/2000/svg">
<g clip-path="url(#clip0_1_133)">
<path d="M8.98607 14.5054C9.13787 14.6139 9.26927 14.7358 9.40447 14.8645C10.2231 15.6224 11.1907 16.1302 12.2682 16.4062C12.3206 16.4199 12.3729 16.4336 12.4268 16.4477C14.0557 16.8042 15.7512 16.5145 17.1901 15.7031C17.2478 15.6713 17.3055 15.6394 17.365 15.6065C17.7309 15.3897 18.0339 15.1242 18.3378 14.8293C18.6312 14.5458 18.6312 14.5458 18.8307 14.4727C19.0015 14.5371 19.1555 14.6069 19.3178 14.6887C19.8033 14.9216 20.2974 15.1106 20.806 15.2849C22.9373 16.0162 22.9373 16.0162 23.5182 16.875C23.5182 16.9137 23.5182 16.9523 23.5182 16.9922C23.4803 16.9942 23.4424 16.9962 23.4033 16.9983C21.8599 17.0861 20.3426 17.3491 19.0651 18.2812C18.9733 18.3472 18.9733 18.3472 18.8797 18.4145C17.3428 19.5428 16.3289 21.2031 16.0182 23.0859C16.0021 23.1782 16.0021 23.1782 15.9857 23.2722C15.8841 24.1445 15.9203 25.0466 16.1354 25.8984C16.1452 25.937 16.1549 25.9756 16.1649 26.0154C16.3783 26.8261 16.725 27.6031 17.1901 28.3008C17.1901 28.3201 17.1901 28.3395 17.1901 28.3594C13.5921 28.7859 10.1035 28.4401 6.58307 27.6373C6.42928 27.6023 6.27528 27.5686 6.12116 27.5352C5.44498 27.3825 4.78886 27.166 4.13103 26.9495C4.06049 26.9265 4.06049 26.9265 3.98853 26.903C3.85287 26.8586 3.71749 26.8134 3.58217 26.768C3.52126 26.7481 3.52126 26.7481 3.45913 26.7278C3.03276 26.5824 2.74454 26.3742 2.48308 26.0156C2.01239 24.5531 2.62242 22.3235 2.88591 20.8557C2.89521 20.8031 2.9045 20.7505 2.91408 20.6964C3.20293 19.079 3.58383 17.2251 4.94035 16.1536C5.62028 15.68 6.43753 15.4486 7.21155 15.1749C7.32365 15.135 7.43573 15.095 7.54778 15.0549C7.60232 15.0355 7.65686 15.0161 7.71306 14.9961C8.07383 14.865 8.40652 14.7157 8.73842 14.5216C8.8698 14.4727 8.8698 14.4727 8.98607 14.5054Z" fill="#DF2429"/>
<path d="M18.0818 1.27302C19.2402 2.21993 19.8653 3.63542 20.0612 5.09763C20.0677 5.14491 20.0742 5.1922 20.0809 5.24091C20.372 7.8135 19.7159 11.091 18.102 13.1543C17.9962 13.2839 17.8872 13.4101 17.776 13.5351C17.75 13.5647 17.7239 13.5943 17.6971 13.6248C16.8917 14.5246 15.6783 15.1382 14.4637 15.2289C14.3921 15.2316 14.3921 15.2316 14.319 15.2343C14.2184 15.2389 14.2184 15.2389 14.1158 15.2435C12.6239 15.2787 11.2803 14.8408 10.184 13.802C8.80084 12.3477 8.17754 10.4304 7.8151 8.49607C7.80533 8.44422 7.79557 8.39236 7.78551 8.33894C7.42879 6.3611 7.49882 4.12177 8.63838 2.39614C8.7511 2.23885 8.86739 2.08567 8.98697 1.93357C9.03169 1.87314 9.0764 1.81272 9.12247 1.75046C11.3059 -0.585278 15.6326 -0.626991 18.0818 1.27302Z" fill="#DF2429"/>
<path d="M26.5497 19.4692C27.8495 20.4772 28.6848 21.8562 28.9089 23.496C28.9253 23.7258 28.9285 23.9542 28.9272 24.1845C28.9267 24.2767 28.9267 24.2767 28.9263 24.3708C28.9014 26.0313 28.1769 27.4341 27.0068 28.577C25.6763 29.7745 24.0236 30.0897 22.2878 29.9999C21.9425 29.9635 21.6188 29.88 21.2917 29.7656C21.25 29.7511 21.2082 29.7367 21.1653 29.7218C20.3242 29.4212 19.6529 28.9771 19.0065 28.3593C18.9669 28.3241 18.9274 28.2889 18.8866 28.2527C17.9727 27.4082 17.3568 26.039 17.2999 24.7995C17.2572 23.0811 17.6043 21.5821 18.7721 20.2734C18.8147 20.2253 18.8572 20.1773 18.901 20.1278C20.8477 18.0556 24.2716 17.7964 26.5497 19.4692ZM22.4782 20.9033C22.2066 21.1748 22.1193 21.4828 22.1053 21.8581C22.1056 21.9229 22.1059 21.9876 22.1063 22.0543C22.1064 22.1247 22.1066 22.1952 22.1068 22.2677C22.1073 22.3407 22.1078 22.4137 22.1083 22.489C22.1086 22.5631 22.1088 22.6372 22.1091 22.7136C22.1098 22.8963 22.1108 23.079 22.112 23.2617C22.0594 23.2601 22.0068 23.2586 21.9527 23.257C21.7557 23.252 21.5587 23.2483 21.3617 23.2456C21.2768 23.2441 21.1919 23.2421 21.107 23.2396C20.4716 23.2135 20.4716 23.2135 19.9075 23.4783C19.6757 23.6976 19.6103 23.9267 19.5849 24.2376C19.6018 24.5455 19.7522 24.7671 19.9623 24.9829C20.3988 25.2468 20.851 25.2093 21.3466 25.2026C21.4202 25.2021 21.4938 25.2015 21.5696 25.201C21.7504 25.1996 21.9312 25.1977 22.112 25.1953C22.1114 25.239 22.1107 25.2826 22.1101 25.3277C22.1077 25.5277 22.1062 25.7277 22.1047 25.9277C22.1037 25.9964 22.1027 26.0651 22.1017 26.136C22.0991 26.595 22.0973 26.9878 22.3573 27.3815C22.5723 27.5869 22.7594 27.7075 23.0634 27.7203C23.3683 27.6998 23.5776 27.6282 23.8112 27.4218C24.1338 27.0243 24.0718 26.5636 24.0602 26.0778C24.059 25.9922 24.058 25.9066 24.057 25.8209C24.0544 25.6123 24.0504 25.4038 24.0456 25.1953C24.0931 25.1959 24.1407 25.1965 24.1897 25.1971C24.4065 25.1996 24.6234 25.2011 24.8402 25.2026C24.9151 25.2036 24.9899 25.2045 25.067 25.2056C25.7722 25.2178 25.7722 25.2178 26.3719 24.8792C26.5525 24.6557 26.6293 24.4027 26.6182 24.1168C26.5536 23.7441 26.3873 23.565 26.0846 23.3428C25.8731 23.2382 25.7172 23.2417 25.4818 23.2445C25.4406 23.2447 25.3994 23.245 25.3569 23.2453C25.2262 23.2462 25.0955 23.2484 24.9648 23.2507C24.8758 23.2516 24.7868 23.2524 24.6978 23.2531C24.4804 23.255 24.263 23.258 24.0456 23.2617C24.0468 23.207 24.048 23.1524 24.0493 23.0961C24.0533 22.8917 24.0562 22.6875 24.0584 22.4831C24.0596 22.395 24.0612 22.3068 24.0633 22.2187C24.0661 22.0914 24.0674 21.9642 24.0685 21.8369C24.0697 21.7605 24.0709 21.6841 24.0722 21.6053C24.0368 21.3145 23.9352 21.0869 23.7109 20.8872C23.2608 20.6569 22.9181 20.6233 22.4782 20.9033Z" fill="#DF2429"/>
</g>
<defs>
<clipPath id="clip0_1_133">
<rect width="30" height="30" fill="white" transform="translate(0.666687)"/>
</clipPath>
</defs>
</svg>
