<svg width="30" height="31" viewBox="0 0 30 31" fill="none" xmlns="http://www.w3.org/2000/svg">
<g clip-path="url(#clip0_1_140)">
<path d="M7.54221 0.484369C7.65398 0.48397 7.65398 0.48397 7.76801 0.483564C7.97392 0.48285 8.17982 0.482862 8.38573 0.483001C8.60817 0.483025 8.83061 0.482377 9.05305 0.481822C9.48853 0.48085 9.92401 0.480527 10.3595 0.480461C10.7136 0.480406 11.0678 0.480165 11.422 0.479793C12.427 0.478762 13.432 0.478221 14.437 0.478309C14.5182 0.478316 14.5182 0.478316 14.601 0.478323C14.6553 0.478328 14.7095 0.478332 14.7653 0.478337C15.6434 0.478385 16.5216 0.477264 17.3997 0.475611C18.3022 0.473926 19.2048 0.473119 20.1073 0.47322C20.6137 0.473259 21.12 0.47294 21.6264 0.471676C22.0576 0.470606 22.4887 0.470356 22.9199 0.471149C23.1397 0.471531 23.3594 0.471543 23.5792 0.470522C23.818 0.469424 24.0569 0.470163 24.2957 0.471065C24.3986 0.470161 24.3986 0.470161 24.5036 0.469238C25.5196 0.477674 26.4327 0.910147 27.1489 1.61973C27.9233 2.46124 28.1431 3.3995 28.1407 4.50573C28.141 4.6042 28.1412 4.70267 28.1415 4.80114C28.1423 5.07118 28.1422 5.34122 28.1421 5.61126C28.1421 5.90272 28.1427 6.19418 28.1433 6.48564C28.1442 7.05648 28.1446 7.62731 28.1446 8.19815C28.1447 8.66225 28.1449 9.12635 28.1453 9.59045C28.1463 10.9067 28.1469 12.223 28.1468 13.5393C28.1468 13.6102 28.1468 13.6812 28.1468 13.7543C28.1468 13.8253 28.1468 13.8963 28.1468 13.9695C28.1467 15.1205 28.1478 16.2714 28.1495 17.4223C28.1512 18.6045 28.152 19.7868 28.1519 20.969C28.1518 21.6325 28.1522 22.2961 28.1534 22.9596C28.1545 23.5246 28.1547 24.0896 28.1539 24.6546C28.1536 24.9427 28.1536 25.2308 28.1546 25.5189C28.1555 25.783 28.1553 26.0471 28.1543 26.3112C28.1541 26.4064 28.1543 26.5016 28.155 26.5968C28.162 27.6864 27.8448 28.6347 27.0897 29.4387C26.3869 30.1481 25.4654 30.5107 24.4794 30.516C24.4107 30.5158 24.3421 30.5155 24.2713 30.5153C24.1972 30.5155 24.1231 30.5158 24.0467 30.516C23.8421 30.5166 23.6376 30.5165 23.433 30.5162C23.212 30.5161 22.9909 30.5166 22.7698 30.517C22.3371 30.5178 21.9045 30.5179 21.4718 30.5178C21.12 30.5176 20.7681 30.5178 20.4163 30.518C20.3411 30.5181 20.3411 30.5181 20.2644 30.5181C20.1625 30.5182 20.0606 30.5183 19.9588 30.5183C19.0041 30.519 18.0494 30.5188 17.0948 30.5185C16.2223 30.5182 15.3498 30.5188 14.4773 30.5199C13.5806 30.5211 12.6838 30.5216 11.787 30.5213C11.2839 30.5212 10.7808 30.5214 10.2777 30.5222C9.84933 30.5229 9.421 30.523 8.99266 30.5223C8.77434 30.5219 8.55602 30.5219 8.3377 30.5226C8.1005 30.5233 7.86332 30.5227 7.62611 30.522C7.55785 30.5224 7.48958 30.5228 7.41924 30.5233C6.37013 30.5164 5.46062 30.1179 4.72212 29.3783C4.07612 28.666 3.72791 27.7986 3.73862 26.8434C3.73878 26.7869 3.73895 26.7303 3.73912 26.672C3.73977 26.4929 3.74124 26.3139 3.74274 26.1348C3.74333 26.0127 3.74386 25.8907 3.74434 25.7686C3.74552 25.4707 3.74782 25.1729 3.75006 24.875C3.13131 24.875 2.51256 24.875 1.87506 24.875C1.87506 23.6375 1.87506 22.4 1.87506 21.125C2.49381 21.125 3.11256 21.125 3.75006 21.125C3.75006 19.8875 3.75006 18.65 3.75006 17.375C3.13131 17.375 2.51256 17.375 1.87506 17.375C1.87506 16.1375 1.87506 14.9 1.87506 13.625C2.49381 13.625 3.11256 13.625 3.75006 13.625C3.75006 12.3875 3.75006 11.15 3.75006 9.87504C3.13131 9.87504 2.51256 9.87504 1.87506 9.87504C1.87506 8.63754 1.87506 7.40004 1.87506 6.12504C2.49381 6.12504 3.11256 6.12504 3.75006 6.12504C3.74734 5.94777 3.74462 5.7705 3.74182 5.58785C3.73999 5.4137 3.73857 5.23954 3.73719 5.06539C3.73602 4.94554 3.73442 4.8257 3.73238 4.70587C3.72108 4.02599 3.71302 3.42026 3.98444 2.78519C4.01412 2.71382 4.0438 2.64244 4.07439 2.5689C4.61006 1.56195 5.43104 0.895512 6.52624 0.555792C6.86211 0.474026 7.19834 0.483467 7.54221 0.484369ZM13.418 8.99613C12.6955 9.69525 12.2489 10.5376 12.229 11.551C12.225 12.132 12.2464 12.6167 12.4805 13.1563C12.5018 13.2076 12.523 13.2589 12.5448 13.3117C12.9571 14.2186 13.7392 14.9046 14.6522 15.2803C15.6497 15.6152 16.7059 15.5472 17.6509 15.0863C18.5613 14.6004 19.2342 13.7671 19.5416 12.7892C19.7564 11.9974 19.7214 11.0971 19.3946 10.3438C19.3628 10.2669 19.3628 10.2669 19.3303 10.1884C18.918 9.28146 18.1359 8.59544 17.223 8.21976C15.8757 7.76751 14.4748 8.05629 13.418 8.99613ZM13.5938 15.7344C13.5426 15.7448 13.4914 15.7551 13.4387 15.7658C12.2494 16.0106 11.1305 16.3813 10.254 17.2579C10.2152 17.2966 10.1765 17.3353 10.1366 17.3753C9.16445 18.4145 9.37506 19.7722 9.37506 21.125C13.7063 21.125 18.0376 21.125 22.5001 21.125C22.5937 19.0786 22.5937 19.0786 21.7383 17.375C21.7004 17.3309 21.6625 17.2868 21.6234 17.2414C20.7899 16.3366 19.5077 15.9756 18.3399 15.7344C18.293 15.7246 18.246 15.7149 18.1976 15.7048C16.7354 15.4179 15.0511 15.4249 13.5938 15.7344Z" fill="#DF2429"/>
</g>
<defs>
<clipPath id="clip0_1_140">
<rect width="30" height="30" fill="white" transform="translate(6.10352e-05 0.5)"/>
</clipPath>
</defs>
</svg>
