<svg width="20" height="20" viewBox="0 0 20 20" fill="none" xmlns="http://www.w3.org/2000/svg">
<g clip-path="url(#clip0_240_1207)">
<path d="M0 0C6.6 0 13.2 0 20 0C20 6.6 20 13.2 20 20C13.4 20 6.8 20 0 20C0 13.4 0 6.8 0 0Z" fill="black"/>
<path d="M6.09372 8.16406C6.23777 8.25455 6.36418 8.3564 6.48434 8.47656C6.4819 8.5498 6.4819 8.5498 6.44528 8.63281C6.41627 8.65537 6.38727 8.67793 6.35739 8.70117C6.18993 8.83818 6.08382 9.01407 6.01559 9.21875C5.98612 9.58966 5.97497 9.92471 6.2109 10.2344C6.29569 10.3231 6.38477 10.3973 6.48434 10.4687C6.51576 10.4929 6.54718 10.5171 6.57956 10.542C6.60977 10.5637 6.60977 10.5637 6.64059 10.5859C6.49844 11.0877 6.20657 11.611 5.7568 11.8994C5.52689 11.9931 5.37719 11.9666 5.15377 11.875C4.76914 11.7273 4.41349 11.7647 4.03866 11.9176C3.87943 11.9782 3.75339 11.9884 3.59539 11.92C3.04268 11.6083 2.71377 10.9261 2.54025 10.3412C2.39927 9.76945 2.39312 9.21155 2.67331 8.68317C2.85384 8.39414 3.11308 8.19407 3.43747 8.08594C3.72395 8.06239 3.9774 8.07323 4.25045 8.1665C4.56095 8.27201 4.75332 8.24092 5.05368 8.12256C5.40198 7.98946 5.75363 8.01173 6.09372 8.16406Z" fill="#F9F9F9"/>
<path d="M7.5 7.1875C9.99648 7.1875 9.99648 7.1875 10.4335 7.61108C10.734 7.95164 10.8443 8.39626 10.8289 8.8443C10.7928 9.2705 10.6377 9.6366 10.322 9.93149C10.0045 10.1798 9.64299 10.2867 9.24454 10.2811C9.21794 10.281 9.19134 10.2809 9.16393 10.2808C9.06583 10.2804 8.96773 10.2793 8.86963 10.2783C8.64968 10.2767 8.42974 10.2751 8.20312 10.2734C8.20312 10.8148 8.20312 11.3562 8.20312 11.9141C7.97109 11.9141 7.73906 11.9141 7.5 11.9141C7.5 10.3543 7.5 8.79453 7.5 7.1875Z" fill="#F9F9F9"/>
<path d="M13.5742 8.66211C13.7541 8.81153 13.8718 8.99811 13.9453 9.21875C13.9488 9.3056 13.9499 9.39255 13.9497 9.47947C13.9498 9.50578 13.9498 9.53209 13.9498 9.55919C13.9497 9.64606 13.9494 9.73293 13.9491 9.81979C13.9491 9.88006 13.949 9.94032 13.949 10.0006C13.9488 10.1591 13.9484 10.3177 13.948 10.4762C13.9476 10.6381 13.9474 10.7999 13.9472 10.9617C13.9468 11.2791 13.9461 11.5966 13.9453 11.9141C13.7262 11.9141 13.507 11.9141 13.2812 11.9141C13.2684 11.7465 13.2555 11.5789 13.2422 11.4062C13.2051 11.4538 13.1681 11.5013 13.1299 11.5503C12.9461 11.7619 12.7234 11.8656 12.4609 11.9531C12.0308 11.9799 11.68 11.9747 11.3354 11.6943C11.0948 11.4625 11.0092 11.251 10.9937 10.918C11.0038 10.6361 11.0785 10.4386 11.2839 10.2431C11.5424 10.0374 11.7973 9.94711 12.1216 9.91699C12.1508 9.91395 12.18 9.91091 12.2102 9.90778C12.2679 9.90182 12.3256 9.89603 12.3834 9.89044C12.4481 9.88408 12.5127 9.87684 12.5772 9.86938C12.7994 9.84399 13.0186 9.83947 13.2422 9.84375C13.2369 9.4605 13.2369 9.4605 13.0469 9.14062C12.7926 8.9882 12.5545 8.99384 12.2656 9.02344C12.021 9.0925 11.9657 9.22599 11.8359 9.45312C11.6168 9.45312 11.3977 9.45312 11.1719 9.45312C11.1719 9.16385 11.2448 9.00286 11.4374 8.78937C11.9925 8.27201 12.951 8.23737 13.5742 8.66211Z" fill="#F9F9F9"/>
<path d="M14.2578 8.4375C14.5156 8.4375 14.7734 8.4375 15.0391 8.4375C15.6269 10.2828 15.6269 10.2828 15.8984 11.2109C15.9101 11.1737 15.9217 11.1364 15.9337 11.098C16.0762 10.6416 16.2194 10.1854 16.3629 9.72933C16.3817 9.66966 16.4004 9.60999 16.4192 9.55032C16.4283 9.52145 16.4374 9.49258 16.4468 9.46284C16.4988 9.29748 16.5505 9.13204 16.602 8.96652C16.613 8.93152 16.6239 8.89651 16.6351 8.86044C16.6545 8.79847 16.6737 8.73646 16.6929 8.67442C16.7534 8.48096 16.7534 8.48096 16.7969 8.4375C16.8522 8.43412 16.9076 8.43332 16.963 8.43368C17.0131 8.43387 17.0131 8.43387 17.0641 8.43407C17.1167 8.43456 17.1167 8.43456 17.1704 8.43506C17.2056 8.43523 17.2409 8.43541 17.2771 8.43559C17.3645 8.43605 17.4518 8.43673 17.5391 8.4375C17.4628 8.66765 17.3851 8.89724 17.3056 9.12628C17.2946 9.1581 17.2835 9.18992 17.2722 9.2227C17.1278 9.63841 16.9821 10.0537 16.8359 10.4687C16.8142 10.5304 16.8142 10.5304 16.7921 10.5933C16.7044 10.8424 16.6161 11.0913 16.5272 11.3399C16.499 11.4191 16.4709 11.4983 16.4429 11.5775C16.0023 12.8252 16.0023 12.8252 15.625 13.0469C15.5213 13.0958 15.4228 13.1297 15.3125 13.1641C15.278 13.1751 15.278 13.1751 15.2428 13.1863C15.0375 13.2262 14.817 13.205 14.6094 13.2031C14.6094 13.0098 14.6094 12.8164 14.6094 12.6172C14.6754 12.614 14.7415 12.6107 14.8096 12.6074C15.0055 12.5883 15.1282 12.5636 15.2734 12.4219C15.3874 12.2285 15.5023 11.9876 15.4519 11.7596C15.4227 11.6697 15.3903 11.5817 15.3564 11.4934C15.3441 11.4599 15.3317 11.4264 15.319 11.3918C15.2783 11.2817 15.2368 11.1719 15.1953 11.062C15.167 10.9857 15.1386 10.9093 15.1104 10.8329C15.0517 10.6744 14.9927 10.516 14.9335 10.3576C14.8044 10.0123 14.6774 9.6662 14.5507 9.32003C14.5121 9.21491 14.4733 9.10987 14.4345 9.00485C14.411 8.94096 14.3875 8.87707 14.364 8.81317C14.3532 8.784 14.3423 8.75482 14.3312 8.72476C14.2578 8.5245 14.2578 8.5245 14.2578 8.4375Z" fill="#F9F9F9"/>
<path d="M8.20312 7.77344C8.37554 7.77021 8.54795 7.76699 8.72559 7.76367C8.8059 7.76154 8.8059 7.76154 8.88784 7.75936C9.23931 7.7562 9.52981 7.80719 9.81934 8.01514C10.0134 8.22302 10.0868 8.42718 10.0977 8.71094C10.0864 9.02663 9.9732 9.25758 9.76562 9.49219C9.43492 9.70025 9.10056 9.71249 8.7207 9.69971C8.5499 9.69568 8.3791 9.69165 8.20312 9.6875C8.20312 9.05586 8.20312 8.42422 8.20312 7.77344Z" fill="black"/>
<path d="M13.2422 10.3516C13.2628 10.627 13.2711 10.8418 13.1021 11.0698C12.9218 11.2755 12.7115 11.3865 12.4403 11.4175C12.2364 11.4243 12.0865 11.4082 11.9141 11.2891C11.8028 11.1658 11.7255 11.0747 11.7065 10.9082C11.7221 10.7466 11.7725 10.6715 11.875 10.5469C12.0873 10.393 12.2903 10.3822 12.5464 10.3687C12.576 10.367 12.6055 10.3653 12.636 10.3636C12.8384 10.3528 13.0395 10.3479 13.2422 10.3516Z" fill="black"/>
<path d="M5.5859 6.79688C5.6108 7.13297 5.51836 7.40386 5.30758 7.66846C5.12167 7.86557 4.89545 7.99662 4.62399 8.02002C4.59337 8.01599 4.56276 8.01196 4.53121 8.00781C4.49599 7.70254 4.6011 7.48154 4.76559 7.22656C4.97408 6.98223 5.25954 6.79688 5.5859 6.79688Z" fill="#F9F9F9"/>
</g>
<defs>
<clipPath id="clip0_240_1207">
<rect width="20" height="20" rx="5" fill="white"/>
</clipPath>
</defs>
</svg>
