<svg width="60" height="61" viewBox="0 0 60 61" fill="none" xmlns="http://www.w3.org/2000/svg">
<path d="M21.7089 13.828C21.8594 13.827 22.0099 13.826 22.165 13.825C22.3315 13.8251 22.498 13.8252 22.6645 13.8253C22.8401 13.8246 23.0157 13.8238 23.1913 13.8229C23.668 13.8209 24.1447 13.8203 24.6215 13.8202C24.9194 13.82 25.2173 13.8195 25.5152 13.8189C26.5547 13.8167 27.5942 13.8157 28.6337 13.8159C29.6024 13.8161 30.5711 13.8136 31.5398 13.8099C32.3717 13.8068 33.2036 13.8056 34.0355 13.8057C34.5323 13.8058 35.029 13.8051 35.5258 13.8026C35.9931 13.8004 36.4603 13.8004 36.9276 13.8021C37.0989 13.8023 37.2702 13.8017 37.4415 13.8003C37.6757 13.7985 37.91 13.7999 38.1442 13.8014C38.3407 13.8012 38.3407 13.8012 38.5411 13.801C39.2634 13.9164 39.7401 14.4291 40.243 14.9277C40.302 14.9859 40.361 15.0441 40.4218 15.104C40.6147 15.2948 40.8068 15.4863 40.9987 15.6781C41.1335 15.8121 41.2683 15.9461 41.4031 16.08C41.6847 16.3602 41.9658 16.641 42.2467 16.9219C42.6056 17.2809 42.9662 17.6383 43.3271 17.9952C43.6057 18.2712 43.8832 18.5482 44.1605 18.8256C44.2929 18.9577 44.4257 19.0895 44.5589 19.2209C44.7454 19.4051 44.9304 19.5907 45.115 19.7768C45.2204 19.8818 45.3257 19.9868 45.4343 20.095C46.0052 20.789 46.1067 21.4054 46.0994 22.274C46.0999 22.3751 46.1005 22.4762 46.101 22.5804C46.1024 22.9176 46.1013 23.2548 46.1002 23.5921C46.1007 23.8345 46.1013 24.0769 46.1021 24.3193C46.1037 24.9767 46.1031 25.634 46.1019 26.2913C46.1011 26.9796 46.1019 27.6678 46.1024 28.3561C46.1031 29.5118 46.1022 30.6676 46.1006 31.8233C46.0986 33.1591 46.0993 34.4949 46.1012 35.8307C46.1028 36.978 46.103 38.1253 46.1021 39.2727C46.1016 39.9577 46.1015 40.6428 46.1026 41.3278C46.1037 41.9719 46.103 42.6159 46.1009 43.26C46.1005 43.4963 46.1006 43.7325 46.1014 43.9688C46.1023 44.2915 46.1011 44.6142 46.0994 44.9369C46.1002 45.0302 46.1009 45.1234 46.1017 45.2195C46.0954 45.8262 46.0144 46.2616 45.7032 46.7891C45.1145 47.233 44.4877 47.1901 43.7813 47.1853C43.6587 47.1858 43.5361 47.1864 43.4097 47.1869C42.999 47.1883 42.5882 47.1872 42.1775 47.1861C41.8829 47.1866 41.5884 47.1872 41.2939 47.188C40.577 47.1894 39.8601 47.1892 39.1433 47.1882C38.5606 47.1874 37.9779 47.1873 37.3952 47.1877C37.3123 47.1877 37.2293 47.1878 37.1438 47.1878C36.9753 47.1879 36.8068 47.188 36.6382 47.1882C35.0582 47.1892 33.4782 47.188 31.8981 47.1861C30.5427 47.1846 29.1873 47.1848 27.8318 47.1864C26.2574 47.1883 24.683 47.1891 23.1086 47.188C22.9407 47.1879 22.7727 47.1878 22.6048 47.1877C22.5222 47.1876 22.4396 47.1876 22.3545 47.1875C21.7726 47.1872 21.1907 47.1877 20.6088 47.1885C19.8254 47.1896 19.0421 47.1888 18.2587 47.1868C17.971 47.1863 17.6833 47.1865 17.3957 47.1873C17.0033 47.1882 16.6111 47.187 16.2188 47.1853C16.1046 47.186 15.9904 47.1868 15.8727 47.1876C15.2695 47.1824 14.7962 47.1656 14.2969 46.7891C13.9335 46.1733 13.8948 45.6404 13.9007 44.9369C13.9002 44.8358 13.8996 44.7347 13.899 44.6306C13.8976 44.2933 13.8988 43.9561 13.8999 43.6188C13.8994 43.3764 13.8988 43.134 13.898 42.8916C13.8964 42.2343 13.897 41.5769 13.8981 40.9196C13.899 40.2313 13.8982 39.5431 13.8976 38.8548C13.897 37.6991 13.8978 36.5433 13.8995 35.3876C13.9014 34.0518 13.9008 32.716 13.8989 31.3802C13.8973 30.2329 13.8971 29.0856 13.898 27.9383C13.8985 27.2532 13.8986 26.5681 13.8974 25.8831C13.8964 25.239 13.8971 24.595 13.8992 23.9509C13.8996 23.7146 13.8995 23.4784 13.8987 23.2422C13.8977 22.9194 13.899 22.5968 13.9007 22.274C13.8999 22.1808 13.8991 22.0875 13.8983 21.9914C13.9055 21.3087 14.0394 20.7707 14.4538 20.2094C14.5067 20.1578 14.5597 20.1063 14.6143 20.0532C14.6749 19.9929 14.7356 19.9326 14.7981 19.8706C14.8629 19.8085 14.9278 19.7465 14.9945 19.6826C15.0623 19.6157 15.1301 19.5489 15.2 19.48C15.4154 19.2679 15.6324 19.0575 15.8496 18.8472C16.134 18.5695 16.4176 18.2912 16.7011 18.0127C16.7694 17.9457 16.8377 17.8788 16.908 17.8099C17.3201 17.4038 17.7099 16.9873 18.0842 16.5458C18.5056 16.0636 18.9641 15.6159 19.4165 15.1631C19.5151 15.0631 19.6137 14.9631 19.7152 14.86C19.8105 14.7646 19.9057 14.6691 20.0039 14.5707C20.0895 14.4846 20.1751 14.3986 20.2633 14.3099C20.7335 13.8943 21.0841 13.8299 21.7089 13.828ZM19.7997 18.4879C19.5197 18.846 19.2203 19.1837 18.9172 19.5223C18.7283 19.7366 18.7283 19.7366 18.5157 20.0703C21.8801 20.0703 25.2446 20.0703 28.711 20.0703C28.711 18.8715 28.711 17.6726 28.711 16.4375C27.8643 16.3878 27.023 16.3411 26.1761 16.3162C25.7815 16.304 25.389 16.2864 24.9948 16.2607C22.5517 16.1052 21.3223 16.5385 19.7997 18.4879ZM31.2891 16.4375C31.2891 17.6363 31.2891 18.8351 31.2891 20.0703C34.6536 20.0703 38.018 20.0703 41.4844 20.0703C41.2524 19.7996 41.0203 19.5289 40.7813 19.25C40.6292 19.0197 40.4795 18.788 40.3322 18.5546C39.6124 17.5636 38.8509 16.6212 37.595 16.3596C35.5151 16.0983 33.3704 16.2864 31.2891 16.4375ZM16.6407 22.6484C16.6407 29.8801 16.6407 37.1117 16.6407 44.5625C25.4578 44.5625 34.275 44.5625 43.3594 44.5625C43.3594 37.3308 43.3594 30.0992 43.3594 22.6484C34.5422 22.6484 25.725 22.6484 16.6407 22.6484Z" fill="#DF2429"/>
<path d="M29.5507 40.353C29.1962 40.1495 28.9158 39.9034 28.7304 39.5326C28.7162 39.2802 28.7096 39.0273 28.7063 38.7745C28.7052 38.6968 28.704 38.619 28.7028 38.5389C28.6991 38.2815 28.6962 38.024 28.6933 37.7666C28.6909 37.5883 28.6884 37.4099 28.6859 37.2316C28.6794 36.7619 28.6737 36.2922 28.668 35.8225C28.6621 35.3434 28.6556 34.8642 28.6491 34.3851C28.6365 33.4447 28.6246 32.5043 28.6132 31.5639C28.5375 31.6408 28.4619 31.7176 28.384 31.7968C28.1023 32.0825 27.82 32.3677 27.5374 32.6525C27.4154 32.7757 27.2935 32.8992 27.1719 33.0228C26.9968 33.2008 26.8209 33.3781 26.6448 33.5552C26.5393 33.6619 26.4337 33.7687 26.3249 33.8787C25.9322 34.2354 25.697 34.3619 25.1708 34.4203C24.6619 34.3677 24.4288 34.2397 24.0429 33.9076C23.788 33.5087 23.7604 33.1275 23.8265 32.6599C24.0539 32.028 24.6102 31.5804 25.0793 31.1176C25.1975 30.9984 25.3157 30.8792 25.4337 30.7599C25.6811 30.5108 25.9298 30.2633 26.1797 30.0168C26.4986 29.7019 26.8134 29.3832 27.1272 29.0632C27.3703 28.8163 27.6155 28.5716 27.8614 28.3276C27.9783 28.211 28.0946 28.0937 28.2101 27.9756C29.2916 26.8744 29.2916 26.8744 30.128 26.827C30.6958 26.9424 31.0839 27.3254 31.4823 27.723C31.5824 27.8223 31.6825 27.9217 31.7856 28.024C31.8921 28.131 31.9985 28.2379 32.1082 28.3481C32.2198 28.4595 32.3313 28.5708 32.4429 28.6822C32.6761 28.9149 32.9088 29.1481 33.1412 29.3816C33.4387 29.6805 33.7372 29.9782 34.0361 30.2757C34.2664 30.5052 34.4962 30.7352 34.7258 30.9655C34.889 31.1288 35.0526 31.2917 35.2162 31.4546C35.3152 31.5544 35.4141 31.6541 35.5161 31.7568C35.6034 31.8442 35.6906 31.9316 35.7805 32.0217C36.1424 32.4336 36.2319 32.6409 36.2231 33.1972C36.146 33.7007 35.9249 33.9392 35.5273 34.2592C35.1629 34.4414 34.8754 34.41 34.4726 34.3764C33.9815 34.0873 33.5873 33.7536 33.1881 33.3492C33.0846 33.2449 32.9811 33.1407 32.8745 33.0333C32.7157 32.8715 32.7157 32.8715 32.5536 32.7065C32.445 32.5968 32.3364 32.4871 32.2245 32.3741C31.9577 32.1046 31.6914 31.8345 31.4257 31.5639C31.4255 31.6622 31.4254 31.7604 31.4252 31.8617C31.4231 32.7893 31.4182 33.7169 31.4102 34.6445C31.4062 35.1213 31.4033 35.5981 31.4028 36.075C31.4023 36.5355 31.3989 36.9959 31.3936 37.4564C31.3921 37.6317 31.3916 37.8071 31.3922 37.9825C31.3958 39.53 31.3958 39.53 31.025 39.9901C30.5545 40.3723 30.1497 40.4552 29.5507 40.353Z" fill="#DF2429"/>
</svg>
