<svg width="15" height="14" viewBox="0 0 15 14" fill="none" xmlns="http://www.w3.org/2000/svg">
<path d="M14.1268 0.402647C14.3576 0.582176 14.5295 0.788069 14.59 1.08197C14.6251 1.43946 14.5409 1.72647 14.4243 2.06067C14.406 2.11487 14.3877 2.1691 14.3695 2.22336C14.329 2.34349 14.2882 2.4635 14.2472 2.58343C14.1752 2.79439 14.1047 3.00587 14.0345 3.21744C14.0089 3.29458 13.9833 3.37172 13.9577 3.44886C13.948 3.47803 13.948 3.47803 13.9381 3.50779C13.8643 3.72989 13.7902 3.95186 13.716 4.17382C13.7023 4.21505 13.6885 4.25629 13.6747 4.29753C13.6262 4.44274 13.5777 4.58795 13.5292 4.73316C13.4464 4.98091 13.3636 5.22866 13.2809 5.47643C13.2367 5.60893 13.1924 5.74139 13.1481 5.87386C13.0041 6.30495 12.8624 6.73675 12.722 7.16902C12.5162 7.80262 12.3071 8.43513 12.0969 9.06731C12.0831 9.10877 12.0831 9.10877 12.0691 9.15106C11.982 9.41301 11.8949 9.67495 11.8077 9.93687C11.6978 10.2673 11.588 10.5977 11.4783 10.9282C11.4002 11.1636 11.322 11.399 11.2436 11.6344C11.1971 11.7739 11.1507 11.9134 11.1045 12.053C11.0613 12.1834 11.018 12.3137 10.9744 12.444C10.9586 12.4915 10.9428 12.539 10.9271 12.5866C10.6495 13.428 10.6495 13.428 10.2605 13.6494C9.95613 13.7909 9.61927 13.8198 9.30034 13.7101C8.91522 13.5464 8.74185 13.3089 8.58236 12.9324C8.55203 12.8561 8.52266 12.7795 8.49364 12.7026C8.48261 12.6738 8.47157 12.645 8.4602 12.6153C8.42387 12.5203 8.38775 12.4252 8.35162 12.3301C8.32576 12.2624 8.29987 12.1947 8.27397 12.127C8.23334 12.0208 8.19271 11.9145 8.15214 11.8083C8.0175 11.4557 7.88158 11.1036 7.74551 10.7515C7.67837 10.5778 7.6113 10.4041 7.54424 10.2304C7.531 10.1961 7.51775 10.1617 7.5041 10.1264C7.31918 9.6472 7.13476 9.16781 6.95058 8.68833C6.92852 8.631 6.9064 8.57369 6.88421 8.5164C6.83914 8.39986 6.79457 8.28336 6.75347 8.16535C6.7413 8.13107 6.72914 8.0968 6.7166 8.06149C6.70707 8.03331 6.69754 8.00513 6.68772 7.97609C6.61437 7.84192 6.46776 7.80333 6.32902 7.75761C6.29415 7.74602 6.25927 7.73443 6.22334 7.72249C6.18524 7.71002 6.14714 7.69756 6.10904 7.68509C6.06922 7.67192 6.02941 7.65874 5.98961 7.64553C5.90498 7.6175 5.82032 7.58956 5.73563 7.56171C5.53476 7.49564 5.33405 7.42903 5.13333 7.36248C5.06677 7.34042 5.00021 7.31838 4.93365 7.29634C4.59742 7.18498 4.26202 7.07135 3.92727 6.95563C3.57762 6.83489 3.22667 6.71831 2.87522 6.60293C2.7186 6.55147 2.56204 6.4998 2.40547 6.44816C2.24869 6.39647 2.09179 6.34515 1.93481 6.29408C1.83582 6.26179 1.73695 6.22916 1.6381 6.19644C1.59168 6.18116 1.54521 6.16601 1.49869 6.15101C1.10449 6.02381 0.762586 5.8704 0.546522 5.49573C0.426252 5.22923 0.394079 4.90334 0.498228 4.62689C0.637868 4.30457 0.823927 4.12543 1.14276 3.98236C1.24233 3.94542 1.3433 3.91384 1.44477 3.88257C1.47432 3.87329 1.50387 3.86401 1.53431 3.85445C1.63262 3.82364 1.73101 3.79313 1.8294 3.76263C1.90003 3.74058 1.97065 3.71852 2.04126 3.69644C2.6536 3.50531 3.26682 3.31697 3.88005 3.12873C4.4878 2.94215 5.09505 2.754 5.70209 2.56512C5.74778 2.5509 5.79348 2.53669 5.83918 2.52247C5.87316 2.5119 5.87316 2.5119 5.90783 2.50111C5.99942 2.47262 6.09101 2.44412 6.1826 2.41563C6.2284 2.40138 6.2742 2.38713 6.31999 2.37289C6.82741 2.21503 7.33498 2.05768 7.84259 1.90045C7.88562 1.88712 7.92866 1.87379 7.97169 1.86046C8.18675 1.79384 8.40181 1.72723 8.61687 1.66062C8.99227 1.54436 9.36766 1.42806 9.74304 1.31175C9.85248 1.27784 9.96192 1.24394 10.0714 1.21003C10.5094 1.07433 10.9474 0.938577 11.3854 0.802487C11.4445 0.784119 11.5036 0.765754 11.5627 0.747391C11.6011 0.735445 11.6396 0.723498 11.678 0.711551C11.6968 0.705734 11.7155 0.699916 11.7348 0.693922C11.8587 0.655407 11.9827 0.61685 12.1066 0.578285C12.2613 0.53018 12.416 0.482364 12.5708 0.434667C12.6553 0.408483 12.7397 0.381882 12.824 0.355225C12.876 0.339054 12.928 0.322893 12.98 0.306745C13.0142 0.295745 13.0142 0.295745 13.0491 0.284522C13.4332 0.166437 13.7784 0.204557 14.1268 0.402647Z" fill="#F9F9F9"/>
</svg>
