<svg width="35" height="25" viewBox="0 0 35 25" fill="none" xmlns="http://www.w3.org/2000/svg">
<path d="M12.7454 0.111084C12.7414 0.185437 12.7373 0.25979 12.7332 0.334141C12.7296 0.399696 12.7261 0.465253 12.7226 0.530812C12.7144 0.679655 12.7056 0.828208 12.6939 0.97682C12.524 3.16404 12.862 5.3634 13.8242 7.34287C13.8393 7.37415 13.8544 7.40544 13.87 7.43767C14.3695 8.45834 15.0601 9.44952 15.8817 10.2394C15.9453 10.303 16.0019 10.37 16.0591 10.4394C16.1662 10.5663 16.2831 10.6725 16.4097 10.7796C16.4746 10.8358 16.5379 10.8939 16.6001 10.9531C18.8702 13.1145 21.972 14.047 25.0565 13.9801C25.6042 13.9634 26.1479 13.9092 26.6899 13.8305C26.8383 13.8119 26.9798 13.8094 27.1291 13.8155C26.956 14.025 26.772 14.211 26.5722 14.3949C26.3398 14.6112 26.1102 14.8298 25.8855 15.0541C25.8619 15.0775 25.8383 15.1009 25.814 15.1251C25.7017 15.2377 25.5941 15.3522 25.4911 15.4735C25.2786 15.719 25.0453 15.9452 24.8155 16.1743C24.7345 16.2551 24.6537 16.336 24.573 16.417C24.1165 16.8738 24.1165 16.8738 23.8793 17.0749C23.7879 17.1531 23.7014 17.2359 23.6143 17.3187C23.3425 17.5766 23.0594 17.8124 22.7613 18.0391C22.6969 18.0885 22.6335 18.1392 22.5702 18.1899C20.5197 19.8199 17.8311 20.4802 15.2424 20.2077C13.4479 19.9949 11.7292 19.3614 10.2682 18.2904C10.2451 18.2736 10.222 18.2568 10.1982 18.2394C9.90824 18.0267 9.63914 17.7977 9.3772 17.5518C9.28981 17.4704 9.20111 17.393 9.10954 17.3165C8.6992 16.9589 8.35599 16.5271 8.03077 16.0929C8.00267 16.0559 8.00267 16.0559 7.97401 16.0182C7.01183 14.7421 6.36854 13.2256 6.07299 11.658C6.06645 11.625 6.05991 11.592 6.05317 11.558C5.84357 10.4603 5.8613 9.19755 6.07299 8.10201C6.07921 8.06675 6.08543 8.03149 6.09183 7.99516C6.39903 6.26757 7.16829 4.62856 8.27049 3.2675C8.28807 3.24575 8.30566 3.22399 8.32377 3.20158C8.7811 2.64091 9.28999 2.10557 9.86868 1.66931C9.89015 1.65278 9.91162 1.63625 9.93374 1.61922C10.6546 1.065 11.4442 0.604114 12.2809 0.248428C12.3298 0.227632 12.3298 0.227632 12.3796 0.206415C12.6102 0.111084 12.6102 0.111084 12.7454 0.111084Z" fill="#DF2429"/>
<path d="M32.8825 4.94556C32.9212 4.96592 32.9212 4.96592 32.9607 4.98669C33.7007 5.3779 34.3602 5.88758 35.0001 6.42388C34.9455 6.54778 34.8849 6.62672 34.7852 6.71777C34.7584 6.74247 34.7317 6.76716 34.7041 6.79261C34.6757 6.81844 34.6473 6.84426 34.6181 6.87088C34.5597 6.92467 34.5014 6.97852 34.4431 7.03241C34.415 7.05834 34.3869 7.08426 34.358 7.11097C34.2634 7.19938 34.1719 7.29046 34.0812 7.3828C33.9813 7.4842 33.8799 7.5802 33.7715 7.67247C33.6206 7.80166 33.4816 7.94084 33.342 8.082C33.0739 8.35319 33.0739 8.35319 32.9275 8.47655C32.7346 8.63985 32.5606 8.82245 32.383 9.00184C32.234 9.15172 32.083 9.2952 31.9213 9.43141C31.8199 9.52154 31.7263 9.61825 31.6314 9.71515C31.4222 9.9275 31.1992 10.1157 30.9647 10.2995C30.9263 10.3306 30.8879 10.3617 30.8483 10.3938C29.0336 11.8363 26.736 12.5995 24.4271 12.5894C24.3923 12.5893 24.3575 12.5892 24.3217 12.5892C23.7586 12.5872 23.2089 12.5599 22.6541 12.457C22.5978 12.4467 22.5978 12.4467 22.5404 12.4363C21.1229 12.1694 19.6659 11.6445 18.4989 10.7789C18.4744 10.7611 18.45 10.7432 18.4249 10.7248C18.0814 10.4734 17.7063 10.2135 17.3801 9.93989C17.46 9.84001 17.5262 9.76375 17.6199 9.66021C17.6449 9.63256 17.6398 9.64023 17.6839 9.5858C17.7219 9.5481 17.7219 9.5481 17.7607 9.50963C17.7875 9.48277 17.8143 9.45592 17.8419 9.42825C17.9305 9.33947 18.0194 9.25098 18.1084 9.16249C18.1702 9.1007 18.232 9.03889 18.2938 8.97707C18.4236 8.84741 18.5534 8.71788 18.6834 8.58845C18.8494 8.42314 19.0151 8.25758 19.1807 8.09192C19.3085 7.96416 19.4364 7.8365 19.5643 7.70887C19.6254 7.6479 19.6865 7.58691 19.7475 7.5259C19.8333 7.44023 19.9191 7.3547 20.0051 7.2692C20.0299 7.24431 20.0548 7.21941 20.0804 7.19376C20.2528 7.02265 20.4325 6.86208 20.6165 6.70357C20.6583 6.66659 20.7002 6.62956 20.7419 6.59244C23.6869 4.00444 27.7112 2.95859 32.8825 4.94556Z" fill="#DF2429"/>
<path d="M8.27295 18.3753C8.36202 18.4154 8.40742 18.4578 8.47288 18.5301C10.411 20.546 13.3857 21.5323 16.1161 21.6141C17.0278 21.6309 17.9315 21.523 18.8302 21.3803C18.9342 21.3674 19.0336 21.3644 19.1383 21.3669C19.0038 21.5376 18.8645 21.6769 18.6913 21.8089C18.6672 21.8275 18.6431 21.846 18.6183 21.8652C18.5389 21.9259 18.4591 21.9861 18.3791 22.0461C18.3516 22.0669 18.3241 22.0877 18.2958 22.1091C17.3445 22.825 16.2939 23.4152 15.1828 23.8441C15.1462 23.8583 15.1097 23.8726 15.0721 23.8873C13.4811 24.5022 11.775 24.8429 10.0686 24.8829C10.0322 24.8838 9.99589 24.8847 9.95846 24.8856C6.49302 24.9552 3.03577 23.9494 0.399546 21.6466C0.369349 21.6205 0.369349 21.6205 0.338541 21.5939C0.0866918 21.376 0.0866918 21.376 0 21.287C0 21.2606 0 21.2343 0 21.2071C0.0403437 21.2065 0.0806875 21.2059 0.122254 21.2053C2.80858 21.1636 5.31751 20.6281 7.47152 18.9297C7.52077 18.8911 7.57004 18.8526 7.61932 18.814C7.71632 18.738 7.81312 18.6618 7.90977 18.5854C7.96972 18.5382 7.96972 18.5382 8.03088 18.4902C8.05931 18.4653 8.08774 18.4405 8.11703 18.4149C8.1907 18.3703 8.1907 18.3703 8.27295 18.3753Z" fill="#DF2429"/>
</svg>
