<svg width="15" height="16" viewBox="0 0 15 16" fill="none" xmlns="http://www.w3.org/2000/svg">
<path d="M3.75008 1.43744C4.04329 1.57183 4.24639 1.91737 4.41659 2.17902C4.43675 2.20969 4.45691 2.24036 4.47769 2.27196C4.67046 2.56656 4.85822 2.86395 5.03914 3.16596C5.05694 3.19564 5.07473 3.22533 5.09306 3.25591C5.9169 4.63829 5.9169 4.63829 5.85946 5.01166C5.72815 5.28621 5.43945 5.49292 5.20714 5.67897C5.10202 5.76442 5.00115 5.85376 4.9017 5.94573C4.85861 5.98525 4.8145 6.0237 4.76918 6.06063C4.6648 6.147 4.6648 6.147 4.62368 6.27016C4.64718 6.44749 4.69687 6.60528 4.76265 6.77131C4.77312 6.79815 4.78358 6.82499 4.79436 6.85264C4.8912 7.09641 5.00273 7.3297 5.12703 7.56049C5.13734 7.57993 5.14764 7.59936 5.15826 7.61939C5.4201 8.11116 5.74654 8.54835 6.12244 8.95953C6.16924 9.01149 6.21347 9.06391 6.25679 9.11872C6.33169 9.20514 6.41112 9.27685 6.49815 9.35069C6.54104 9.38764 6.5831 9.42558 6.62426 9.46445C7.0151 9.83241 7.46898 10.1186 7.93953 10.373C7.95985 10.384 7.98016 10.395 8.00109 10.4063C8.61999 10.7617 8.61999 10.7617 9.28719 10.871C9.35468 10.8161 9.41114 10.7636 9.4703 10.7008C9.48708 10.6834 9.50386 10.6661 9.52115 10.6483C9.64317 10.5208 9.75587 10.3872 9.86569 10.2491C9.94054 10.1571 10.0185 10.0688 10.0983 9.98115C10.1238 9.95312 10.1493 9.9251 10.1756 9.89623C10.4231 9.64406 10.4231 9.64406 10.5974 9.63473C11.3032 9.64568 12.127 10.329 12.7149 10.6953C12.7686 10.7284 12.8223 10.7616 12.8761 10.7948C13.9962 11.4905 13.9962 11.4905 14.0784 11.8116C14.0905 12.1046 13.871 12.2967 13.6854 12.4988C13.4694 12.7295 13.2479 12.9505 13.0079 13.1562C12.9752 13.1849 12.9426 13.2135 12.9099 13.2423C12.6844 13.4402 12.4556 13.6319 12.2173 13.8142C12.1749 13.8466 12.1326 13.8792 12.0904 13.9118C11.9196 14.0435 11.7471 14.1725 11.5723 14.2988C11.5519 14.3137 11.5314 14.3287 11.5103 14.344C11.2444 14.5346 11.0255 14.6123 10.6934 14.5624C10.6696 14.559 10.6457 14.5556 10.6211 14.5521C9.82299 14.4291 9.03908 14.1322 8.32039 13.7714C8.28033 13.7515 8.28033 13.7515 8.23946 13.7311C7.11027 13.1655 6.04597 12.4068 5.12784 11.5395C5.06479 11.48 5 11.4233 4.93409 11.367C4.77753 11.2307 4.63184 11.0834 4.48543 10.9364C4.43682 10.8876 4.38806 10.839 4.33928 10.7904C4.17576 10.627 4.01714 10.4612 3.86727 10.2851C3.82405 10.2374 3.78073 10.1898 3.73726 10.1423C3.60833 9.99907 3.48783 9.85098 3.36922 9.69916C3.3384 9.6601 3.30758 9.62104 3.27675 9.58198C2.18713 8.19659 1.19794 6.58023 0.937582 4.80658C0.934603 4.78638 0.931624 4.76618 0.928555 4.74536C0.885419 4.40565 1.00822 4.18985 1.20125 3.92768C1.21931 3.90308 1.23737 3.87848 1.25597 3.85313C1.62371 3.3563 2.01059 2.87316 2.42657 2.4158C2.46966 2.36838 2.51246 2.32068 2.55497 2.27275C3.35051 1.3769 3.35051 1.3769 3.75008 1.43744Z" fill="#F9F9F9"/>
<path d="M7.96883 1.43753C9.20928 1.40155 10.4811 1.77994 11.4845 2.52151C11.5152 2.54398 11.5459 2.56645 11.5776 2.5896C11.8041 2.75795 12.0133 2.94154 12.2169 3.13675C12.2402 3.1589 12.2402 3.1589 12.264 3.18149C12.507 3.413 12.7223 3.65655 12.92 3.92776C12.932 3.94396 12.9439 3.96016 12.9562 3.97684C13.7089 5.00937 14.09 6.2605 14.0626 7.53128C13.7435 7.53128 13.4245 7.53128 13.0958 7.53128C13.0891 7.41949 13.0825 7.30771 13.0756 7.19253C13.0034 6.19111 12.6704 5.21692 12.0411 4.42581C12.0223 4.40207 12.0223 4.40207 12.0031 4.37784C11.1347 3.29186 9.90981 2.60133 8.52547 2.43362C8.4098 2.42559 8.29399 2.42081 8.17814 2.41588C8.00118 2.40737 8.00118 2.40737 7.96883 2.37503C7.96624 2.30543 7.96545 2.23668 7.96597 2.16709C7.96601 2.14632 7.96605 2.12555 7.9661 2.10416C7.96626 2.03759 7.96663 1.97102 7.967 1.90445C7.96715 1.85941 7.96728 1.81438 7.9674 1.76935C7.96772 1.65874 7.96823 1.54813 7.96883 1.43753Z" fill="#F9F9F9"/>
<path d="M7.96883 3.78127C8.22722 3.77658 8.47682 3.77266 8.73055 3.82888C8.75505 3.83408 8.77954 3.83928 8.80478 3.84463C9.51164 4.00303 10.117 4.36612 10.6348 4.86525C10.6559 4.88444 10.6769 4.90362 10.6986 4.92339C10.8829 5.09621 11.0226 5.30064 11.1622 5.50979C11.1807 5.53717 11.1991 5.56455 11.2182 5.59275C11.4431 5.95088 11.5884 6.36615 11.6749 6.77871C11.6796 6.80033 11.6843 6.82195 11.6891 6.84422C11.7329 7.07841 11.7188 7.2833 11.7188 7.53127C11.3998 7.53127 11.0807 7.53127 10.752 7.53127C10.7454 7.4497 10.7387 7.36812 10.7319 7.28408C10.6705 6.66714 10.4444 6.11434 10.0196 5.65627C9.9982 5.63285 9.97679 5.60944 9.95472 5.58532C9.45456 5.06142 8.80651 4.81818 8.09884 4.75859C7.99813 4.74807 7.99813 4.74807 7.96883 4.71877C7.96624 4.64917 7.96545 4.58043 7.96597 4.51083C7.96601 4.49006 7.96605 4.4693 7.9661 4.4479C7.96626 4.38133 7.96663 4.31476 7.967 4.24819C7.96715 4.20316 7.96728 4.15812 7.9674 4.11309C7.96772 4.00248 7.96823 3.89188 7.96883 3.78127Z" fill="#F9F9F9"/>
</svg>
