<svg width="70" height="50" viewBox="0 0 70 50" fill="none" xmlns="http://www.w3.org/2000/svg">
<g filter="url(#filter0_d_240_3607)">
<mask id="mask0_240_3607" style="mask-type:alpha" maskUnits="userSpaceOnUse" x="25" y="18" width="20" height="14">
<rect x="25" y="18.8906" width="20" height="12.2188" rx="2" fill="#222222"/>
</mask>
<g mask="url(#mask0_240_3607)">
<g filter="url(#filter1_d_240_3607)">
<rect x="25" y="18.8906" width="20.0583" height="12.2188" rx="2" fill="#222222"/>
</g>
<path d="M37.3323 26.6688C35.6961 26.4343 33.7177 26.7594 32.6325 26.9879C32.1108 27.0977 31.5623 27.0282 31.1004 26.762L28.7561 25.4111C28.2418 25.1147 27.6226 25.0621 27.0657 25.2674L26.2154 25.5809C25.4908 25.848 24.9848 26.5084 24.9153 27.2775L24.7303 29.3254C24.6246 30.4963 25.5466 31.5054 26.7222 31.5054H40.3398C40.8619 31.5054 41.264 31.045 41.1939 30.5277C41.1851 30.4632 41.1694 30.4006 41.1444 30.3404C40.9194 29.7998 39.6487 27.0007 37.3323 26.6688Z" fill="url(#paint0_linear_240_3607)" fill-opacity="0.05"/>
<ellipse cx="43.1049" cy="20.5594" rx="7.02624" ry="6.8165" fill="url(#paint1_linear_240_3607)" fill-opacity="0.05"/>
</g>
<g clip-path="url(#clip0_240_3607)">
<path d="M42.074 29.2922V29.1986C42.074 29.1627 42.0516 29.1393 42.0132 29.1393C41.994 29.1393 41.9732 29.1455 41.9588 29.1658C41.9476 29.1487 41.9316 29.1393 41.9076 29.1393C41.8916 29.1393 41.8756 29.144 41.8628 29.1611V29.1424H41.8292V29.2922H41.8628V29.2095C41.8628 29.183 41.8772 29.1705 41.8996 29.1705C41.922 29.1705 41.9332 29.1845 41.9332 29.2095V29.2922H41.9668V29.2095C41.9668 29.183 41.9828 29.1705 42.0036 29.1705C42.026 29.1705 42.0372 29.1845 42.0372 29.2095V29.2922H42.074ZM42.5716 29.1424H42.5172V29.0972H42.4836V29.1424H42.4532V29.1721H42.4836V29.2407C42.4836 29.275 42.498 29.2953 42.5364 29.2953C42.5508 29.2953 42.5668 29.2906 42.578 29.2844L42.5684 29.2563C42.5588 29.2625 42.5476 29.2641 42.5396 29.2641C42.5236 29.2641 42.5172 29.2547 42.5172 29.2391V29.1721H42.5716V29.1424ZM42.8564 29.1393C42.8372 29.1393 42.8244 29.1487 42.8164 29.1611V29.1424H42.7828V29.2922H42.8164V29.2079C42.8164 29.183 42.8276 29.1689 42.8484 29.1689C42.8548 29.1689 42.8628 29.1705 42.8692 29.1721L42.8788 29.1409C42.8724 29.1393 42.8628 29.1393 42.8564 29.1393ZM42.426 29.1549C42.41 29.144 42.3876 29.1393 42.3636 29.1393C42.3252 29.1393 42.2996 29.158 42.2996 29.1877C42.2996 29.2126 42.3188 29.2267 42.3524 29.2313L42.3684 29.2329C42.386 29.236 42.3956 29.2407 42.3956 29.2485C42.3956 29.2594 42.3828 29.2672 42.3604 29.2672C42.338 29.2672 42.3204 29.2594 42.3092 29.2516L42.2932 29.2766C42.3108 29.2891 42.3348 29.2953 42.3588 29.2953C42.4036 29.2953 42.4292 29.275 42.4292 29.2469C42.4292 29.2204 42.4084 29.2064 42.3764 29.2017L42.3604 29.2001C42.346 29.1986 42.3348 29.1955 42.3348 29.1861C42.3348 29.1752 42.346 29.1689 42.3636 29.1689C42.3828 29.1689 42.402 29.1767 42.4116 29.1814L42.426 29.1549ZM43.3189 29.1393C43.2997 29.1393 43.2869 29.1487 43.2789 29.1611V29.1424H43.2453V29.2922H43.2789V29.2079C43.2789 29.183 43.2901 29.1689 43.3109 29.1689C43.3173 29.1689 43.3253 29.1705 43.3317 29.1721L43.3413 29.1409C43.3349 29.1393 43.3253 29.1393 43.3189 29.1393ZM42.89 29.2173C42.89 29.2625 42.922 29.2953 42.9716 29.2953C42.994 29.2953 43.01 29.2906 43.026 29.2781L43.01 29.2516C42.9972 29.261 42.9844 29.2657 42.97 29.2657C42.9428 29.2657 42.9236 29.2469 42.9236 29.2173C42.9236 29.1892 42.9428 29.1705 42.97 29.1689C42.9844 29.1689 42.9972 29.1736 43.01 29.183L43.026 29.1565C43.01 29.144 42.994 29.1393 42.9716 29.1393C42.922 29.1393 42.89 29.1721 42.89 29.2173ZM43.2005 29.2173V29.1424H43.1669V29.1611C43.1557 29.1471 43.1397 29.1393 43.1189 29.1393C43.0757 29.1393 43.042 29.1721 43.042 29.2173C43.042 29.2625 43.0757 29.2953 43.1189 29.2953C43.1413 29.2953 43.1573 29.2875 43.1669 29.2735V29.2922H43.2005V29.2173ZM43.0773 29.2173C43.0773 29.1908 43.0949 29.1689 43.1237 29.1689C43.1509 29.1689 43.1701 29.1892 43.1701 29.2173C43.1701 29.2438 43.1509 29.2657 43.1237 29.2657C43.0949 29.2641 43.0773 29.2438 43.0773 29.2173ZM42.6756 29.1393C42.6308 29.1393 42.5988 29.1705 42.5988 29.2173C42.5988 29.2641 42.6308 29.2953 42.6772 29.2953C42.6996 29.2953 42.722 29.2891 42.7396 29.275L42.7236 29.2516C42.7108 29.261 42.6948 29.2672 42.6788 29.2672C42.658 29.2672 42.6372 29.2579 42.6324 29.2313H42.746V29.2189C42.7476 29.1705 42.7188 29.1393 42.6756 29.1393ZM42.6756 29.1674C42.6964 29.1674 42.7108 29.1799 42.714 29.2033H42.634C42.6372 29.183 42.6516 29.1674 42.6756 29.1674ZM43.5093 29.2173V29.0831H43.4757V29.1611C43.4645 29.1471 43.4485 29.1393 43.4277 29.1393C43.3845 29.1393 43.3509 29.1721 43.3509 29.2173C43.3509 29.2625 43.3845 29.2953 43.4277 29.2953C43.4501 29.2953 43.4661 29.2875 43.4757 29.2735V29.2922H43.5093V29.2173ZM43.3861 29.2173C43.3861 29.1908 43.4037 29.1689 43.4325 29.1689C43.4597 29.1689 43.4789 29.1892 43.4789 29.2173C43.4789 29.2438 43.4597 29.2657 43.4325 29.2657C43.4037 29.2641 43.3861 29.2438 43.3861 29.2173ZM42.2628 29.2173V29.1424H42.2292V29.1611C42.218 29.1471 42.202 29.1393 42.1812 29.1393C42.138 29.1393 42.1044 29.1721 42.1044 29.2173C42.1044 29.2625 42.138 29.2953 42.1812 29.2953C42.2036 29.2953 42.2196 29.2875 42.2292 29.2735V29.2922H42.2628V29.2173ZM42.138 29.2173C42.138 29.1908 42.1556 29.1689 42.1844 29.1689C42.2116 29.1689 42.2308 29.1892 42.2308 29.2173C42.2308 29.2438 42.2116 29.2657 42.1844 29.2657C42.1556 29.2641 42.138 29.2438 42.138 29.2173Z" fill="white"/>
<path d="M42.9189 28.0051H42.4149V28.8881H42.9189V28.0051Z" fill="#FF5F00"/>
<path d="M42.4469 28.4466C42.4469 28.2672 42.5333 28.1081 42.6661 28.0051C42.5685 27.9302 42.4453 27.885 42.3109 27.885C41.9925 27.885 41.7349 28.1362 41.7349 28.4466C41.7349 28.7571 41.9925 29.0082 42.3109 29.0082C42.4453 29.0082 42.5685 28.963 42.6661 28.8881C42.5333 28.7867 42.4469 28.626 42.4469 28.4466Z" fill="#EB001B"/>
<path d="M43.5989 28.4466C43.5989 28.7571 43.3413 29.0083 43.0229 29.0083C42.8885 29.0083 42.7653 28.963 42.6677 28.8881C42.8021 28.7852 42.8869 28.626 42.8869 28.4466C42.8869 28.2672 42.8005 28.1081 42.6677 28.0051C42.7653 27.9302 42.8885 27.885 43.0229 27.885C43.3413 27.885 43.5989 28.1377 43.5989 28.4466Z" fill="#F9BC2F"/>
</g>
<mask id="mask1_240_3607" style="mask-type:alpha" maskUnits="userSpaceOnUse" x="26" y="20" width="3" height="3">
<rect x="26.3995" y="20.8139" width="1.86589" height="1.35764" rx="0.678822" fill="#FFBA49"/>
</mask>
<g mask="url(#mask1_240_3607)">
<rect x="26.3995" y="20.8139" width="1.86589" height="1.35764" rx="0.678822" fill="#F9BC2F"/>
<rect x="26.0498" y="20.9271" width="1.16618" height="0.395979" rx="0.19799" stroke="#D29634" stroke-width="0.3"/>
<rect x="26.0498" y="21.3231" width="1.16618" height="0.395979" rx="0.19799" stroke="#D29634" stroke-width="0.3"/>
<rect x="26.0498" y="21.719" width="1.16618" height="0.395979" rx="0.19799" stroke="#D29634" stroke-width="0.3"/>
<rect x="27.5074" y="20.9271" width="1.16618" height="0.395979" rx="0.19799" stroke="#D29634" stroke-width="0.3"/>
<rect x="27.5074" y="21.3231" width="1.16618" height="0.395979" rx="0.19799" stroke="#D29634" stroke-width="0.3"/>
<rect x="27.5074" y="21.719" width="1.16618" height="0.395979" rx="0.19799" stroke="#D29634" stroke-width="0.3"/>
</g>
</g>
<defs>
<filter id="filter0_d_240_3607" x="0" y="-5.1094" width="70" height="62.2188" filterUnits="userSpaceOnUse" color-interpolation-filters="sRGB">
<feFlood flood-opacity="0" result="BackgroundImageFix"/>
<feColorMatrix in="SourceAlpha" type="matrix" values="0 0 0 0 0 0 0 0 0 0 0 0 0 0 0 0 0 0 127 0" result="hardAlpha"/>
<feOffset dy="1"/>
<feGaussianBlur stdDeviation="12.5"/>
<feColorMatrix type="matrix" values="0 0 0 0 0 0 0 0 0 0 0 0 0 0 0 0 0 0 0.34 0"/>
<feBlend mode="normal" in2="BackgroundImageFix" result="effect1_dropShadow_240_3607"/>
<feBlend mode="normal" in="SourceGraphic" in2="effect1_dropShadow_240_3607" result="shape"/>
</filter>
<filter id="filter1_d_240_3607" x="0" y="-5.1094" width="70.0583" height="62.2188" filterUnits="userSpaceOnUse" color-interpolation-filters="sRGB">
<feFlood flood-opacity="0" result="BackgroundImageFix"/>
<feColorMatrix in="SourceAlpha" type="matrix" values="0 0 0 0 0 0 0 0 0 0 0 0 0 0 0 0 0 0 127 0" result="hardAlpha"/>
<feOffset dy="1"/>
<feGaussianBlur stdDeviation="12.5"/>
<feColorMatrix type="matrix" values="0 0 0 0 0 0 0 0 0 0 0 0 0 0 0 0 0 0 0.08 0"/>
<feBlend mode="normal" in2="BackgroundImageFix" result="effect1_dropShadow_240_3607"/>
<feBlend mode="normal" in="SourceGraphic" in2="effect1_dropShadow_240_3607" result="shape"/>
</filter>
<linearGradient id="paint0_linear_240_3607" x1="31.0349" y1="30.968" x2="42.0055" y2="23.8229" gradientUnits="userSpaceOnUse">
<stop stop-color="white"/>
<stop offset="1" stop-color="white" stop-opacity="0"/>
</linearGradient>
<linearGradient id="paint1_linear_240_3607" x1="43.1049" y1="13.7429" x2="43.1049" y2="27.3759" gradientUnits="userSpaceOnUse">
<stop stop-color="white"/>
<stop offset="1" stop-color="white" stop-opacity="0"/>
</linearGradient>
<clipPath id="clip0_240_3607">
<rect x="41.7349" y="27.885" width="1.86589" height="1.41421" rx="0.707106" fill="white"/>
</clipPath>
</defs>
</svg>
