<svg width="20" height="20" viewBox="0 0 20 20" fill="none" xmlns="http://www.w3.org/2000/svg">
<g clip-path="url(#clip0_240_2878)">
<path d="M0.301656 7.80212C0.333265 7.8023 0.364873 7.80248 0.39744 7.80267C0.43101 7.80256 0.464581 7.80244 0.499168 7.80233C0.612899 7.80204 0.726622 7.80231 0.840352 7.80258C0.922216 7.80249 1.00408 7.80237 1.08594 7.80221C1.31187 7.80188 1.53779 7.80205 1.76371 7.80229C2.00698 7.80247 2.25025 7.80219 2.49352 7.80198C2.94287 7.80165 3.39222 7.80168 3.84157 7.80189C4.25663 7.80209 4.67168 7.80214 5.08674 7.80205C5.11424 7.80204 5.14173 7.80204 5.17006 7.80203C5.28165 7.80201 5.39325 7.80198 5.50485 7.80195C6.55246 7.80172 7.60008 7.80193 8.6477 7.80235C9.57917 7.80272 10.5106 7.80269 11.4421 7.80232C12.4878 7.8019 13.5334 7.80173 14.5791 7.80197C14.6905 7.802 14.8019 7.80202 14.9133 7.80205C14.9407 7.80205 14.9681 7.80206 14.9964 7.80207C15.4113 7.80216 15.8262 7.80205 16.241 7.80185C16.7126 7.80163 17.1842 7.80169 17.6557 7.80211C17.8966 7.80232 18.1374 7.8024 18.3782 7.80214C18.5983 7.80191 18.8185 7.80203 19.0386 7.80245C19.1185 7.80254 19.1985 7.80249 19.2785 7.8023C19.3865 7.80207 19.4945 7.80231 19.6026 7.80267C19.6342 7.80249 19.6658 7.80231 19.6984 7.80212C19.913 7.80358 19.913 7.80358 20 7.89063C20.008 7.98535 20.011 8.07564 20.0107 8.17043C20.0109 8.19959 20.0111 8.22875 20.0113 8.2588C20.0119 8.35706 20.012 8.45531 20.012 8.55357C20.0123 8.62383 20.0126 8.69409 20.013 8.76435C20.0138 8.95573 20.0142 9.14712 20.0144 9.33851C20.0145 9.45822 20.0148 9.57792 20.015 9.69763C20.016 10.1157 20.0165 10.5338 20.0166 10.9519C20.0168 11.3407 20.0179 11.7295 20.0196 12.1183C20.0209 12.4526 20.0215 12.7868 20.0216 13.1211C20.0216 13.3205 20.0219 13.5199 20.0231 13.7193C20.0241 13.9073 20.0242 14.0954 20.0235 14.2834C20.0235 14.352 20.0237 14.4206 20.0243 14.4892C20.0296 15.1019 19.9292 15.6041 19.5313 16.0938C19.4948 16.1425 19.4948 16.1425 19.4576 16.1922C19.1583 16.5434 18.6915 16.7842 18.2422 16.875C18.0189 16.8919 17.7964 16.891 17.5726 16.8901C17.5046 16.8903 17.4366 16.8905 17.3686 16.8908C17.1824 16.8913 16.9963 16.8912 16.8101 16.8909C16.6091 16.8907 16.408 16.8912 16.207 16.8916C15.8134 16.8923 15.4198 16.8923 15.0262 16.8921C14.7062 16.8919 14.3863 16.892 14.0663 16.8922C14.0208 16.8922 13.9752 16.8923 13.9283 16.8923C13.8357 16.8924 13.7431 16.8924 13.6506 16.8925C12.7828 16.893 11.915 16.8928 11.0472 16.8923C10.2537 16.892 9.4601 16.8925 8.66652 16.8934C7.85131 16.8944 7.0361 16.8947 6.22088 16.8945C5.76335 16.8943 5.30582 16.8944 4.84829 16.8951C4.4588 16.8957 4.06931 16.8957 3.67983 16.895C3.48119 16.8947 3.28257 16.8946 3.08393 16.8952C2.90191 16.8957 2.7199 16.8956 2.53788 16.8948C2.47222 16.8947 2.40656 16.8948 2.3409 16.8952C1.72094 16.8988 1.12392 16.7577 0.65431 16.3231C0.359655 16.008 0.167176 15.6852 0.0390752 15.2734C0.0320326 15.2514 0.0249901 15.2294 0.0177341 15.2067C-0.00743079 15.0796 -0.00549328 14.9537 -0.00521048 14.8246C-0.00529898 14.795 -0.00538748 14.7654 -0.00547866 14.7349C-0.00572605 14.6357 -0.00569393 14.5365 -0.00566169 14.4373C-0.00577855 14.3662 -0.00591147 14.2951 -0.00605925 14.224C-0.00640453 14.0309 -0.0064959 13.8378 -0.00652081 13.6447C-0.00655788 13.4836 -0.00670154 13.3225 -0.00684003 13.1615C-0.00715813 12.7817 -0.00725347 12.4019 -0.00722571 12.0222C-0.00720221 11.6299 -0.00761503 11.2376 -0.00823132 10.8453C-0.00874116 10.5088 -0.00895169 10.1723 -0.00892668 9.83581C-0.0089167 9.63468 -0.00902933 9.43356 -0.00944144 9.23244C-0.0098181 9.04347 -0.00982374 8.8545 -0.00953845 8.66552C-0.00949741 8.59601 -0.00959096 8.5265 -0.00982596 8.457C-0.0101251 8.36243 -0.00994773 8.26788 -0.00964506 8.17332C-0.00984598 8.14553 -0.0100469 8.11775 -0.0102539 8.08912C-0.00845689 7.83672 0.0549981 7.8038 0.301656 7.80212ZM3.2837 12.0996C3.14191 12.323 3.11061 12.5468 3.11281 12.8076C3.11303 12.835 3.11325 12.8623 3.11347 12.8905C3.11907 13.1297 3.13722 13.348 3.29255 13.5382C3.50647 13.7373 3.77747 13.7646 4.05763 13.7622C4.08499 13.762 4.11235 13.7618 4.14053 13.7615C4.37973 13.7559 4.59805 13.7378 4.78822 13.5825C4.98726 13.3685 5.01458 13.0975 5.01222 12.8174C5.012 12.79 5.01178 12.7627 5.01155 12.7345C5.00596 12.4953 4.9878 12.277 4.83247 12.0868C4.61856 11.8878 4.34756 11.8604 4.0674 11.8628C4.04004 11.863 4.01268 11.8632 3.98449 11.8635C3.71478 11.8698 3.47443 11.8946 3.2837 12.0996Z" fill="black"/>
<path d="M2.03281 3.11965C2.06065 3.11954 2.08848 3.11944 2.11716 3.11933C2.21092 3.11903 2.30468 3.11901 2.39844 3.11899C2.46615 3.11883 2.53386 3.11866 2.60157 3.11847C2.78804 3.118 2.9745 3.11778 3.16096 3.1176C3.36193 3.11737 3.5629 3.11692 3.76387 3.1165C4.24948 3.11554 4.73508 3.11497 5.22069 3.11446C5.35787 3.11432 5.49505 3.11416 5.63223 3.114C6.4842 3.11302 7.33617 3.11216 8.18814 3.11167C8.38552 3.11156 8.58289 3.11144 8.78026 3.11132C8.85385 3.11128 8.85385 3.11128 8.92892 3.11123C9.72319 3.11074 10.5175 3.10944 11.3117 3.10782C12.1273 3.10616 12.9429 3.10524 13.7585 3.10503C14.2164 3.1049 14.6743 3.10444 15.1321 3.10315C15.5222 3.10206 15.9122 3.10163 16.3023 3.10207C16.5012 3.10227 16.7 3.10216 16.8989 3.10119C17.0813 3.10031 17.2637 3.10034 17.4461 3.10108C17.5118 3.10119 17.5774 3.10097 17.6431 3.10039C18.2435 3.09533 18.7399 3.20458 19.2187 3.59375C19.2508 3.61792 19.283 3.64209 19.3161 3.66699C19.6835 3.97831 19.8987 4.41776 20 4.88281C20.0036 4.93723 20.0053 4.99179 20.0056 5.04633C20.006 5.09403 20.006 5.09403 20.0064 5.14269C20.0065 5.19366 20.0065 5.19366 20.0065 5.24567C20.0067 5.28081 20.0068 5.31595 20.0069 5.35216C20.0071 5.42629 20.0072 5.50043 20.0072 5.57457C20.0073 5.68833 20.008 5.80207 20.0087 5.91583C20.0089 5.98785 20.0089 6.05987 20.009 6.1319C20.0092 6.16603 20.0095 6.20017 20.0098 6.23535C20.0089 6.47544 20.0089 6.47544 19.9218 6.5625C19.8141 6.57021 19.7103 6.57295 19.6025 6.57233C19.569 6.57244 19.5354 6.57256 19.5008 6.57267C19.3871 6.57296 19.2734 6.57269 19.1596 6.57242C19.0778 6.57251 18.9959 6.57263 18.914 6.57279C18.6881 6.57312 18.4622 6.57295 18.2363 6.57271C17.993 6.57254 17.7497 6.57281 17.5065 6.57302C17.0571 6.57335 16.6078 6.57332 16.1584 6.57311C15.7434 6.57291 15.3283 6.57286 14.9132 6.57295C14.8857 6.57296 14.8582 6.57296 14.8299 6.57297C14.7183 6.573 14.6067 6.57302 14.4951 6.57305C13.4475 6.57329 12.3999 6.57307 11.3523 6.57265C10.4208 6.57228 9.48933 6.57231 8.55786 6.57268C7.5122 6.5731 6.46654 6.57327 5.42089 6.57303C5.30949 6.573 5.19809 6.57298 5.0867 6.57295C5.05927 6.57295 5.03184 6.57294 5.00358 6.57293C4.5887 6.57285 4.17382 6.57295 3.75894 6.57315C3.28738 6.57337 2.81582 6.57331 2.34425 6.57289C2.10342 6.57268 1.8626 6.57261 1.62177 6.57286C1.40165 6.57309 1.18152 6.57297 0.961399 6.57255C0.881435 6.57246 0.801471 6.57251 0.721508 6.5727C0.613466 6.57293 0.505435 6.5727 0.397393 6.57233C0.365785 6.57251 0.334176 6.5727 0.30161 6.57288C0.0870093 6.57142 0.0870093 6.57142 -3.36487e-05 6.48437C-0.0093169 6.37067 -0.0138023 6.26084 -0.0145295 6.147C-0.0148822 6.11295 -0.0152348 6.07891 -0.0155982 6.04383C-0.0161662 5.97135 -0.0165122 5.89888 -0.0166562 5.82641C-0.0171144 5.7175 -0.0190284 5.60869 -0.0210145 5.4998C-0.0266321 4.88572 0.0708383 4.39581 0.468716 3.90625C0.492886 3.87412 0.517056 3.842 0.541959 3.8089C0.824095 3.47594 1.19174 3.29155 1.60153 3.16406C1.6239 3.15702 1.64628 3.14998 1.66933 3.14273C1.79138 3.11826 1.90832 3.11987 2.03281 3.11965Z" fill="black"/>
</g>
<defs>
<clipPath id="clip0_240_2878">
<rect width="20" height="20" fill="white"/>
</clipPath>
</defs>
</svg>
