<svg width="30" height="30" viewBox="0 0 30 30" fill="none" xmlns="http://www.w3.org/2000/svg">
<g clip-path="url(#clip0_341_4573)">
<path d="M6.38974 -0.0158808C6.46687 -0.0163411 6.46687 -0.0163411 6.54556 -0.0168106C6.71683 -0.0176853 6.88808 -0.0177308 7.05934 -0.01777C7.18258 -0.0182168 7.30582 -0.0187107 7.42906 -0.0192479C7.76321 -0.0205316 8.09736 -0.021049 8.43152 -0.0213471C8.64063 -0.0215609 8.84974 -0.0219267 9.05885 -0.0223433C9.78936 -0.023778 10.5199 -0.0245431 11.2504 -0.0247509C11.9296 -0.0249636 12.6089 -0.0267135 13.2881 -0.0291691C13.8725 -0.0312073 14.4569 -0.0321073 15.0414 -0.0321481C15.3898 -0.0321944 15.7383 -0.0326996 16.0868 -0.0343745C16.415 -0.0359168 16.7431 -0.0360332 17.0713 -0.0350978C17.1911 -0.0349922 17.3109 -0.0353777 17.4307 -0.0363177C18.4263 -0.0436471 19.2812 0.0784001 20.0975 0.703308C20.1473 0.741149 20.1972 0.77899 20.2485 0.817978C20.8298 1.29847 21.2545 1.96439 21.4451 2.6955C21.4549 2.73173 21.4646 2.76797 21.4747 2.8053C21.5896 3.29192 21.5772 3.77792 21.5738 4.27432C21.5736 4.36938 21.5734 4.46445 21.5733 4.55951C21.5728 4.80784 21.5717 5.05616 21.5704 5.30448C21.5692 5.55863 21.5686 5.81278 21.568 6.06692C21.5668 6.56421 21.5648 7.06149 21.5623 7.55878C21.4981 7.55886 21.4339 7.55895 21.3677 7.55904C19.8032 7.56118 18.2387 7.56467 16.6742 7.56955C15.9176 7.57188 15.161 7.57378 14.4044 7.57466C13.7448 7.57542 13.0852 7.577 12.4255 7.57956C12.0764 7.58088 11.7273 7.5818 11.3782 7.58174C11.0492 7.58169 10.7202 7.58275 10.3912 7.58463C10.2709 7.58512 10.1506 7.58523 10.0302 7.5849C9.04311 7.58255 8.21102 7.67971 7.43963 8.36787C6.88028 8.9566 6.6611 9.69039 6.66384 10.4832C6.66344 10.5684 6.66344 10.5684 6.66304 10.6553C6.6623 10.8448 6.66239 11.0343 6.66249 11.2238C6.66214 11.36 6.66174 11.4962 6.6613 11.6325C6.66026 12.002 6.65999 12.3714 6.65991 12.7409C6.65983 12.972 6.65958 13.203 6.65927 13.4341C6.65824 14.1992 6.6577 14.9642 6.65778 15.7293C6.65779 15.7911 6.65779 15.7911 6.6578 15.8541C6.6578 15.916 6.6578 15.916 6.65781 15.9791C6.65786 16.6469 6.65674 17.3148 6.65509 17.9826C6.6534 18.6696 6.65259 19.3565 6.65269 20.0435C6.65272 20.4287 6.65239 20.8138 6.65115 21.199C6.65001 21.5615 6.65001 21.924 6.65086 22.2865C6.65098 22.4191 6.65071 22.5517 6.65 22.6843C6.64482 23.7178 6.71946 24.6223 7.45954 25.4189C8.00587 25.9314 8.68885 26.1414 9.42179 26.1423C9.47372 26.1426 9.52565 26.1428 9.57916 26.1431C9.75315 26.144 9.92714 26.1445 10.1011 26.145C10.2259 26.1456 10.3506 26.1462 10.4753 26.1468C10.814 26.1484 11.1527 26.1496 11.4914 26.1508C11.8454 26.1521 12.1993 26.1537 12.5533 26.1552C13.2235 26.1581 13.8938 26.1608 14.564 26.1633C15.3271 26.1662 16.0902 26.1694 16.8532 26.1727C18.4229 26.1793 19.9926 26.1856 21.5623 26.1916C21.5634 26.2746 21.5641 26.3577 21.5648 26.4408C21.5652 26.487 21.5657 26.5333 21.5661 26.5809C21.5392 27.56 21.0031 28.4792 20.3097 29.1362C19.3896 29.9144 18.4485 30.0267 17.2935 30.0239C17.17 30.0242 17.0466 30.0246 16.9231 30.0251C16.5892 30.0261 16.2553 30.0261 15.9214 30.0257C15.642 30.0255 15.3626 30.0259 15.0832 30.0263C14.4237 30.0271 13.7641 30.027 13.1046 30.0263C12.4257 30.0256 11.7468 30.0265 11.0679 30.028C10.4836 30.0293 9.89939 30.0297 9.31512 30.0294C8.96678 30.0292 8.61845 30.0293 8.27012 30.0303C7.94235 30.0312 7.6146 30.031 7.28684 30.0299C7.16709 30.0297 7.04734 30.0299 6.92759 30.0305C5.72957 30.0362 4.78126 29.8173 3.88143 28.9636C3.02679 28.0851 2.78461 27.1036 2.79 25.9118C2.7898 25.8135 2.78952 25.7153 2.78917 25.6171C2.78844 25.3488 2.7888 25.0805 2.78935 24.8122C2.78975 24.5222 2.78913 24.2323 2.78865 23.9423C2.78787 23.3749 2.78803 22.8075 2.78854 22.24C2.78894 21.7788 2.78899 21.3175 2.7888 20.8562C2.78878 20.7905 2.78875 20.7248 2.78872 20.657C2.78866 20.5235 2.78861 20.39 2.78855 20.2564C2.78805 19.0052 2.78862 17.7539 2.78957 16.5027C2.79036 15.4297 2.79022 14.3568 2.78941 13.2839C2.78847 12.037 2.7881 10.7901 2.78864 9.54325C2.78869 9.41022 2.78875 9.27719 2.7888 9.14416C2.78883 9.07871 2.78886 9.01326 2.78889 8.94583C2.78904 8.48526 2.78878 8.0247 2.78837 7.56414C2.78787 7.00264 2.78801 6.44115 2.78894 5.87965C2.7894 5.59333 2.78959 5.30701 2.78901 5.02069C2.78848 4.7583 2.78877 4.49591 2.7897 4.23351C2.7899 4.13889 2.7898 4.04427 2.78937 3.94964C2.78486 2.86825 3.02795 1.92013 3.78921 1.12123C4.50461 0.405826 5.37268 -0.0189275 6.38974 -0.0158808ZM10.5284 4.14569C10.3759 4.43929 10.3395 4.63894 10.4332 4.95868C10.5719 5.20037 10.7256 5.38635 10.9974 5.48561C11.1978 5.51879 11.3979 5.51994 11.6005 5.52196C11.6685 5.52267 11.6685 5.52267 11.738 5.52339C11.8339 5.5242 11.9299 5.52483 12.0258 5.52529C12.1233 5.52596 12.2208 5.52716 12.3183 5.52889C12.4599 5.53141 12.6014 5.53235 12.7431 5.53294C12.8075 5.53448 12.8075 5.53448 12.8733 5.53605C13.1954 5.53472 13.4415 5.45196 13.7108 5.27362C13.8966 5.07385 13.9597 4.92202 13.9708 4.65472C13.9561 4.3536 13.8501 4.19261 13.6522 3.96991C13.4147 3.76215 13.1402 3.79838 12.8417 3.79687C12.7908 3.79654 12.7398 3.79621 12.6873 3.79586C12.5795 3.79531 12.4717 3.79493 12.3639 3.7947C12.1995 3.79413 12.0352 3.79231 11.8709 3.79047C11.766 3.79008 11.6612 3.78978 11.5563 3.78955C11.5074 3.78883 11.4585 3.7881 11.4081 3.78736C11.0364 3.78877 10.7779 3.84892 10.5284 4.14569Z" fill="black"/>
<path d="M8.32036 12.832C8.42851 12.8606 8.42851 12.8606 8.53884 12.8897C8.88336 12.9657 9.21932 12.9656 9.57085 12.9644C9.67799 12.9647 9.67799 12.9647 9.78729 12.965C9.98428 12.9655 10.1813 12.9655 10.3782 12.9652C10.5912 12.9651 10.8041 12.9656 11.017 12.966C11.3856 12.9667 11.7542 12.967 12.1228 12.9671C12.6563 12.9672 13.1897 12.9681 13.7232 12.9692C14.5894 12.971 15.4556 12.9724 16.3219 12.9734C16.3737 12.9735 16.4255 12.9736 16.4788 12.9736C17.0569 12.9743 17.6349 12.9749 18.213 12.9754C18.4227 12.9756 18.6324 12.9758 18.8421 12.976C18.9198 12.976 18.9198 12.976 18.999 12.9761C19.8621 12.9769 20.7253 12.9783 21.5884 12.9803C22.1205 12.9815 22.6526 12.9821 23.1846 12.9819C23.5491 12.9819 23.9136 12.9824 24.2781 12.9835C24.4884 12.9841 24.6986 12.9844 24.9088 12.9839C25.1369 12.9834 25.3649 12.9843 25.5929 12.9852C25.6592 12.9849 25.7254 12.9845 25.7936 12.9841C26.2016 12.9873 26.5738 13.0101 26.898 13.2864C26.9247 13.3213 26.9513 13.3563 26.9788 13.3923C27.0065 13.4275 27.0343 13.4626 27.0628 13.4988C27.225 13.7317 27.1949 13.9612 27.1933 14.2351C27.1931 14.3129 27.1931 14.3129 27.193 14.3922C27.1927 14.5582 27.192 14.7242 27.1912 14.8901C27.1909 15.0025 27.1907 15.1149 27.1904 15.2273C27.1898 15.5031 27.1888 15.7789 27.1876 16.0547C27.1348 16.0549 27.082 16.0551 27.0277 16.0553C26.5278 16.0576 26.0279 16.0609 25.528 16.0655C25.271 16.0678 25.0141 16.0697 24.7572 16.0706C24.5087 16.0715 24.2602 16.0735 24.0118 16.0763C23.9175 16.0771 23.8232 16.0776 23.729 16.0776C22.8166 16.0786 22.0884 16.2556 21.4051 16.8896C20.8348 17.493 20.6442 18.1844 20.6633 19.0013C20.7319 19.7336 21.0829 20.4005 21.6472 20.8699C22.3866 21.3967 23.11 21.4629 23.9889 21.4696C24.0814 21.4707 24.174 21.4718 24.2665 21.473C24.5084 21.476 24.7502 21.4783 24.9921 21.4805C25.2396 21.4829 25.487 21.4859 25.7345 21.4888C26.2188 21.4944 26.7032 21.4994 27.1876 21.5039C27.1934 21.8218 27.1976 22.1397 27.2004 22.4577C27.2016 22.5657 27.2032 22.6738 27.2052 22.7818C27.2081 22.9376 27.2094 23.0933 27.2104 23.2491C27.2116 23.297 27.2129 23.3449 27.2141 23.3942C27.2142 23.7307 27.1459 23.922 26.9532 24.1992C26.7055 24.4287 26.525 24.4994 26.1914 24.5002C26.1305 24.5005 26.0696 24.5008 26.0069 24.5011C25.9398 24.5011 25.8727 24.5012 25.8036 24.5012C25.6969 24.5016 25.6969 24.5016 25.588 24.502C25.3903 24.5026 25.1925 24.503 24.9947 24.5033C24.7815 24.5036 24.5683 24.5043 24.3552 24.5049C23.8402 24.5064 23.3252 24.5072 22.8102 24.508C22.6647 24.5082 22.5193 24.5084 22.3738 24.5087C21.4707 24.5102 20.5675 24.5114 19.6644 24.5122C19.4552 24.5124 19.246 24.5125 19.0368 24.5127C18.9588 24.5128 18.9588 24.5128 18.8792 24.5128C18.0369 24.5136 17.1945 24.5155 16.3522 24.518C15.4875 24.5204 14.6227 24.5218 13.758 24.5221C13.2725 24.5223 12.7869 24.523 12.3014 24.525C11.8879 24.5266 11.4744 24.5272 11.0608 24.5266C10.8499 24.5263 10.639 24.5264 10.428 24.5279C10.1992 24.5295 9.97041 24.5287 9.74156 24.5278C9.67511 24.5286 9.60865 24.5294 9.54018 24.5303C9.1458 24.5263 8.84416 24.4846 8.55474 24.1992C8.33897 23.9084 8.28622 23.6187 8.29218 23.2604C8.29198 23.2154 8.29178 23.1705 8.29157 23.1243C8.29119 22.9751 8.29247 22.826 8.29376 22.6768C8.29382 22.5694 8.29379 22.4619 8.29365 22.3545C8.29359 22.0637 8.29496 21.773 8.2966 21.4822C8.29807 21.178 8.2982 20.8738 8.29848 20.5696C8.29921 19.994 8.30113 19.4184 8.30348 18.8427C8.30611 18.1872 8.30739 17.5317 8.30857 16.8762C8.31102 15.5281 8.31514 14.1801 8.32036 12.832Z" fill="black"/>
<path d="M9.43797 9.24971C9.49836 9.24945 9.55875 9.24919 9.62097 9.24892C9.68722 9.24893 9.75348 9.24894 9.82174 9.24895C9.89219 9.24874 9.96265 9.24852 10.0352 9.2483C10.2309 9.24777 10.4265 9.2475 10.6222 9.24734C10.8331 9.24711 11.0441 9.24655 11.2551 9.24604C11.7646 9.24488 12.2741 9.24429 12.7836 9.24377C13.0236 9.24351 13.2635 9.2432 13.5035 9.24289C14.3012 9.2419 15.0989 9.24105 15.8966 9.24062C16.1035 9.24051 16.3105 9.2404 16.5174 9.24028C16.5946 9.24024 16.5946 9.24024 16.6733 9.2402C17.5068 9.23971 18.3402 9.23823 19.1736 9.23632C20.0293 9.23439 20.8851 9.23333 21.7408 9.23314C22.2212 9.23302 22.7017 9.2325 23.1821 9.23101C23.5912 9.22973 24.0003 9.22926 24.4095 9.22983C24.6181 9.2301 24.8268 9.22999 25.0355 9.22885C25.2619 9.22763 25.4883 9.22823 25.7147 9.229C25.7804 9.22836 25.8461 9.22771 25.9138 9.22705C26.3471 9.23062 26.6696 9.29106 27.0036 9.58957C27.2413 9.96001 27.221 10.3229 27.2057 10.7517C27.2044 10.8223 27.203 10.8928 27.2017 10.9655C27.1982 11.1385 27.1934 11.3113 27.1874 11.4841C26.7937 11.429 26.7936 11.429 26.631 11.3946C26.3293 11.354 26.03 11.359 25.7259 11.3597C25.6548 11.3596 25.5838 11.3595 25.5106 11.3594C25.3549 11.3593 25.1992 11.3592 25.0435 11.3594C24.7902 11.3596 24.5368 11.3595 24.2835 11.3592C23.9633 11.359 23.6431 11.3589 23.3229 11.3589C22.6938 11.3589 22.0646 11.3581 21.4354 11.3571C21.3363 11.357 21.2372 11.3568 21.1381 11.3567C20.9879 11.3564 20.8378 11.3562 20.6876 11.356C20.1216 11.3551 19.5557 11.3543 18.9898 11.3536C18.9122 11.3535 18.9122 11.3535 18.8331 11.3534C17.9947 11.3524 17.1564 11.3522 16.318 11.3523C15.457 11.3524 14.5959 11.3513 13.7349 11.3493C13.204 11.3481 12.6731 11.3478 12.1421 11.3486C11.7783 11.3491 11.4144 11.3485 11.0506 11.3471C10.8407 11.3464 10.6308 11.3461 10.421 11.347C10.1933 11.3481 9.96565 11.3469 9.73797 11.3454C9.67187 11.3461 9.60576 11.3468 9.53765 11.3474C9.14338 11.3426 8.85148 11.2893 8.55456 11.0154C8.33448 10.7112 8.279 10.4485 8.32018 10.0779C8.4227 9.72813 8.60292 9.51048 8.90612 9.31617C9.0861 9.25962 9.2499 9.25009 9.43797 9.24971Z" fill="black"/>
<path d="M23.4558 17.7274C23.4964 17.7274 23.5371 17.7274 23.5789 17.7273C23.7118 17.7275 23.8446 17.7293 23.9774 17.7312C24.0701 17.7316 24.1628 17.7319 24.2555 17.7322C24.4983 17.7331 24.7412 17.7353 24.984 17.7379C25.2759 17.7408 25.5679 17.7418 25.8599 17.7432C26.3024 17.7455 26.7449 17.75 27.1875 17.754C27.1875 18.4308 27.1875 19.1076 27.1875 19.8048C26.178 19.8119 26.178 19.8119 25.7467 19.8134C25.4527 19.8145 25.1588 19.8157 24.8648 19.8181C24.6278 19.82 24.3907 19.821 24.1536 19.8215C24.0633 19.8218 23.973 19.8225 23.8827 19.8234C23.7559 19.8247 23.6292 19.8249 23.5024 19.8248C23.4303 19.8252 23.3582 19.8256 23.2839 19.826C22.9681 19.7922 22.7399 19.6694 22.5403 19.424C22.5115 19.3895 22.4827 19.3551 22.4531 19.3196C22.2744 19.0636 22.2857 18.7556 22.3242 18.4572C22.4455 18.138 22.6144 17.9709 22.9133 17.8043C23.0948 17.7243 23.2589 17.726 23.4558 17.7274Z" fill="black"/>
</g>
<defs>
<clipPath id="clip0_341_4573">
<rect width="30" height="30" fill="white"/>
</clipPath>
</defs>
</svg>
