<svg width="20" height="20" viewBox="0 0 20 20" fill="none" xmlns="http://www.w3.org/2000/svg">
<g clip-path="url(#clip0_240_3557)">
<path d="M7.51129 13.8473C7.5628 13.8642 7.61432 13.8811 7.66585 13.898C7.77285 13.9331 7.87979 13.9683 7.98668 14.0038C8.12226 14.0487 8.25797 14.0932 8.39373 14.1376C8.49982 14.1723 8.60585 14.2072 8.71186 14.2421C8.78573 14.2665 8.85964 14.2907 8.93356 14.3149C9.92139 14.643 9.92139 14.643 10.1265 15.0079C10.2083 15.1828 10.2599 15.3613 10.3125 15.5469C10.3478 15.5415 10.383 15.5361 10.4193 15.5306C10.7532 15.4797 11.087 15.4291 11.4209 15.3788C11.5925 15.353 11.7641 15.327 11.9357 15.3008C12.1016 15.2754 12.2675 15.2504 12.4334 15.2255C12.4964 15.2161 12.5594 15.2065 12.6224 15.1968C13.6878 15.0328 13.6878 15.0328 14.1521 15.331C14.3941 15.523 14.5496 15.79 14.6094 16.0937C14.6478 16.4468 14.5689 16.7843 14.3457 17.0654C14.0801 17.335 13.7571 17.4456 13.4036 17.5615C13.3534 17.5783 13.3032 17.5952 13.253 17.612C13.1175 17.6574 12.9819 17.7023 12.8462 17.7471C12.7037 17.7942 12.5613 17.8418 12.4189 17.8893C12.1797 17.969 11.9405 18.0484 11.7011 18.1276C11.4253 18.2189 11.1495 18.3106 10.8739 18.4026C10.6077 18.4914 10.3415 18.5799 10.0752 18.6683C9.96233 18.7058 9.84949 18.7433 9.73667 18.781C9.60355 18.8253 9.47035 18.8695 9.3371 18.9134C9.26547 18.9371 9.19391 18.961 9.12235 18.9849C7.98179 19.3598 7.10453 19.1394 6.05619 18.615C5.94618 18.5591 5.83688 18.502 5.72769 18.4445C5.35912 18.2538 5.10704 18.1509 4.6875 18.2422C4.59687 18.258 4.5061 18.2728 4.41529 18.2876C4.35429 18.2977 4.29336 18.3084 4.23255 18.3196C4.19022 18.3273 4.19022 18.3273 4.14703 18.3351C4.12224 18.3398 4.09745 18.3444 4.0719 18.3492C3.95233 18.3631 3.83131 18.3594 3.71094 18.3594C3.71094 17.0059 3.71094 15.6523 3.71094 14.2578C3.95453 14.1604 4.19344 14.0672 4.44214 13.9865C4.48804 13.9715 4.48804 13.9715 4.53487 13.9562C4.59892 13.9353 4.66299 13.9145 4.72708 13.8938C4.82409 13.8623 4.92097 13.8305 5.01785 13.7987C5.93102 13.5008 6.59167 13.5422 7.51129 13.8473Z" fill="black"/>
<path d="M12.1892 0.95535C12.2543 0.96935 12.3195 0.983327 12.3846 0.997284C12.5925 1.04195 12.8002 1.08732 13.0078 1.13281C13.0422 1.14033 13.0766 1.14784 13.112 1.15559C13.5981 1.26191 14.0839 1.36965 14.5696 1.47793C14.7136 1.50999 14.8576 1.54194 15.0015 1.57389C15.1412 1.60491 15.2809 1.63598 15.4206 1.66708C15.4867 1.68179 15.5528 1.69647 15.6189 1.71114C15.7098 1.73134 15.8008 1.75162 15.8917 1.77192C15.9319 1.78083 15.9319 1.78083 15.973 1.78993C16.0806 1.81402 16.1843 1.84009 16.2891 1.875C16.2889 1.92321 16.2887 1.97142 16.2885 2.0211C16.2869 2.47736 16.2858 2.93362 16.285 3.38988C16.2846 3.6244 16.2841 3.85892 16.2832 4.09344C16.2823 4.32012 16.2819 4.5468 16.2817 4.77349C16.2815 4.8596 16.2812 4.94572 16.2808 5.03183C16.2787 5.48412 16.2814 5.92139 16.3672 6.36719C16.2049 6.44264 16.0425 6.51771 15.8799 6.59225C15.8248 6.61757 15.7698 6.64302 15.7149 6.66862C15.1075 6.95151 14.5467 7.11498 13.8724 7.11567C13.8264 7.11586 13.7803 7.11606 13.7329 7.11625C13.6073 7.11673 13.4818 7.11702 13.3562 7.11719C13.2776 7.11731 13.199 7.11747 13.1204 7.11764C12.874 7.11818 12.6276 7.11855 12.3811 7.1187C12.0975 7.11888 11.8139 7.11957 11.5303 7.1207C11.3104 7.12154 11.0906 7.12194 10.8707 7.12199C10.7397 7.12203 10.6086 7.12231 10.4776 7.12296C10.3313 7.12362 10.1851 7.12355 10.0389 7.1233C9.97441 7.12384 9.97441 7.12384 9.90859 7.12439C9.55006 7.12244 9.28619 7.05963 9.02344 6.79687C8.85604 6.55888 8.80013 6.34419 8.82812 6.05469C8.88142 5.80241 9.02161 5.59434 9.21875 5.42969C9.4048 5.34101 9.57492 5.28895 9.7788 5.25147C9.80602 5.24637 9.83325 5.24127 9.8613 5.23602C9.91992 5.22507 9.97858 5.21427 10.0373 5.2036C10.1305 5.18664 10.2236 5.16925 10.3168 5.15176C10.5481 5.10839 10.7795 5.06564 11.011 5.02303C11.2068 4.98698 11.4026 4.95062 11.5982 4.9138C11.6893 4.89678 11.7805 4.88023 11.8717 4.8637C12.3127 4.78193 12.746 4.69576 13.0469 4.33594C13.2299 4.04314 13.4575 3.62622 13.4265 3.27316C13.3929 3.14255 13.3455 3.0923 13.2422 3.00781C13.1333 2.95336 13.0437 2.96325 12.9218 2.96257C12.8842 2.96228 12.8842 2.96228 12.8457 2.96198C12.7612 2.96138 12.6767 2.96106 12.5922 2.96073C12.5318 2.96035 12.4714 2.95996 12.4109 2.95956C12.2465 2.9585 12.0821 2.95768 11.9177 2.9569C11.7461 2.95605 11.5744 2.95498 11.4027 2.95393C11.0775 2.95198 10.7522 2.95022 10.427 2.94854C10.0568 2.94661 9.68656 2.94446 9.31634 2.9423C8.55465 2.93785 7.79295 2.93368 7.03125 2.92969C7.44748 2.2195 8.10928 1.86874 8.83301 1.54541C8.88805 1.52058 8.94308 1.49574 8.99811 1.47087C9.13501 1.40911 9.27213 1.34784 9.40937 1.28684C9.46531 1.26195 9.52122 1.237 9.5771 1.21198C9.66032 1.17474 9.74363 1.13773 9.82697 1.10077C9.85169 1.08966 9.87641 1.07856 9.90189 1.06712C10.6744 0.726483 11.3822 0.779051 12.1892 0.95535Z" fill="black"/>
<path d="M5.44916 3.74531C5.47925 3.74527 5.50934 3.74524 5.54034 3.74521C5.64146 3.74514 5.74259 3.74536 5.84371 3.74557C5.91608 3.74558 5.98845 3.74557 6.06081 3.74555C6.25757 3.74554 6.45432 3.74577 6.65107 3.74604C6.85658 3.74629 7.06209 3.74631 7.26761 3.74636C7.6569 3.74648 8.0462 3.7468 8.43549 3.74719C8.87863 3.74763 9.32178 3.74784 9.76492 3.74804C10.6766 3.74845 11.5883 3.74913 12.5 3.75C12.3946 3.93436 12.3424 3.97859 12.1425 4.03603C11.9347 4.0855 11.7254 4.1259 11.5153 4.16416C11.4291 4.17988 11.343 4.19593 11.2569 4.21207C11.0124 4.25785 10.7677 4.303 10.523 4.34801C10.3726 4.37569 10.2223 4.40374 10.072 4.43199C10.0152 4.44258 9.95844 4.45303 9.90163 4.46333C9.35102 4.56318 8.79596 4.68305 8.43203 5.14527C8.13188 5.60431 8.00077 6.05995 8.11129 6.61057C8.23382 7.01534 8.47193 7.38111 8.82815 7.61719C9.09871 7.75125 9.35453 7.85624 9.65808 7.85679C9.72032 7.85704 9.72032 7.85704 9.78382 7.85729C9.85182 7.85727 9.85182 7.85727 9.92119 7.85724C9.99306 7.85744 9.99306 7.85744 10.0664 7.85764C10.1978 7.85795 10.3292 7.85807 10.4606 7.8581C10.5429 7.85813 10.6253 7.85821 10.7076 7.85831C10.9954 7.85868 11.2833 7.85884 11.5711 7.8588C11.8383 7.85878 12.1054 7.85919 12.3726 7.85981C12.6027 7.86032 12.8328 7.86053 13.0629 7.86051C13.2 7.8605 13.337 7.8606 13.4741 7.86102C13.6276 7.86147 13.7811 7.86129 13.9346 7.86106C13.9791 7.86127 14.0236 7.86149 14.0695 7.86172C14.3851 7.86051 14.6888 7.82487 15 7.77344C15.0359 8.43028 15.0359 8.43028 14.8627 8.65067C14.8436 8.67056 14.8244 8.69045 14.8047 8.71094C14.7864 8.73043 14.7681 8.74992 14.7492 8.76999C14.5112 8.99329 14.2312 8.99592 13.9241 8.99482C13.8873 8.995 13.8505 8.99518 13.8125 8.99536C13.6896 8.99585 13.5667 8.99579 13.4437 8.99573C13.3554 8.99596 13.2671 8.99623 13.1788 8.99652C12.9392 8.99721 12.6996 8.9974 12.4599 8.99745C12.3102 8.9975 12.1604 8.99767 12.0106 8.99787C11.5149 8.99856 11.0191 8.99892 10.5234 8.99887C10.4834 8.99886 10.4834 8.99886 10.4425 8.99886C10.4158 8.99885 10.389 8.99885 10.3615 8.99885C9.92845 8.99881 9.4954 8.99956 9.06235 9.00066C8.61713 9.00179 8.17191 9.00231 7.72669 9.00226C7.47696 9.00224 7.22724 9.00246 6.97751 9.00329C6.74258 9.00404 6.50767 9.00405 6.27275 9.00348C6.18668 9.0034 6.10061 9.00358 6.01454 9.00406C5.89673 9.00466 5.77896 9.00429 5.66116 9.00369C5.62737 9.0041 5.59359 9.0045 5.55878 9.00491C5.28832 9.00188 5.0132 8.94492 4.80653 8.75977C4.58491 8.51795 4.5586 8.29522 4.55837 7.97765C4.55804 7.93939 4.55772 7.90113 4.55738 7.8617C4.55644 7.73529 4.5561 7.60888 4.55584 7.48246C4.55549 7.39434 4.55513 7.30622 4.55477 7.21811C4.55413 7.03334 4.55383 6.84857 4.55371 6.66379C4.5535 6.42767 4.55203 6.19158 4.55025 5.95546C4.54908 5.77339 4.5488 5.59132 4.54876 5.40925C4.5486 5.32224 4.54811 5.23523 4.5473 5.14822C4.54624 5.02613 4.54643 4.9041 4.54692 4.782C4.54634 4.74646 4.54576 4.71091 4.54517 4.67429C4.54814 4.41079 4.61797 4.20386 4.76565 3.98438C4.97423 3.78472 5.17019 3.74418 5.44916 3.74531Z" fill="black"/>
<path d="M5.4685 10.1864C5.49519 10.1864 5.52189 10.1864 5.5494 10.1864C5.63712 10.1865 5.72482 10.1871 5.81253 10.1877C5.87356 10.1878 5.93459 10.1879 5.99561 10.188C6.15584 10.1883 6.31606 10.1891 6.47628 10.1899C6.63993 10.1907 6.80359 10.1911 6.96724 10.1915C7.28806 10.1923 7.60887 10.1937 7.92969 10.1953C7.92992 10.2185 7.93015 10.2418 7.93038 10.2657C7.93288 10.5071 7.93618 10.7485 7.93994 10.99C7.94124 11.0801 7.94234 11.1702 7.94322 11.2604C7.94453 11.3898 7.94657 11.5193 7.94876 11.6487C7.94901 11.6891 7.94926 11.7295 7.94952 11.7712C7.95029 11.8087 7.95107 11.8462 7.95186 11.8849C7.9523 11.9179 7.95273 11.951 7.95318 11.985C7.97209 12.0886 8.00284 12.1246 8.08594 12.1875C8.24293 12.1838 8.35467 12.072 8.47412 11.98C8.51395 11.9495 8.55378 11.9191 8.59482 11.8877C8.69923 11.806 8.80301 11.7237 8.90625 11.6406C9.13848 11.7118 9.31189 11.8768 9.49677 12.0281C9.6516 12.1572 9.6516 12.1572 9.84375 12.1822C9.86953 12.171 9.89531 12.1599 9.92188 12.1484C9.95885 12.0375 9.9668 11.9647 9.96896 11.8494C9.96974 11.8127 9.97052 11.7759 9.97132 11.7381C9.97197 11.6985 9.97263 11.6589 9.9733 11.6182C9.97452 11.5573 9.97452 11.5573 9.97576 11.4952C9.97832 11.3655 9.98062 11.2357 9.98291 11.106C9.9846 11.018 9.9863 10.9301 9.98802 10.8422C9.99221 10.6266 9.99618 10.4109 10 10.1953C10.3511 10.1917 10.7022 10.1889 11.0534 10.1872C11.2164 10.1864 11.3795 10.1853 11.5426 10.1835C11.7001 10.1818 11.8576 10.1809 12.0152 10.1805C12.0751 10.1802 12.135 10.1796 12.1949 10.1788C12.7801 10.1709 12.7801 10.1709 13.0469 10.3516C13.2496 10.5498 13.3614 10.7837 13.3735 11.0665C13.3738 11.1275 13.3735 11.1885 13.3727 11.2495C13.3727 11.283 13.3727 11.3166 13.3727 11.3512C13.3727 11.4611 13.3717 11.571 13.3708 11.6809C13.3706 11.7575 13.3704 11.8342 13.3703 11.9108C13.3699 12.1117 13.3687 12.3125 13.3674 12.5134C13.3662 12.7187 13.3657 12.924 13.3651 13.1293C13.3638 13.5315 13.3618 13.9337 13.3594 14.3359C13.0521 14.3828 12.7448 14.4294 12.4375 14.4755C12.2947 14.4969 12.152 14.5184 12.0093 14.5402C11.8716 14.5613 11.7338 14.582 11.596 14.6025C11.5435 14.6104 11.491 14.6184 11.4385 14.6265C11.3649 14.6379 11.2912 14.6488 11.2175 14.6597C11.1756 14.666 11.1337 14.6723 11.0905 14.6788C10.9765 14.6875 10.8907 14.6803 10.7813 14.6484C10.7205 14.5859 10.7205 14.5859 10.6689 14.5068C10.2862 13.9674 9.72794 13.7746 9.11988 13.5785C9.06328 13.5599 9.00669 13.5413 8.95012 13.5227C8.83255 13.4841 8.7149 13.4458 8.59717 13.4077C8.44784 13.3594 8.29873 13.3104 8.14968 13.2613C8.03318 13.2229 7.91659 13.1849 7.79998 13.1469C7.74502 13.1289 7.69008 13.111 7.63518 13.0929C7.16634 12.9389 6.68968 12.7884 6.19141 12.7979C6.1443 12.7984 6.1443 12.7984 6.09623 12.799C5.6435 12.8103 5.23102 12.9362 4.80789 13.0864C4.6875 13.125 4.6875 13.125 4.57032 13.125C4.56668 12.8299 4.56391 12.5348 4.56222 12.2397C4.56141 12.1026 4.56031 11.9656 4.55853 11.8286C4.55649 11.6707 4.55574 11.5129 4.55506 11.355C4.55425 11.3062 4.55344 11.2574 4.55261 11.2071C4.55253 10.8922 4.58304 10.6741 4.79477 10.4288C4.81658 10.4113 4.83838 10.3939 4.86084 10.376C4.88254 10.3579 4.90425 10.3399 4.92661 10.3213C5.105 10.2049 5.25729 10.1857 5.4685 10.1864Z" fill="black"/>
<path d="M1.87016 13.4985C1.90094 13.4989 1.93172 13.4992 1.96343 13.4995C2.24026 13.5075 2.47676 13.5473 2.68986 13.7363C2.91987 13.9871 2.94139 14.2155 2.94108 14.5451C2.94134 14.5858 2.94161 14.6265 2.94188 14.6684C2.94262 14.8028 2.94277 14.9372 2.94285 15.0716C2.94311 15.1651 2.94337 15.2587 2.94364 15.3522C2.94411 15.5484 2.94426 15.7445 2.94421 15.9406C2.9442 16.1916 2.94527 16.4426 2.94661 16.6937C2.94748 16.8869 2.94764 17.0802 2.9476 17.2734C2.94769 17.366 2.94804 17.4585 2.94864 17.551C2.94941 17.6806 2.94918 17.8101 2.94871 17.9397C2.94915 17.9777 2.94959 18.0158 2.95004 18.0549C2.94727 18.3561 2.87833 18.5646 2.66606 18.7817C2.41168 18.953 2.18059 19.0056 1.87993 19.0015C1.84915 19.0011 1.81837 19.0008 1.78666 19.0005C1.50983 18.9925 1.27333 18.9527 1.06023 18.7637C0.83022 18.5129 0.808704 18.2845 0.809009 17.9549C0.808746 17.9142 0.808484 17.8735 0.808213 17.8316C0.807472 17.6972 0.807319 17.5628 0.807235 17.4284C0.806984 17.3349 0.806721 17.2413 0.806447 17.1478C0.805979 16.9516 0.805834 16.7555 0.805881 16.5594C0.805888 16.3083 0.804822 16.0573 0.803476 15.8063C0.802607 15.6131 0.802449 15.4198 0.802491 15.2266C0.802399 15.134 0.802054 15.0415 0.801449 14.949C0.800681 14.8194 0.800909 14.6899 0.801379 14.5603C0.80094 14.5222 0.800501 14.4842 0.800049 14.4451C0.802818 14.1439 0.871762 13.9354 1.08403 13.7183C1.33841 13.547 1.5695 13.4944 1.87016 13.4985Z" fill="black"/>
<path d="M18.1177 1.24023C18.1599 1.23943 18.2021 1.23862 18.2456 1.23779C18.5305 1.23639 18.7067 1.26602 18.9307 1.45264C19.1539 1.71691 19.2028 1.94826 19.1999 2.2892C19.2002 2.32951 19.2005 2.36982 19.2008 2.41135C19.2014 2.54386 19.201 2.67633 19.2005 2.80884C19.2006 2.90135 19.2007 2.99387 19.2009 3.08638C19.2011 3.27998 19.2008 3.47357 19.2001 3.66716C19.1992 3.91489 19.1997 4.16259 19.2006 4.41032C19.2012 4.60127 19.201 4.79222 19.2006 4.98316C19.2005 5.07449 19.2006 5.16581 19.201 5.25714C19.2014 5.38494 19.2008 5.51269 19.1999 5.64049C19.2002 5.67796 19.2006 5.71543 19.2009 5.75403C19.1975 6.02805 19.1362 6.23652 18.9553 6.44623C18.9334 6.46365 18.9116 6.48107 18.8892 6.49902C18.8566 6.52606 18.8566 6.52606 18.8234 6.55365C18.6013 6.69863 18.3889 6.694 18.1323 6.69434C18.0949 6.69529 18.0574 6.69625 18.0187 6.69724C17.7313 6.69841 17.5235 6.64484 17.3038 6.45523C17.2864 6.43343 17.2689 6.41162 17.251 6.38916C17.233 6.36746 17.2149 6.34576 17.1964 6.32339C17.0549 6.1067 17.0585 5.90618 17.0584 5.65503C17.058 5.61486 17.0577 5.5747 17.0574 5.53331C17.0564 5.40055 17.0561 5.2678 17.0558 5.13504C17.0555 5.04255 17.0551 4.95005 17.0548 4.85756C17.0541 4.66359 17.0538 4.46962 17.0537 4.27566C17.0535 4.02771 17.052 3.77979 17.0502 3.53185C17.0491 3.34073 17.0488 3.14962 17.0488 2.9585C17.0486 2.86713 17.0481 2.77576 17.0473 2.68439C17.0462 2.55622 17.0464 2.4281 17.0469 2.29993C17.0463 2.26256 17.0458 2.22519 17.0452 2.18668C17.0481 1.918 17.114 1.70804 17.2656 1.48438C17.5254 1.23599 17.7788 1.24183 18.1177 1.24023Z" fill="black"/>
</g>
<defs>
<clipPath id="clip0_240_3557">
<rect width="20" height="20" fill="white"/>
</clipPath>
</defs>
</svg>
