<svg width="20" height="21" viewBox="0 0 20 21" fill="none" xmlns="http://www.w3.org/2000/svg">
<g clip-path="url(#clip0_1_442)">
<path d="M9.01534 0.387372C9.09485 0.387512 9.17436 0.387565 9.25387 0.387535C9.41999 0.387717 9.58607 0.388684 9.75218 0.390261C9.96484 0.392256 10.1775 0.392701 10.3901 0.392612C10.5541 0.392644 10.7181 0.393287 10.882 0.394135C10.9605 0.394507 11.0389 0.394739 11.1173 0.394826C11.2269 0.395081 11.3364 0.396108 11.4459 0.397357C11.4782 0.397304 11.5104 0.397251 11.5435 0.397196C11.7659 0.400895 11.9321 0.442136 12.1027 0.595959C12.2902 0.823751 12.3634 0.991978 12.3558 1.291C12.3235 1.55905 12.1836 1.72716 11.9798 1.89372C11.8463 1.98325 11.7275 1.98148 11.5718 1.98069C11.5128 1.98055 11.5128 1.98055 11.4525 1.9804C11.3777 1.97987 11.3777 1.97987 11.3013 1.97932C11.0632 1.97811 11.0632 1.97811 10.8203 1.97688C10.8203 2.4925 10.8203 3.00813 10.8203 3.53938C11.091 3.55872 11.091 3.55872 11.3672 3.57844C11.4952 3.59766 11.6193 3.61798 11.7456 3.64436C11.7783 3.65109 11.8111 3.65782 11.8448 3.66475C13.034 3.92005 14.2229 4.45108 15.1704 5.21785C15.2566 5.28419 15.3325 5.3291 15.4297 5.37532C15.4627 5.34105 15.4627 5.34105 15.4964 5.30608C15.5975 5.20179 15.6991 5.09812 15.8008 4.99446C15.8354 4.95851 15.8701 4.92255 15.9058 4.88551C16.1314 4.65658 16.3199 4.4747 16.6455 4.41569C16.9164 4.41606 17.0987 4.45107 17.3047 4.63313C17.4735 4.81524 17.5505 4.96007 17.5537 5.2093C17.5548 5.24777 17.5559 5.28624 17.5571 5.32588C17.5037 5.70375 17.2452 5.9229 16.9824 6.1761C16.9276 6.22988 16.9276 6.22988 16.8716 6.28474C16.782 6.37259 16.6919 6.46005 16.6016 6.54719C16.6787 6.6779 16.7602 6.80191 16.8501 6.92429C17.7115 8.09806 18.2363 9.44266 18.4375 10.8831C18.4415 10.9097 18.4456 10.9362 18.4497 10.9636C18.6467 12.4292 18.3896 13.9861 17.8125 15.3363C17.8001 15.3654 17.7877 15.3946 17.775 15.4247C17.5041 16.0533 17.1475 16.6388 16.7187 17.1722C16.6736 17.2293 16.6736 17.2293 16.6275 17.2875C15.9621 18.1113 15.1739 18.7922 14.2578 19.3206C14.2299 19.3368 14.2021 19.3529 14.1734 19.3696C13.3811 19.8227 12.5317 20.1096 11.6406 20.2972C11.6093 20.3041 11.5779 20.3111 11.5456 20.3183C10.5632 20.5282 9.37835 20.5098 8.39843 20.2972C8.36552 20.2905 8.33261 20.2838 8.2987 20.2769C6.82161 19.9728 5.45597 19.293 4.346 18.2687C4.26699 18.1962 4.18613 18.1273 4.104 18.0584C3.08979 17.1707 2.38198 15.8936 1.95312 14.6331C1.94336 14.6046 1.93361 14.576 1.92355 14.5466C1.69426 13.8601 1.56011 13.1233 1.55318 12.3992C1.5528 12.366 1.55242 12.3327 1.55203 12.2984C1.54534 11.5654 1.54994 10.8583 1.71874 10.1409C1.72711 10.1046 1.73549 10.0682 1.74411 10.0308C2.09983 8.52711 2.84645 7.06455 3.98437 6.00032C4.0174 5.96729 4.05043 5.93425 4.08447 5.90022C4.11589 5.8688 4.14731 5.83738 4.17968 5.805C4.1973 5.78602 4.21493 5.76704 4.23309 5.74748C5.27694 4.64909 6.83761 3.94239 8.30077 3.64192C8.33013 3.63584 8.35948 3.62976 8.38972 3.62349C8.66808 3.5708 8.93076 3.55995 9.21874 3.53938C9.21874 3.02376 9.21874 2.50813 9.21874 1.97688C8.9079 1.9815 8.9079 1.9815 8.59708 1.98744C8.30632 1.98962 8.12857 1.9636 7.90283 1.76936C7.71072 1.54611 7.67285 1.36728 7.68218 1.07722C7.70907 0.839625 7.79755 0.676894 7.98283 0.524405C8.28567 0.33089 8.66988 0.383362 9.01534 0.387372ZM5.78124 6.54719C5.7589 6.56512 5.73657 6.58306 5.71355 6.60153C4.85972 7.2919 4.21174 8.13074 3.74999 9.12532C3.72915 9.16892 3.7083 9.21253 3.68682 9.25746C2.97806 10.8109 2.94738 12.6821 3.52783 14.2791C3.65662 14.6174 3.81312 14.9396 3.98437 15.2581C4.00285 15.2934 4.00285 15.2934 4.02171 15.3293C4.31842 15.8931 4.71924 16.3614 5.15624 16.8206C5.18172 16.8482 5.2072 16.8757 5.23345 16.9041C6.41702 18.1456 8.21238 18.8059 9.90127 18.8519C11.8173 18.8711 13.5599 18.11 14.9219 16.7816C15.9735 15.7329 16.607 14.3744 16.8359 12.9144C16.8434 12.8681 16.8508 12.8217 16.8585 12.774C17.0667 10.9985 16.5612 9.19661 15.4778 7.7798C15.3774 7.65308 15.2695 7.53373 15.1593 7.41557C15.0847 7.33556 15.0142 7.25343 14.9438 7.16975C13.9503 6.03821 12.4364 5.37596 10.9766 5.14094C10.9303 5.13339 10.884 5.12584 10.8363 5.11805C9.05057 4.90906 7.18181 5.41447 5.78124 6.54719Z" fill="#7F7F7F"/>
<path d="M13.4129 8.14555C13.6181 8.26539 13.7909 8.42769 13.8672 8.65657C13.8739 8.73043 13.8776 8.80459 13.8794 8.87874C13.8816 8.93697 13.8816 8.93697 13.8838 8.99638C13.8411 9.32771 13.6338 9.53741 13.4058 9.76189C13.3753 9.7926 13.3447 9.82332 13.3132 9.85497C13.2127 9.95582 13.1115 10.0561 13.0104 10.1564C12.9401 10.2265 12.8699 10.2967 12.7997 10.367C12.6527 10.5138 12.5055 10.6604 12.358 10.8068C12.1879 10.9757 12.0181 11.1451 11.8485 11.3147C11.685 11.4783 11.5212 11.6417 11.3572 11.805C11.2877 11.8743 11.2182 11.9437 11.1487 12.0131C11.0517 12.1099 10.9544 12.2065 10.857 12.3031C10.8284 12.3318 10.7997 12.3604 10.7702 12.39C10.5354 12.6219 10.3462 12.7602 10.0098 12.7703C9.80592 12.767 9.65465 12.7275 9.49219 12.6019C9.31138 12.4061 9.21378 12.2395 9.20654 11.9696C9.20508 11.9344 9.20362 11.8992 9.20212 11.8629C9.24705 11.5376 9.45458 11.3277 9.67823 11.1066C9.70861 11.0759 9.73899 11.0452 9.7703 11.0137C9.87028 10.913 9.97082 10.8129 10.0714 10.7128C10.1414 10.6427 10.2114 10.5726 10.2813 10.5025C10.4278 10.3558 10.5745 10.2094 10.7215 10.0632C10.8908 9.89466 11.0596 9.72558 11.2282 9.5562C11.3909 9.39261 11.5542 9.22948 11.7176 9.06652C11.7868 8.99742 11.8559 8.92821 11.9248 8.85888C12.0214 8.76193 12.1184 8.66549 12.2156 8.56917C12.2438 8.54064 12.272 8.51211 12.3011 8.48271C12.6078 8.18104 12.9777 7.97704 13.4129 8.14555Z" fill="#7F7F7F"/>
</g>
<defs>
<clipPath id="clip0_1_442">
<rect width="20" height="20" fill="white" transform="translate(0 0.414429)"/>
</clipPath>
</defs>
</svg>
