<svg width="15" height="16" viewBox="0 0 15 16" fill="none" xmlns="http://www.w3.org/2000/svg">
<path d="M9.375 9.25L7.5 11.125L5.625 9.25" stroke="white" stroke-linecap="round" stroke-linejoin="round"/>
<path d="M7.5 11.125V2.375" stroke="white" stroke-linecap="round" stroke-linejoin="round"/>
<path d="M9.92651 6.23529H11.8015C11.9673 6.23529 12.1262 6.30114 12.2435 6.41835C12.3607 6.53556 12.4265 6.69453 12.4265 6.86029V12.4853C12.4265 12.6511 12.3607 12.81 12.2435 12.9272C12.1262 13.0444 11.9673 13.1103 11.8015 13.1103H3.05151C2.88575 13.1103 2.72678 13.0444 2.60957 12.9272C2.49236 12.81 2.42651 12.6511 2.42651 12.4853V6.86029C2.42651 6.69453 2.49236 6.53556 2.60957 6.41835C2.72678 6.30114 2.88575 6.23529 3.05151 6.23529H4.92651" stroke="white" stroke-linecap="round" stroke-linejoin="round"/>
</svg>
