<svg width="20" height="20" viewBox="0 0 20 20" fill="none" xmlns="http://www.w3.org/2000/svg">
<path d="M3.16855 2.49482C3.21786 2.49464 3.26716 2.49447 3.31796 2.49429C3.37278 2.49429 3.4276 2.4943 3.48242 2.49431C3.54058 2.49418 3.59873 2.49404 3.65689 2.49388C3.81693 2.49349 3.97697 2.49334 4.13702 2.49324C4.30954 2.49308 4.48207 2.49271 4.6546 2.49237C5.07138 2.4916 5.48816 2.4912 5.90494 2.49086C6.10122 2.49068 6.29751 2.49047 6.49379 2.49027C7.14632 2.48961 7.79885 2.48904 8.45138 2.48876C8.62072 2.48868 8.79006 2.48861 8.9594 2.48853C9.02253 2.4885 9.02253 2.4885 9.08694 2.48847C9.76866 2.48815 10.4504 2.48716 11.1321 2.48589C11.832 2.4846 12.532 2.4839 13.2319 2.48377C13.6249 2.48369 14.0179 2.48334 14.4109 2.48235C14.7456 2.4815 15.0803 2.48118 15.415 2.48156C15.5857 2.48174 15.7564 2.48167 15.9271 2.48091C16.0835 2.48022 16.24 2.48026 16.3964 2.48087C16.4528 2.48096 16.5093 2.48079 16.5657 2.48033C17.1096 2.47612 17.5423 2.60225 17.9446 2.97751C18.3606 3.41059 18.4577 3.84231 18.448 4.42023C18.4217 5.09114 17.9648 5.52424 17.5267 5.98074C17.4054 6.10764 17.2893 6.23835 17.1743 6.371C17.0784 6.48085 16.9793 6.58765 16.8799 6.6944C16.711 6.87656 16.5438 7.0601 16.378 7.24509C16.2774 7.35673 16.1759 7.46753 16.0742 7.57819C15.9432 7.72074 15.8129 7.8638 15.6836 8.00787C15.5361 8.1722 15.3871 8.33509 15.2377 8.49768C15.1252 8.62024 15.0135 8.74343 14.9023 8.86725C14.7548 9.03161 14.6058 9.19453 14.4564 9.35714C14.3447 9.47882 14.2338 9.60117 14.1235 9.72418C13.9674 9.89819 13.809 10.07 13.6502 10.2415C13.5033 10.4003 13.3583 10.5606 13.214 10.7216C13.1134 10.8333 13.0118 10.9441 12.9102 11.0547C12.773 11.2041 12.6361 11.3537 12.5 11.504C12.4726 11.5342 12.4452 11.5644 12.417 11.5955C12.3928 11.6233 12.3687 11.6511 12.3438 11.6797C12.3232 11.7 12.3027 11.7202 12.2815 11.741C12.1973 11.8866 12.2107 12.0253 12.2122 12.1907C12.212 12.2265 12.2119 12.2624 12.2117 12.2993C12.2115 12.3771 12.2115 12.4548 12.2117 12.5326C12.2121 12.6558 12.2117 12.7789 12.2111 12.902C12.2095 13.2521 12.2095 13.6022 12.2095 13.9524C12.2095 14.1666 12.2088 14.3807 12.2076 14.595C12.2072 14.7162 12.2077 14.8374 12.2082 14.9586C12.2078 15.0331 12.2074 15.1076 12.207 15.1822C12.2073 15.2158 12.2077 15.2494 12.2081 15.284C12.2056 15.4949 12.1705 15.6135 12.0312 15.7813C11.9559 15.8529 11.8821 15.9188 11.8018 15.9839C11.7796 16.0023 11.7574 16.0207 11.7345 16.0397C11.5551 16.1874 11.3726 16.3312 11.1892 16.474C11.0123 16.6119 10.8378 16.7527 10.6641 16.8946C10.4484 17.0706 10.231 17.2441 10.0115 17.4153C9.83394 17.5542 9.6593 17.6965 9.48486 17.8394C8.69712 18.4835 8.69712 18.4835 8.20313 18.4376C8.0087 18.3473 7.9179 18.2309 7.8125 18.0469C7.79343 17.922 7.79343 17.922 7.79407 17.7851C7.79397 17.7597 7.79387 17.7344 7.79377 17.7083C7.79361 17.6239 7.79457 17.5395 7.79552 17.4551C7.79562 17.3944 7.79566 17.3337 7.79562 17.273C7.79569 17.1425 7.79622 17.012 7.7971 16.8815C7.79846 16.6749 7.7985 16.4684 7.79832 16.2619C7.79803 15.7118 7.79933 15.1616 7.80169 14.6115C7.80325 14.2499 7.80403 13.8884 7.80332 13.5268C7.80298 13.3217 7.80388 13.1166 7.8057 12.9114C7.80656 12.7836 7.80627 12.6558 7.80566 12.5279C7.80561 12.4688 7.80603 12.4097 7.80695 12.3507C7.81679 11.9735 7.81679 11.9735 7.64202 11.6501C7.59559 11.6069 7.54829 11.5646 7.5 11.5235C7.46051 11.4814 7.42145 11.4388 7.38312 11.3956C7.34562 11.3552 7.30808 11.3148 7.27051 11.2745C7.10162 11.0923 6.93445 10.9088 6.76865 10.7238C6.66804 10.6121 6.56653 10.5013 6.46484 10.3907C6.33464 10.249 6.2051 10.1067 6.07666 9.96344C5.94045 9.81163 5.80261 9.66145 5.66406 9.51178C5.49689 9.33117 5.33135 9.14924 5.16708 8.96597C5.06648 8.85433 4.96497 8.74353 4.86328 8.63287C4.70345 8.45891 4.54499 8.28379 4.38721 8.10797C4.28609 7.99592 4.18415 7.88464 4.08203 7.7735C3.9222 7.59954 3.76374 7.42441 3.60596 7.2486C3.50484 7.13655 3.4029 7.02527 3.30078 6.91412C3.14095 6.74016 2.98249 6.56504 2.82471 6.38922C2.74181 6.29736 2.65843 6.20599 2.57473 6.11486C2.53799 6.07485 2.50129 6.0348 2.46464 5.99471C2.38 5.90216 2.29497 5.81009 2.20886 5.7189C1.73146 5.20659 1.52393 4.74866 1.54648 4.05112C1.57785 3.56221 1.83249 3.19039 2.17774 2.86139C2.4624 2.62232 2.79992 2.49542 3.16855 2.49482Z" fill="#DF2429"/>
</svg>
