<svg width="20" height="20" viewBox="0 0 20 20" fill="none" xmlns="http://www.w3.org/2000/svg">
<g clip-path="url(#clip0_1_220)">
<path d="M2.15233 3.31089C2.17933 3.31083 2.20633 3.31076 2.23415 3.31069C2.32411 3.31056 2.41407 3.31099 2.50403 3.31142C2.56872 3.31144 2.63341 3.31143 2.6981 3.31139C2.87338 3.31136 3.04866 3.31182 3.22393 3.31237C3.40724 3.31286 3.59054 3.3129 3.77384 3.31299C4.1208 3.31324 4.46776 3.31388 4.81471 3.31466C5.20978 3.31554 5.60484 3.31597 5.9999 3.31636C6.81244 3.31717 7.62497 3.31855 8.43751 3.32029C8.43404 3.3466 8.43056 3.37292 8.42698 3.40003C8.41108 3.52139 8.39545 3.64278 8.37983 3.76417C8.37437 3.80555 8.3689 3.84693 8.36327 3.88956C8.17016 5.40104 8.56162 6.93732 9.48731 8.15183C10.2048 9.06635 11.08 9.66752 12.1484 10.1172C12.0358 10.3257 11.9069 10.5076 11.7603 10.6933C11.5664 10.943 11.3805 11.1971 11.2012 11.4575C11.1793 11.489 11.1574 11.5205 11.1348 11.5529C11.1146 11.5825 11.0944 11.6121 11.0736 11.6426C11.0558 11.6686 11.0379 11.6947 11.0196 11.7215C10.9107 11.9123 10.9242 12.134 10.9155 12.3477C10.9139 12.3874 10.9122 12.4271 10.9105 12.468C10.8944 12.8933 10.8951 13.3182 10.8979 13.7436C10.8988 13.8853 10.8993 14.0269 10.8998 14.1685C10.9011 14.5704 10.9027 14.9724 10.9051 15.3743C10.9066 15.622 10.9075 15.8697 10.908 16.1175C10.9084 16.2111 10.9089 16.3047 10.9096 16.3983C10.9107 16.529 10.911 16.6597 10.9111 16.7904C10.9116 16.8284 10.9121 16.8663 10.9126 16.9054C10.9112 17.3712 10.7956 17.7133 10.4688 18.0469C10.1118 18.382 9.71225 18.665 9.31668 18.9521C9.18533 19.0478 9.05462 19.1442 8.92393 19.2408C8.83048 19.3098 8.73693 19.3786 8.64335 19.4475C8.54293 19.5213 8.4427 19.5954 8.34275 19.6699C8.30554 19.6975 8.26833 19.725 8.22999 19.7534C8.19953 19.7761 8.16906 19.7988 8.13767 19.8222C7.84748 20.0158 7.6089 20.0342 7.26564 20C7.00543 19.9338 6.82889 19.7478 6.6797 19.5312C6.59863 19.3673 6.59155 19.2302 6.59096 19.0484C6.59076 19.0198 6.59056 18.9912 6.59036 18.9618C6.58978 18.8662 6.58976 18.7707 6.58974 18.6751C6.58944 18.6065 6.5891 18.5379 6.58874 18.4693C6.58802 18.3216 6.58755 18.1739 6.58727 18.0262C6.58682 17.7924 6.58583 17.5587 6.58476 17.3249C6.58313 16.9548 6.58187 16.5847 6.58076 16.2145C6.57877 15.5526 6.57633 14.8907 6.57352 14.2288C6.57255 13.9967 6.57179 13.7646 6.5712 13.5324C6.5708 13.3876 6.57024 13.2427 6.56966 13.0978C6.56942 13.031 6.56924 12.9641 6.56914 12.8973C6.56808 12.2535 6.5552 11.8272 6.15968 11.3012C6.11024 11.2348 6.0608 11.1684 6.01136 11.102C5.98611 11.0682 5.96086 11.0344 5.93484 10.9995C5.81712 10.8418 5.70028 10.6834 5.58351 10.5249C5.56094 10.4943 5.53837 10.4637 5.51512 10.4322C5.35994 10.2215 5.20648 10.0097 5.05372 9.79734C4.89494 9.57659 4.73412 9.35765 4.57032 9.1406C4.38461 8.89451 4.20323 8.64556 4.02321 8.39528C3.80136 8.08709 3.57592 7.78159 3.35025 7.47619C3.23596 7.32146 3.1219 7.16657 3.00782 7.0117C2.96225 6.94985 2.91668 6.888 2.8711 6.82615C2.77996 6.70245 2.68881 6.57875 2.59767 6.45505C2.57509 6.42442 2.55252 6.39379 2.52926 6.36222C2.48384 6.30057 2.43842 6.23891 2.39302 6.17725C2.27688 6.01954 2.16056 5.86197 2.04392 5.70463C1.92935 5.54997 1.81524 5.39499 1.70163 5.23962C1.6627 5.18639 1.62367 5.13323 1.58452 5.08016C1.15089 4.49038 1.15089 4.49038 1.17433 4.11863C1.22185 3.8315 1.34293 3.63338 1.56343 3.44633C1.75158 3.32957 1.93467 3.31057 2.15233 3.31089Z" fill="#DF2429"/>
<path d="M14.0723 -0.017033C14.0985 -0.0169142 14.1247 -0.0167954 14.1517 -0.016673C14.5931 -0.0137304 15.0074 0.0249334 15.4297 0.156307C15.4563 0.16447 15.4828 0.172634 15.5102 0.181045C16.6898 0.556998 17.7004 1.3538 18.2874 2.44891C18.5416 2.94183 18.7265 3.47114 18.7891 4.02349C18.7938 4.05491 18.7985 4.08634 18.8034 4.11871C18.9556 5.30665 18.5883 6.56997 17.8626 7.51574C17.061 8.51446 15.9649 9.17684 14.6875 9.33599C13.3643 9.42888 12.1061 9.12032 11.0793 8.25865C10.1963 7.48986 9.62977 6.47128 9.45314 5.31256C9.44805 5.28255 9.44297 5.25253 9.43773 5.22161C9.29198 4.20336 9.54746 3.19235 10.0391 2.30474C10.0599 2.26708 10.0807 2.22941 10.1021 2.19061C10.7072 1.17551 11.75 0.412016 12.8906 0.117244C13.2885 0.0209045 13.6616 -0.0202944 14.0723 -0.017033ZM12.522 3.23248C12.4485 3.38542 12.4078 3.50198 12.4219 3.67193C12.5368 3.93899 12.7563 4.13756 12.9614 4.33599C12.9922 4.36626 13.023 4.39652 13.0547 4.4277C13.13 4.50157 13.2055 4.57516 13.2813 4.64849C13.1623 4.79195 13.0433 4.92861 12.9071 5.0559C12.8836 5.07811 12.86 5.10032 12.8357 5.1232C12.7875 5.16822 12.7389 5.21278 12.6898 5.25686C12.5158 5.42305 12.4332 5.57645 12.4219 5.82037C12.4801 6.02597 12.5723 6.15131 12.7344 6.28912C12.8803 6.33775 13.0125 6.34796 13.1641 6.32818C13.2602 6.28013 13.3187 6.24063 13.3985 6.17193C13.4287 6.1463 13.459 6.12067 13.4902 6.09426C13.6984 5.9124 13.8869 5.72132 14.0625 5.50787C14.1829 5.56121 14.2621 5.62111 14.3526 5.7163C14.3773 5.74178 14.402 5.76726 14.4274 5.79351C14.4784 5.84684 14.5292 5.90024 14.58 5.95373C14.7518 6.1306 14.9177 6.28983 15.165 6.34893C15.3641 6.34555 15.4753 6.3012 15.625 6.17193C15.7683 6.00976 15.799 5.88636 15.802 5.67755C15.7384 5.39677 15.4803 5.19779 15.2832 5.00494C15.2522 4.97432 15.2213 4.94371 15.1894 4.91217C15.1134 4.83712 15.0373 4.76225 14.961 4.68756C15.1297 4.48477 15.3083 4.29829 15.4986 4.11581C15.6812 3.93717 15.8099 3.77741 15.8203 3.51568C15.7454 3.2783 15.6325 3.12104 15.4175 2.99322C15.2683 2.95853 15.1441 2.9592 15 3.00787C14.8806 3.0835 14.7867 3.18117 14.6875 3.28131C14.6404 3.32792 14.5933 3.37451 14.5462 3.42108C14.4102 3.55598 14.2752 3.69188 14.1406 3.82818C13.9288 3.65273 13.7362 3.46484 13.5471 3.26536C13.3966 3.11082 13.2512 2.99205 13.0322 2.95172C12.8216 2.98682 12.6634 3.07297 12.522 3.23248Z" fill="#DF2429"/>
</g>
<defs>
<clipPath id="clip0_1_220">
<rect width="20" height="20" fill="white"/>
</clipPath>
</defs>
</svg>
