<svg width="27" height="27" viewBox="0 0 27 27" fill="none" xmlns="http://www.w3.org/2000/svg">
<g clip-path="url(#clip0_82_5092)">
<path d="M2.59496 4.62007C2.69284 4.61985 2.79073 4.61956 2.88862 4.61921C3.15677 4.61845 3.42492 4.61867 3.69307 4.61906C3.9826 4.61931 4.27212 4.61865 4.56164 4.61811C5.12852 4.6172 5.6954 4.61716 6.26228 4.61743C6.72308 4.61765 7.18388 4.61757 7.64469 4.61729C7.7103 4.61725 7.7759 4.61721 7.8435 4.61717C7.97678 4.61709 8.11006 4.61701 8.24335 4.61693C9.13811 4.61641 10.0329 4.61619 10.9276 4.61659C10.9801 4.61661 10.9801 4.61661 11.0336 4.61664C11.3176 4.61677 11.6015 4.6169 11.8855 4.61704C12.9929 4.61758 14.1004 4.61713 15.2078 4.61591C16.4529 4.61453 17.6979 4.61386 18.943 4.61423C19.6019 4.61442 20.2609 4.6143 20.9198 4.61337C21.4807 4.6126 22.0417 4.61256 22.6026 4.61348C22.8887 4.61393 23.1748 4.61405 23.4609 4.61324C23.723 4.61251 23.9851 4.61276 24.2472 4.61378C24.3418 4.61398 24.4364 4.61382 24.531 4.61327C25.239 4.60944 25.8474 4.66736 26.4063 5.14973C26.8898 5.65078 27.0162 6.14314 27.0142 6.81558C27.0145 6.87492 27.0147 6.93426 27.015 6.9954C27.0156 7.19404 27.0155 7.39268 27.0155 7.59132C27.0157 7.73383 27.0161 7.87633 27.0165 8.01884C27.0174 8.36566 27.0177 8.71248 27.0178 9.0593C27.0178 9.34134 27.018 9.62337 27.0184 9.90541C27.0193 10.7057 27.0198 11.506 27.0197 12.3063C27.0197 12.371 27.0197 12.371 27.0197 12.437C27.0197 12.4801 27.0197 12.5233 27.0197 12.5678C27.0196 13.2671 27.0206 13.9664 27.0221 14.6658C27.0236 15.3845 27.0244 16.1032 27.0243 16.822C27.0242 17.2252 27.0245 17.6285 27.0257 18.0317C27.0266 18.3751 27.0268 18.7185 27.0261 19.0618C27.0258 19.2369 27.0259 19.4118 27.0267 19.5869C27.0275 19.7771 27.027 19.9672 27.0262 20.1574C27.0268 20.2121 27.0273 20.2668 27.0279 20.3231C27.0226 20.8838 26.8514 21.3413 26.487 21.7672C25.8937 22.3493 25.1926 22.3826 24.4113 22.3797C24.3134 22.3799 24.2155 22.3802 24.1177 22.3806C23.8493 22.3813 23.5809 22.3811 23.3125 22.3807C23.0229 22.3805 22.7332 22.3811 22.4435 22.3817C21.8763 22.3826 21.309 22.3826 20.7418 22.3823C20.2807 22.3821 19.8196 22.3822 19.3585 22.3825C19.2929 22.3825 19.2273 22.3826 19.1597 22.3826C19.0263 22.3827 18.893 22.3828 18.7597 22.3828C17.8645 22.3834 16.9694 22.3836 16.0742 22.3832C16.0218 22.3832 16.0218 22.3832 15.9682 22.3831C15.6841 22.383 15.3999 22.3829 15.1158 22.3827C14.0077 22.3822 12.8995 22.3826 11.7913 22.3839C10.5457 22.3852 9.30008 22.3859 8.05445 22.3855C7.39514 22.3854 6.73583 22.3855 6.07651 22.3864C5.51525 22.3872 4.95399 22.3872 4.39272 22.3863C4.10642 22.3858 3.82012 22.3857 3.53382 22.3865C3.27156 22.3873 3.00933 22.387 2.74708 22.386C2.65237 22.3858 2.55766 22.386 2.46295 22.3865C1.81852 22.39 1.26945 22.342 0.738415 21.9374C0.673156 21.8933 0.673156 21.8933 0.606579 21.8484C0.262737 21.5303 0.0351747 21.1068 -0.0145992 20.6387C-0.0203028 20.4827 -0.0212119 20.3275 -0.0203104 20.1715C-0.0205944 20.1121 -0.0208784 20.0526 -0.021171 19.9914C-0.021923 19.7931 -0.0215497 19.5948 -0.0211738 19.3965C-0.0213881 19.254 -0.0218367 19.1114 -0.0222706 18.9689C-0.0231755 18.6225 -0.0232216 18.276 -0.0229449 17.9296C-0.0227314 17.6478 -0.0228084 17.3661 -0.02309 17.0844C-0.0231294 17.0442 -0.0231688 17.004 -0.0232094 16.9627C-0.0232902 16.8811 -0.0233714 16.7994 -0.0234529 16.7178C-0.0241761 15.9533 -0.0238903 15.1888 -0.0232849 14.4242C-0.0227612 13.7256 -0.0234433 13.0269 -0.0247051 12.3283C-0.0259925 11.61 -0.0264977 10.8918 -0.0261473 10.1735C-0.0259634 9.77062 -0.0260791 9.36773 -0.0270042 8.96484C-0.0277821 8.62185 -0.0278124 8.27887 -0.0268952 7.93588C-0.0264475 7.76107 -0.0264455 7.58629 -0.0271404 7.41148C-0.0278377 7.22152 -0.0272274 7.03161 -0.0262971 6.84166C-0.0268037 6.78704 -0.0273102 6.73242 -0.027832 6.67615C-0.0215553 6.05082 0.194467 5.55905 0.632946 5.11512C1.21443 4.61851 1.86676 4.6174 2.59496 4.62007Z" fill="#FE4B55"/>
<path d="M2.04903 4.62709C2.10948 4.62682 2.10948 4.62682 2.17116 4.62653C2.30604 4.62604 2.44091 4.6263 2.5758 4.62656C2.67355 4.62636 2.7713 4.62612 2.86905 4.62583C3.13756 4.62519 3.40607 4.6252 3.67458 4.62533C3.96421 4.62535 4.25385 4.62477 4.54348 4.62427C5.11091 4.62339 5.67833 4.6231 6.24576 4.62304C6.70702 4.62299 7.16828 4.62277 7.62955 4.62244C8.72453 4.62166 9.81952 4.62101 10.9145 4.62107C10.9495 4.62107 10.9845 4.62107 11.0206 4.62107C11.198 4.62108 11.3755 4.62109 11.5529 4.6211C11.5882 4.62111 11.6234 4.62111 11.6597 4.62111C11.731 4.62111 11.8023 4.62112 11.8735 4.62112C12.982 4.62119 14.0905 4.6204 15.199 4.61895C16.4448 4.61733 17.6906 4.61643 18.9364 4.61652C19.5959 4.61656 20.2554 4.61627 20.9148 4.61513C21.4763 4.61417 22.0378 4.61394 22.5994 4.61466C22.8858 4.615 23.1722 4.61501 23.4586 4.6141C23.721 4.61327 23.9834 4.61342 24.2459 4.61434C24.3406 4.6145 24.4353 4.61431 24.53 4.61372C25.2384 4.60961 25.8469 4.6672 26.4061 5.14988C26.8281 5.58717 27.0178 6.05575 27.012 6.66155C27.012 6.70378 27.012 6.74601 27.012 6.78952C27.0119 6.92791 27.0111 7.06628 27.0103 7.20466C27.0101 7.30109 27.01 7.39751 27.0098 7.49393C27.0094 7.74682 27.0084 7.9997 27.0072 8.25258C27.0062 8.51099 27.0057 8.7694 27.0051 9.02781C27.004 9.53418 27.0022 10.0405 27 10.5469C24.9645 10.5663 22.929 10.5811 20.8935 10.59C20.6523 10.5911 20.4112 10.5921 20.17 10.5933C20.122 10.5935 20.074 10.5937 20.0246 10.5939C19.2507 10.5976 18.4768 10.6042 17.7029 10.612C16.9069 10.6199 16.1109 10.6246 15.3149 10.6263C14.825 10.6274 14.3352 10.6311 13.8453 10.638C13.5078 10.6425 13.1704 10.6438 12.833 10.6427C12.6391 10.6421 12.4456 10.6429 12.2518 10.6475C11.1141 10.6733 10.3457 10.3941 9.39786 9.80678C9.14899 9.6545 8.89255 9.51752 8.63525 9.38016C8.54264 9.32959 8.45007 9.27892 8.35757 9.22814C8.03349 9.05094 7.70816 8.87607 7.38281 8.70121C6.91304 8.44868 6.44424 8.19449 5.97629 7.93862C5.60219 7.73427 5.22702 7.53195 4.85156 7.33011C4.38202 7.07771 3.91341 6.8237 3.44573 6.56787C3.06497 6.35981 2.68284 6.15434 2.30054 5.94913C1.79393 5.67708 1.29037 5.4004 0.791016 5.11527C0.84375 4.95707 0.84375 4.95707 0.928207 4.89918C0.96342 4.88239 0.998633 4.8656 1.03491 4.8483C1.08651 4.82291 1.08651 4.82291 1.13914 4.79701C1.44284 4.67484 1.72328 4.62518 2.04903 4.62709Z" fill="#464654"/>
<path d="M12.3017 16.3859C12.4996 16.3884 12.6975 16.3876 12.8954 16.3871C13.237 16.3868 13.5786 16.3886 13.9203 16.3919C14.4142 16.3966 14.9081 16.3981 15.402 16.3989C16.2037 16.4001 17.0053 16.404 17.807 16.4095C18.585 16.4148 19.363 16.4189 20.1411 16.4214C20.2132 16.4216 20.2132 16.4216 20.2868 16.4218C20.528 16.4226 20.7692 16.4233 21.0105 16.424C23.007 16.43 25.0035 16.4402 27 16.4532C27.0049 17.007 27.0086 17.5608 27.0109 18.1146C27.012 18.3718 27.0135 18.629 27.0159 18.8862C27.0182 19.1348 27.0195 19.3833 27.02 19.6319C27.0204 19.7264 27.0212 19.8208 27.0223 19.9153C27.0307 20.6346 26.9735 21.1987 26.4869 21.7675C25.8935 22.3496 25.1924 22.3828 24.4112 22.3799C24.3133 22.3801 24.2154 22.3804 24.1175 22.3808C23.8491 22.3816 23.5808 22.3813 23.3124 22.3809C23.0227 22.3807 22.7331 22.3813 22.4434 22.3819C21.8762 22.3828 21.3089 22.3828 20.7416 22.3826C20.2806 22.3823 19.8195 22.3824 19.3584 22.3827C19.2928 22.3827 19.2271 22.3828 19.1595 22.3828C19.0262 22.3829 18.8929 22.383 18.7595 22.3831C17.8644 22.3836 16.9692 22.3838 16.0741 22.3834C16.0216 22.3834 16.0216 22.3834 15.9681 22.3834C15.6839 22.3832 15.3998 22.3831 15.1157 22.383C14.0075 22.3824 12.8994 22.3829 11.7912 22.3841C10.5456 22.3855 9.29995 22.3861 8.05432 22.3858C7.395 22.3856 6.73569 22.3857 6.07638 22.3866C5.51511 22.3874 4.95385 22.3874 4.39259 22.3865C4.10628 22.3861 3.81999 22.386 3.53368 22.3868C3.27143 22.3875 3.0092 22.3872 2.74695 22.3862C2.65224 22.386 2.55753 22.3862 2.46282 22.3867C1.84614 22.3901 1.3174 22.3456 0.791016 21.9903C0.791016 21.9555 0.791016 21.9207 0.791016 21.8849C0.826475 21.8658 0.861934 21.8468 0.898467 21.8271C1.5139 21.4964 2.12917 21.1654 2.74219 20.8302C3.22145 20.5681 3.7022 20.3089 4.18332 20.0503C4.54737 19.8545 4.91073 19.6574 5.27344 19.4591C5.7527 19.197 6.23345 18.9378 6.71457 18.6792C7.12569 18.4581 7.53577 18.2351 7.94535 18.0111C8.37404 17.7769 8.80414 17.5453 9.23469 17.3146C9.28717 17.2864 9.33965 17.2582 9.39372 17.2292C9.44748 17.2013 9.50124 17.1733 9.55663 17.1446C9.69973 17.0677 9.83211 16.9822 9.96548 16.8896C10.7159 16.3918 11.4267 16.3718 12.3017 16.3859Z" fill="#73AE00"/>
<path d="M10.916 10.5469C16.2237 10.5469 21.5314 10.5469 27 10.5469C27 12.4959 27 14.445 27 16.4531C21.6923 16.4531 16.3846 16.4531 10.916 16.4531C11.1264 16.2849 11.321 16.1581 11.5569 16.0362C11.6113 16.0076 11.6113 16.0076 11.6668 15.9785C11.7443 15.9378 11.8219 15.8972 11.8995 15.8568C12.1035 15.7505 12.307 15.6433 12.5106 15.5362C12.5509 15.5151 12.5911 15.494 12.6326 15.4722C12.9519 15.3044 13.2694 15.1336 13.5857 14.9601C13.6303 14.9356 13.675 14.9111 13.721 14.8859C13.8108 14.8366 13.9006 14.7873 13.9904 14.738C14.3119 14.5622 14.6343 14.3882 14.9566 14.2139C15.0548 14.1608 15.1529 14.1075 15.2508 14.054C15.3541 13.9985 15.4581 13.9444 15.5627 13.8915C15.6155 13.8644 15.6682 13.8373 15.7225 13.8094C15.7703 13.7854 15.8182 13.7614 15.8674 13.7367C15.9844 13.6672 15.9844 13.6672 16.0308 13.5532C16.0413 13.4454 16.0413 13.4454 15.9755 13.3661C15.8412 13.2651 15.7011 13.1894 15.5523 13.1113C15.5206 13.0945 15.4889 13.0777 15.4562 13.0604C15.388 13.0244 15.3197 12.9885 15.2514 12.9528C15.1069 12.8771 14.9627 12.8008 14.8185 12.7245C14.7457 12.686 14.6728 12.6475 14.6 12.609C14.2978 12.4494 13.9974 12.2867 13.6978 12.1223C13.2748 11.8906 12.8505 11.6615 12.4255 11.4335C11.9189 11.1614 11.4154 10.8847 10.916 10.5996C10.916 10.5822 10.916 10.5648 10.916 10.5469Z" fill="#F4F4F4"/>
<path d="M4.95703 12.2871C5.13404 12.4051 5.14582 12.4418 5.20422 12.6365C5.21748 12.6796 5.23074 12.7227 5.24439 12.7671C5.25398 12.8001 5.26356 12.8331 5.27344 12.8672C5.33652 12.8498 5.3996 12.8324 5.4646 12.8145C5.65091 12.7674 5.81875 12.7521 6.01172 12.7617C5.99588 12.7929 5.98004 12.8241 5.96372 12.8563C5.84152 13.1087 5.84152 13.1087 5.79089 13.3813C5.87544 13.5415 5.99156 13.611 6.14376 13.705C6.1698 13.7243 6.19583 13.7437 6.22266 13.7637C6.22266 13.7985 6.22266 13.8333 6.22266 13.8691C6.13702 13.8957 6.05131 13.922 5.96558 13.9482C5.894 13.9703 5.894 13.9703 5.82097 13.9927C5.69531 14.0273 5.69531 14.0273 5.58984 14.0273C5.58984 14.2536 5.58984 14.4798 5.58984 14.7129C5.3889 14.6627 5.31198 14.6218 5.15479 14.4987C5.11753 14.4698 5.08028 14.4409 5.0419 14.4111C5.01389 14.3889 4.98589 14.3667 4.95703 14.3438C4.92841 14.3704 4.89979 14.397 4.87031 14.4245C4.83258 14.4588 4.79485 14.493 4.75598 14.5283C4.7 14.5797 4.7 14.5797 4.64289 14.6321C4.53516 14.7129 4.53516 14.7129 4.37695 14.7129C4.35955 14.4867 4.34215 14.2604 4.32422 14.0273C4.13279 13.9925 3.94137 13.9577 3.74414 13.9219C3.74414 13.8697 3.74414 13.8175 3.74414 13.7637C3.83643 13.679 3.83643 13.679 3.95508 13.5956C3.99423 13.5676 4.03339 13.5397 4.07373 13.5109C4.10418 13.4899 4.13464 13.4689 4.16602 13.4473C4.13485 13.1917 4.06163 12.9934 3.95508 12.7617C4.45131 12.8125 4.45131 12.8125 4.69336 12.8672C4.7075 12.8204 4.72164 12.7736 4.73621 12.7255C4.79446 12.563 4.86361 12.4315 4.95703 12.2871Z" fill="#F5F0F0"/>
</g>
<defs>
<clipPath id="clip0_82_5092">
<rect width="27" height="27" fill="white"/>
</clipPath>
</defs>
</svg>
