<svg width="40" height="41" viewBox="0 0 40 41" fill="none" xmlns="http://www.w3.org/2000/svg">
<g clip-path="url(#clip0_82_3282)">
<path d="M19.9509 0.470697C20.02 0.470713 20.089 0.47073 20.1601 0.470747C21.2538 0.473357 22.2946 0.544947 23.3591 0.812494C23.422 0.827537 23.4849 0.84258 23.5497 0.858079C25.9499 1.43943 28.1751 2.64988 29.9827 4.32751C30.1039 4.43722 30.2294 4.54233 30.3577 4.64367C30.5236 4.77816 30.6576 4.9085 30.7957 5.07031C30.865 5.15158 30.865 5.15158 30.9357 5.23449C30.9878 5.29633 31.0399 5.35816 31.0935 5.42187C31.1561 5.49498 31.2186 5.5681 31.283 5.64343C33.73 8.53224 35.0813 12.318 34.8128 16.1194C34.5966 18.524 33.8185 20.8158 32.656 22.9219C32.622 22.9838 32.588 23.0457 32.5529 23.1094C31.8969 24.2845 31.121 25.3907 30.3718 26.5074C29.8098 27.345 29.2552 28.1875 28.7009 29.0303C28.0206 30.0643 27.3379 31.0968 26.6502 32.126C26.1548 32.8674 25.6624 33.6105 25.1768 34.3584C24.6284 35.202 24.0741 36.0417 23.5203 36.8818C23.4707 36.9571 23.4211 37.0324 23.37 37.1099C23.0932 37.5299 22.8162 37.9497 22.5389 38.3693C22.4341 38.528 22.3296 38.6867 22.2251 38.8455C22.1706 38.9279 22.1161 39.0104 22.06 39.0953C22.0155 39.1627 21.9711 39.2302 21.9253 39.2997C21.5697 39.8102 21.1769 40.345 20.5466 40.5C20.012 40.5595 19.4454 40.5954 18.9722 40.3041C18.4597 39.8901 18.1029 39.3893 17.7644 38.8325C17.3936 38.2314 17.0066 37.6428 16.6129 37.0566C16.4089 36.7528 16.2056 36.4485 16.0023 36.1442C15.9593 36.0799 15.9163 36.0156 15.8721 35.9493C15.3531 35.172 14.8396 34.3911 14.3259 33.6103C13.6455 32.5763 12.9629 31.5438 12.2752 30.5146C11.7795 29.7728 11.2862 29.0296 10.8011 28.2807C10.5088 27.8302 10.2135 27.3819 9.91621 26.9347C9.71598 26.6335 9.51614 26.3321 9.31628 26.0308C9.21722 25.8816 9.11799 25.7326 9.01855 25.5838C6.41309 21.6821 4.51344 17.3808 5.38979 12.5956C5.938 9.85967 7.16069 7.33099 9.06166 5.28271C9.17138 5.16147 9.27649 5.03597 9.37783 4.90765C9.51231 4.74182 9.64266 4.60775 9.80446 4.46972C9.85864 4.4235 9.91282 4.37727 9.96865 4.32964C10.0305 4.27758 10.0923 4.22551 10.156 4.17187C10.2291 4.10933 10.3023 4.04679 10.3776 3.98235C12.4156 2.25607 14.7976 1.14049 17.4216 0.656244C17.5281 0.635378 17.5281 0.635378 17.6368 0.614091C18.4076 0.477265 19.1706 0.468974 19.9509 0.470697ZM12.1091 4.95312C12.0366 5.00821 11.9641 5.06329 11.8894 5.12005C9.23342 7.20856 7.6785 10.1731 7.10915 13.4687C7.09541 13.5428 7.08168 13.6168 7.06753 13.6931C6.69672 16.1753 7.37584 18.6948 8.39333 20.9394C8.42596 21.0115 8.4586 21.0835 8.49222 21.1578C8.98123 22.196 9.62168 23.1533 10.2537 24.1084C10.3237 24.2146 10.3937 24.3208 10.4637 24.427C10.6164 24.6588 10.7692 24.8904 10.9222 25.122C11.1892 25.5264 11.4556 25.9313 11.7219 26.3362C12.6348 27.7236 13.5501 29.1093 14.4727 30.4903C14.9326 31.1787 15.3888 31.8692 15.8398 32.5636C16.4737 33.5386 17.1141 34.5095 17.7554 35.4797C17.8531 35.6276 17.9508 35.7754 18.0485 35.9233C18.096 35.9951 18.1434 36.0669 18.1923 36.1409C18.4342 36.5072 18.6749 36.8743 18.9128 37.2432C19.0022 37.3818 19.0921 37.5201 19.1821 37.6584C19.2845 37.816 19.3861 37.9742 19.4868 38.133C19.5523 38.2333 19.5523 38.2333 19.6192 38.3357C19.6555 38.3924 19.6918 38.449 19.7293 38.5074C19.767 38.5462 19.8047 38.585 19.8435 38.625C20.1434 38.6616 20.1434 38.6616 20.2604 38.522C20.2911 38.4736 20.3218 38.4251 20.3535 38.3752C20.3892 38.3203 20.4249 38.2654 20.4616 38.2088C20.4996 38.148 20.5375 38.0873 20.5766 38.0247C20.6605 37.8945 20.7444 37.7643 20.8284 37.6341C20.8937 37.5315 20.8937 37.5315 20.9604 37.4268C21.1767 37.0888 21.3988 36.7547 21.6203 36.4201C21.7116 36.2813 21.803 36.1426 21.8943 36.0037C22.6884 34.7967 23.4841 33.5909 24.2869 32.3896C24.7831 31.647 25.2761 30.9026 25.7627 30.1536C26.2388 29.4214 26.7189 28.6918 27.1994 27.9625C27.2987 27.8118 27.398 27.661 27.4972 27.5103C27.997 26.7513 28.4975 25.9929 29.0055 25.2394C30.543 22.9579 31.9707 20.6949 32.656 18C32.6736 17.9312 32.6911 17.8624 32.7092 17.7915C33.1529 15.9664 33.1075 14.0368 32.656 12.2187C32.6414 12.1589 32.6268 12.0991 32.6117 12.0374C32.401 11.2008 32.0932 10.4167 31.7185 9.64062C31.6953 9.59212 31.672 9.54361 31.6481 9.49364C31.0309 8.22496 30.2012 7.13115 29.2185 6.12499C29.1379 6.03572 29.1379 6.03572 29.0556 5.94463C28.1508 4.97009 26.9605 4.22316 25.781 3.62499C25.6945 3.58108 25.608 3.53718 25.5189 3.49194C21.183 1.40058 15.8947 2.02403 12.1091 4.95312Z" fill="#DF2429"/>
<path d="M22.422 7.76561C22.5121 7.79482 22.6021 7.82403 22.6949 7.85412C23.6262 8.18501 24.4066 8.69196 25.1564 9.32811C25.2083 9.3686 25.2601 9.40908 25.3136 9.4508C26.7046 10.5738 27.6099 12.4141 27.8127 14.1719C28.0436 16.3454 27.558 18.4573 26.172 20.1875C24.771 21.8698 22.9313 22.8827 20.7478 23.1315C18.7804 23.3059 16.6657 22.7608 15.1207 21.5C14.9193 21.3279 14.725 21.1496 14.5314 20.9687C14.4539 20.9006 14.4539 20.9006 14.3749 20.8311C12.9175 19.4887 12.1923 17.4373 12.1095 15.5C12.0827 13.3101 12.8823 11.2753 14.3948 9.69783C16.4677 7.64405 19.634 6.84429 22.422 7.76561ZM15.6252 11.125C15.5788 11.1709 15.5325 11.2168 15.4848 11.2641C14.3225 12.4715 13.94 14.0459 13.9635 15.6779C14.0141 17.1872 14.704 18.5946 15.7814 19.6406C16.9533 20.7193 18.4733 21.3742 20.0783 21.3594C21.8026 21.2611 23.2857 20.5933 24.5024 19.3531C25.7048 17.9984 26.1352 16.3911 26.0329 14.6048C25.9128 13.2092 25.1584 11.8356 24.1408 10.8906C24.0949 10.8443 24.0489 10.798 24.0016 10.7502C22.8108 9.60383 21.2433 9.20331 19.6285 9.22893C18.1114 9.28487 16.6521 10.0191 15.6252 11.125Z" fill="#DF2429"/>
</g>
<defs>
<clipPath id="clip0_82_3282">
<rect width="40" height="40" fill="white" transform="translate(0 0.5)"/>
</clipPath>
</defs>
</svg>
