<svg width="16" height="19" viewBox="0 0 16 19" fill="none" xmlns="http://www.w3.org/2000/svg">
<path opacity="0.963" fill-rule="evenodd" clip-rule="evenodd" d="M7.34963 0.482422C7.77151 0.482422 8.19338 0.482422 8.61526 0.482422C11.2684 0.926252 12.95 2.44969 13.6602 5.05273C13.9873 6.65139 13.7178 8.1397 12.8516 9.51758C12.2411 10.4503 11.6376 11.3879 11.041 12.3301C11.9743 12.5086 12.8883 12.7605 13.7832 13.0859C14.4952 13.3506 15.0988 13.7666 15.5938 14.334C16.03 15.0815 15.9831 15.7963 15.4531 16.4785C14.8075 17.0916 14.0517 17.5194 13.1856 17.7617C11.8618 18.162 10.5141 18.4022 9.1426 18.4824C8.36916 18.4824 7.59573 18.4824 6.82229 18.4824C5.56306 18.4112 4.32085 18.2062 3.09573 17.8672C2.37122 17.6572 1.69153 17.3525 1.05666 16.9531C0.33376 16.4858 0.0114967 15.8237 0.089867 14.9668C0.200978 14.5746 0.406055 14.2406 0.705101 13.9648C1.31986 13.464 2.01127 13.1007 2.77932 12.875C3.48839 12.6655 4.20325 12.4839 4.92385 12.3301C4.31442 11.3455 3.68748 10.3728 3.04299 9.41211C2.05312 7.6877 1.9125 5.89473 2.62112 4.0332C3.56236 2.00135 5.13852 0.817754 7.34963 0.482422ZM7.4551 1.57227C9.4981 1.45983 11.0508 2.26842 12.1133 3.99805C12.9068 5.59203 12.8833 7.17406 12.043 8.74414C10.6826 10.8488 9.32903 12.9582 7.98245 15.0723C6.63586 12.9582 5.28234 10.8488 3.9219 8.74414C3.08156 7.17396 3.05811 5.59193 3.85159 3.99805C4.66538 2.61546 5.86653 1.80687 7.4551 1.57227ZM7.66604 4.77148C8.61673 4.68595 9.23197 5.09608 9.51174 6.00195C9.6144 6.95342 9.2101 7.56866 8.29885 7.84766C7.34738 7.95031 6.73215 7.54602 6.45315 6.63477C6.35777 5.68242 6.76207 5.06131 7.66604 4.77148ZM5.38088 13.3848C5.48161 13.3691 5.5695 13.3926 5.64455 13.4551C6.29649 14.5072 6.97033 15.5443 7.66604 16.5664C7.94979 16.7104 8.20175 16.6694 8.4219 16.4434C9.0635 15.4532 9.69631 14.4571 10.3203 13.4551C10.3599 13.4043 10.4127 13.3809 10.4785 13.3848C11.5074 13.5101 12.5035 13.7621 13.4668 14.1406C13.9351 14.3247 14.3394 14.6001 14.6797 14.9668C14.7913 15.1258 14.8264 15.3016 14.7852 15.4941C14.664 15.6857 14.5175 15.8556 14.3457 16.0039C13.6863 16.4331 12.9715 16.7378 12.2012 16.918C10.4435 17.3359 8.6623 17.4883 6.85745 17.375C5.42026 17.321 4.02571 17.0515 2.67385 16.5664C2.19804 16.3902 1.7703 16.1383 1.39065 15.8105C1.31161 15.7111 1.2413 15.6057 1.17971 15.4941C1.15274 15.3502 1.16445 15.2096 1.21487 15.0723C1.56211 14.655 1.98984 14.3445 2.49807 14.1406C3.43414 13.7777 4.39507 13.5258 5.38088 13.3848Z" fill="black"/>
</svg>
