<svg width="60" height="61" viewBox="0 0 60 61" fill="none" xmlns="http://www.w3.org/2000/svg">
<g clip-path="url(#clip0_82_3346)">
<path d="M1.5749 34.4254C1.67472 34.4247 1.77455 34.424 1.8774 34.4233C2.21348 34.4216 2.54947 34.4233 2.88556 34.4249C3.1283 34.4243 3.37104 34.4236 3.61379 34.4226C4.28207 34.4207 4.95033 34.4217 5.61862 34.4231C6.33885 34.4242 7.05907 34.4225 7.7793 34.4212C9.10909 34.4193 10.4389 34.4195 11.7687 34.4207C12.9971 34.4219 14.2255 34.4222 15.4539 34.4217C15.5353 34.4216 15.6167 34.4216 15.7006 34.4216C16.0312 34.4214 16.3617 34.4213 16.6923 34.4211C19.794 34.4197 22.8958 34.421 25.9975 34.4235C28.7543 34.4257 31.511 34.4255 34.2677 34.4233C37.3638 34.4208 40.4598 34.4198 43.5558 34.4212C43.8858 34.4214 44.2157 34.4215 44.5457 34.4217C44.6269 34.4217 44.7081 34.4217 44.7918 34.4218C46.0196 34.4223 47.2473 34.4217 48.4751 34.4205C49.8708 34.4192 51.2666 34.4195 52.6623 34.422C53.3749 34.4233 54.0874 34.4237 54.8 34.4222C55.4517 34.4208 56.1034 34.4216 56.7551 34.4241C56.9915 34.4246 57.2278 34.4243 57.4641 34.4232C57.7843 34.4218 58.1044 34.4232 58.4246 34.4254C58.5173 34.4243 58.61 34.4232 58.7055 34.4221C59.1419 34.4281 59.3917 34.4704 59.764 34.7063C60.0397 34.9949 60.0732 35.1064 60.0742 35.4994C60.0758 35.6086 60.0775 35.7179 60.0792 35.8304C60.078 35.9495 60.0768 36.0685 60.0756 36.1911C60.0766 36.3171 60.0776 36.4431 60.0787 36.5729C60.0813 36.9899 60.0796 37.4068 60.0776 37.8238C60.078 38.1133 60.0785 38.4029 60.0793 38.6925C60.0801 39.2996 60.0789 39.9067 60.0761 40.5139C60.0728 41.2923 60.0747 42.0706 60.0782 42.8491C60.0804 43.4472 60.0797 44.0452 60.0782 44.6433C60.0778 44.9303 60.0783 45.2173 60.0796 45.5043C60.0811 45.9056 60.0788 46.3066 60.0756 46.7078C60.0768 46.8266 60.0779 46.9454 60.0792 47.0678C60.0775 47.1773 60.0759 47.2869 60.0742 47.3998C60.0739 47.4946 60.0737 47.5894 60.0735 47.687C59.96 48.1087 59.7523 48.2758 59.4138 48.5469C59.0617 48.6045 58.7763 48.6258 58.4246 48.6206C58.3248 48.6215 58.225 48.6223 58.1221 48.6232C57.786 48.6254 57.4501 48.6233 57.114 48.6213C56.8712 48.622 56.6285 48.6229 56.3857 48.6241C55.7174 48.6265 55.0492 48.6253 54.3809 48.6235C53.6607 48.6222 52.9404 48.6242 52.2202 48.6258C50.8904 48.6283 49.5607 48.6281 48.2309 48.6265C47.0025 48.625 45.7741 48.6246 44.5457 48.6253C44.4235 48.6254 44.4235 48.6254 44.2989 48.6254C43.9683 48.6256 43.6378 48.6258 43.3073 48.626C40.2055 48.6278 37.1037 48.6262 34.002 48.623C31.2452 48.6202 28.4885 48.6205 25.7318 48.6233C22.6358 48.6264 19.5397 48.6277 16.4437 48.6258C16.1138 48.6257 15.7838 48.6255 15.4539 48.6253C15.332 48.6252 15.332 48.6252 15.2077 48.6252C13.9799 48.6245 12.7522 48.6253 11.5245 48.6267C10.1287 48.6284 8.73295 48.628 7.33719 48.6248C6.62462 48.6233 5.91208 48.6227 5.19951 48.6246C4.54778 48.6264 3.89612 48.6254 3.2444 48.6223C3.00806 48.6216 2.77172 48.622 2.53539 48.6234C2.21515 48.6252 1.89513 48.6234 1.5749 48.6206C1.48223 48.622 1.38955 48.6234 1.29407 48.6248C0.820839 48.6167 0.609777 48.5662 0.235512 48.2664C-0.0177877 47.9382 -0.0736964 47.8066 -0.0746446 47.3998C-0.0762969 47.2902 -0.0779491 47.1807 -0.0796514 47.0678C-0.0784654 46.949 -0.0772793 46.8302 -0.0760573 46.7078C-0.0775974 46.5185 -0.0775974 46.5185 -0.0791686 46.3254C-0.0817463 45.9084 -0.0800405 45.4917 -0.07806 45.0748C-0.0784546 44.7851 -0.0790233 44.4954 -0.0797587 44.2057C-0.0806226 43.5988 -0.0793668 42.9919 -0.0766295 42.385C-0.0732894 41.6064 -0.0752144 40.8279 -0.0787227 40.0493C-0.0808382 39.4512 -0.080167 38.8532 -0.0786478 38.2551C-0.0782566 37.968 -0.0787381 37.6809 -0.0801007 37.3938C-0.0815861 36.9928 -0.0793244 36.5921 -0.0760573 36.1911C-0.0772433 36.0721 -0.0784294 35.9531 -0.0796514 35.8304C-0.0771731 35.6666 -0.0771731 35.6666 -0.0746446 35.4994C-0.0744237 35.4047 -0.0742028 35.3099 -0.0739752 35.2123C0.147478 34.4339 0.888105 34.4173 1.5749 34.4254ZM2.10913 36.5938C2.10913 39.8422 2.10913 43.0906 2.10913 46.4375C20.5169 46.4375 38.9248 46.4375 57.8904 46.4375C57.8904 43.1891 57.8904 39.9406 57.8904 36.5938C56.9623 36.5938 56.0341 36.5938 55.0779 36.5938C55.0533 37.2615 55.0533 37.2615 55.0324 37.9294C55.005 38.5235 54.9322 38.966 54.4919 39.4063C53.6635 39.4742 53.6635 39.4742 53.2949 39.2447C52.9716 38.77 53.0066 38.2979 52.9978 37.7363C52.9881 37.3593 52.9785 36.9822 52.9685 36.5938C51.6923 36.5938 50.4162 36.5938 49.1013 36.5938C49.0956 36.8746 49.0898 37.1554 49.0839 37.4447C49.0776 37.7178 49.0709 37.9908 49.0641 38.2639C49.0597 38.4531 49.0556 38.6424 49.0519 38.8316C49.0465 39.1042 49.0397 39.3768 49.0327 39.6493C49.0313 39.7335 49.0299 39.8176 49.0286 39.9043C49.0109 40.5093 48.9518 40.9621 48.5154 41.3985C47.6894 41.4784 47.6894 41.4784 47.3328 41.2228C47.0199 40.8127 47.0385 40.4314 47.0377 39.9354C47.0358 39.8399 47.0338 39.7443 47.0319 39.6458C47.0262 39.3413 47.0237 39.0369 47.0212 38.7324C47.0179 38.5257 47.0144 38.3189 47.0107 38.1122C47.0017 37.606 46.9969 37.1001 46.9919 36.5938C45.6771 36.5938 44.3623 36.5938 43.0076 36.5938C42.9876 37.3439 42.9876 37.3439 42.9727 38.0942C42.9434 38.8602 42.9434 38.8602 42.6803 39.2438C42.2496 39.5143 41.9868 39.4621 41.4841 39.4063C41.2215 39.2368 41.156 39.1341 41.0685 38.8376C41.0162 38.5898 40.9917 38.3571 40.9783 38.1044C40.9738 38.0247 40.9694 37.9449 40.9648 37.8628C40.9597 37.7631 40.9547 37.6633 40.9495 37.5606C40.9325 37.2415 40.9156 36.9225 40.8982 36.5938C39.622 36.5938 38.3459 36.5938 37.031 36.5938C37.028 36.9013 37.025 37.2089 37.0219 37.5258C37.0174 37.824 37.0121 38.1223 37.0067 38.4205C37.0034 38.6276 37.0009 38.8347 36.9993 39.0418C36.9967 39.3398 36.9913 39.6375 36.9852 39.9354C36.9851 40.0279 36.9849 40.1203 36.9848 40.2155C36.9735 40.6382 36.95 40.8823 36.6899 41.2231C36.2832 41.5144 35.9986 41.4374 35.5076 41.3985C35.3916 41.3598 35.2755 41.3211 35.156 41.2813C35.0325 40.7693 35.0136 40.2648 35.0017 39.7409C34.9993 39.6507 34.9969 39.5605 34.9944 39.4675C34.9867 39.181 34.9798 38.8945 34.9729 38.6079C34.9678 38.413 34.9627 38.2181 34.9576 38.0231C34.945 37.5467 34.9333 37.0702 34.9216 36.5938C33.6455 36.5938 32.3693 36.5938 31.0544 36.5938C31.0206 37.3054 31.0206 37.3054 30.9879 38.0171C30.9834 38.1063 30.9789 38.1955 30.9743 38.2875C30.9679 38.4237 30.9679 38.4237 30.9613 38.5627C30.9371 38.8217 30.9117 39.0451 30.8201 39.2891C30.5064 39.3936 30.3216 39.4221 29.9998 39.4209C29.8801 39.4214 29.8801 39.4214 29.7581 39.4218C29.531 39.4063 29.531 39.4063 29.1794 39.2891C29.0567 38.9622 29.0416 38.6342 29.0252 38.2875C29.0207 38.1982 29.0163 38.109 29.0116 38.0171C29.0066 37.9051 29.0015 37.7931 28.9963 37.6777C28.971 37.1412 28.971 37.1412 28.9451 36.5938C27.6689 36.5938 26.3927 36.5938 25.0779 36.5938C25.0708 36.883 25.0637 37.1723 25.0564 37.4704C25.0491 37.7516 25.0417 38.0328 25.0343 38.314C25.0292 38.5089 25.0243 38.7038 25.0196 38.8987C25.0128 39.1795 25.0054 39.4602 24.9978 39.7409C24.9958 39.8276 24.9939 39.9143 24.9918 40.0036C24.9794 40.4418 24.9464 40.8546 24.8435 41.2813C24.4185 41.4229 23.9951 41.4906 23.5544 41.3985C23.3096 41.2231 23.3096 41.2231 23.0857 40.9297C23.0367 40.5843 23.0148 40.281 23.0143 39.9354C23.0123 39.8399 23.0104 39.7443 23.0084 39.6458C23.0027 39.3413 23.0002 39.0369 22.9978 38.7324C22.9945 38.5257 22.991 38.3189 22.9873 38.1122C22.9782 37.606 22.9735 37.1001 22.9685 36.5938C21.6923 36.5938 20.4162 36.5938 19.1013 36.5938C19.0722 37.223 19.0722 37.223 19.0453 37.8522C19.0133 38.4623 18.9659 38.9558 18.5154 39.4063C17.7035 39.4848 17.7035 39.4848 17.3188 39.2442C16.9947 38.7701 17.03 38.2979 17.0212 37.7363C17.0116 37.3593 17.0019 36.9822 16.9919 36.5938C15.6771 36.5938 14.3623 36.5938 13.0076 36.5938C13.0046 36.9013 13.0015 37.2089 12.9984 37.5258C12.9939 37.824 12.9886 38.1223 12.9833 38.4205C12.9799 38.6276 12.9775 38.8347 12.9758 39.0418C12.9733 39.3398 12.9678 39.6375 12.9618 39.9354C12.9617 40.0279 12.9615 40.1203 12.9614 40.2155C12.9501 40.6381 12.9268 40.8821 12.6665 41.2226C12.2532 41.5194 11.9834 41.4539 11.4841 41.3985C11.2341 41.2371 11.1623 41.1351 11.0685 40.857C10.9929 40.46 10.9876 40.0637 10.9783 39.6608C10.9759 39.573 10.9734 39.4852 10.9709 39.3948C10.9633 39.1154 10.9564 38.836 10.9495 38.5567C10.9444 38.3668 10.9393 38.177 10.9341 37.9872C10.9215 37.5227 10.9099 37.0583 10.8982 36.5938C9.62203 36.5938 8.34585 36.5938 7.03101 36.5938C7.01107 37.3439 7.01107 37.3439 6.99611 38.0942C6.96687 38.8602 6.96687 38.8602 6.70371 39.2438C6.27309 39.5143 6.01023 39.4621 5.50757 39.4063C5.19418 39.194 5.16079 39.069 5.03882 38.7031C5.02184 38.5383 5.00996 38.3729 5.00174 38.2074C4.99504 38.0802 4.99504 38.0802 4.98821 37.9505C4.98316 37.8436 4.97811 37.7366 4.9729 37.6265C4.95599 37.2857 4.93907 36.9449 4.92164 36.5938C3.99351 36.5938 3.06538 36.5938 2.10913 36.5938Z" fill="#DF2429"/>
<path d="M10.0782 15.5C11.3265 17.0604 10.547 19.4783 10.547 21.4766C23.386 21.4766 36.2251 21.4766 49.4532 21.4766C49.4532 19.6977 49.4532 17.9188 49.4532 16.086C49.922 15.5 49.922 15.5 50.3834 15.4268C50.7534 15.4194 50.856 15.497 51.1405 15.7463C51.4786 16.123 51.7985 16.509 52.1119 16.9063C52.1735 16.9838 52.2351 17.0613 52.2985 17.1412C52.7731 17.7403 53.2405 18.3447 53.7045 18.952C53.9504 19.2733 54.1992 19.5922 54.4488 19.9106C54.5595 20.052 54.5595 20.052 54.6725 20.1963C54.8179 20.3819 54.9636 20.5673 55.1095 20.7525C55.2969 20.9921 55.4813 21.2335 55.6641 21.4766C55.738 21.5745 55.8119 21.6724 55.888 21.7732C56.0718 22.1896 56.1066 22.5592 56.0157 23C55.8515 23.3306 55.6346 23.6022 55.4005 23.8862C55.337 23.9669 55.2736 24.0476 55.2082 24.1307C55.0108 24.3806 54.8104 24.6279 54.6095 24.875C54.4903 25.0237 54.3713 25.1724 54.2524 25.3213C54.0795 25.5377 53.9063 25.7539 53.7322 25.9694C53.2958 26.5104 52.8776 27.0633 52.4635 27.6216C51.1857 29.3408 51.1857 29.3408 50.7423 29.5625C50.4054 29.5991 50.4054 29.5991 50.0391 29.5625C49.7693 29.3437 49.6081 29.1692 49.4532 28.8594C49.4532 27.1192 49.4532 25.3789 49.4532 23.586C36.6141 23.586 23.7751 23.586 10.547 23.586C10.547 25.3262 10.547 27.0664 10.547 28.8594C10.3126 29.3281 10.3126 29.3281 9.96102 29.5625C9.63143 29.6138 9.63143 29.6138 9.2579 29.5625C8.74744 29.184 8.37966 28.7856 7.99813 28.2735C7.89561 28.1372 7.79307 28.0009 7.69051 27.8647C7.61347 27.7614 7.61347 27.7614 7.53487 27.6561C7.30156 27.3445 7.06385 27.0364 6.82625 26.728C6.77959 26.6673 6.73292 26.6065 6.68483 26.544C6.3891 26.1593 6.09159 25.7761 5.79308 25.3937C5.68415 25.254 5.68415 25.254 5.57301 25.1115C5.43072 24.9292 5.28829 24.7471 5.14569 24.565C3.86354 22.9224 3.86354 22.9224 3.90618 22.3221C4.08727 21.7216 4.5342 21.2537 4.92196 20.7735C5.10296 20.5369 5.28361 20.3001 5.46395 20.063C6.015 19.3482 6.5701 18.6365 7.12512 17.9248C7.44944 17.5086 7.77261 17.0918 8.09151 16.6714C8.14544 16.6005 8.19937 16.5296 8.25494 16.4565C8.39858 16.2672 8.5417 16.0775 8.68478 15.8877C9.04801 15.4442 9.52695 15.3606 10.0782 15.5ZM8.43758 19.6016C8.2135 19.8698 7.99482 20.1402 7.7784 20.4146C7.715 20.4944 7.65159 20.5743 7.58626 20.6565C7.12404 21.2394 6.66474 21.8246 6.21102 22.4141C6.63058 23.0832 7.0932 23.7125 7.58065 24.333C7.63636 24.4041 7.69208 24.4752 7.74948 24.5485C8.00523 24.8715 8.2629 25.1691 8.55477 25.461C8.55477 23.5274 8.55477 21.5938 8.55477 19.6016C8.5161 19.6016 8.47743 19.6016 8.43758 19.6016ZM51.4454 19.6016C51.4454 21.5352 51.4454 23.4688 51.4454 25.461C52.3609 24.5455 53.0863 23.4981 53.7891 22.4141C53.7467 22.3622 53.7042 22.3103 53.6605 22.2568C53.4639 22.0164 53.2676 21.7758 53.0714 21.5352C53.0046 21.4536 52.9378 21.372 52.869 21.288C52.465 20.7921 52.0753 20.2893 51.6995 19.7716C51.6543 19.7155 51.6091 19.6594 51.5626 19.6016C51.5239 19.6016 51.4852 19.6016 51.4454 19.6016Z" fill="#DF2429"/>
<path d="M59.4139 12.4531C59.7832 12.7456 59.9756 12.923 60.0732 13.3899C60.0734 13.5865 60.0734 13.5865 60.0735 13.787C60.0749 13.938 60.0764 14.089 60.078 14.2446C60.0766 14.4111 60.0752 14.5775 60.0738 14.744C60.0744 14.92 60.0753 15.096 60.0763 15.2719C60.0785 15.7492 60.077 16.2263 60.0747 16.7036C60.0728 17.203 60.0738 17.7025 60.0744 18.202C60.0749 19.0406 60.0731 19.8793 60.0698 20.7179C60.066 21.6876 60.066 22.6572 60.0681 23.6269C60.0699 24.5598 60.0691 25.4927 60.0671 26.4255C60.0663 26.8226 60.0664 27.2196 60.0673 27.6166C60.0682 28.084 60.0668 28.5513 60.0636 29.0187C60.0628 29.1903 60.0628 29.3619 60.0636 29.5334C60.0646 29.7675 60.0625 30.0016 60.0602 30.2356C60.0598 30.3667 60.0595 30.4977 60.0592 30.6327C59.9864 31.045 59.8538 31.1797 59.5311 31.4375C59.1926 31.6067 58.969 31.5988 58.5936 31.5547C58.2301 31.2558 58.0398 31.0652 57.8905 30.6172C57.879 30.3869 57.8746 30.1562 57.874 29.9256C57.8733 29.7812 57.8727 29.6368 57.872 29.488C57.8718 29.3277 57.8717 29.1674 57.8716 29.0071C57.871 28.8385 57.8705 28.6698 57.8698 28.5012C57.8683 28.0428 57.8675 27.5845 57.867 27.1261C57.8667 26.8398 57.8662 26.5534 57.8657 26.267C57.8641 25.3708 57.8629 24.4747 57.8625 23.5786C57.8619 22.5443 57.8599 21.51 57.8565 20.4757C57.854 19.6761 57.8528 18.8766 57.8526 18.077C57.8525 17.5995 57.8518 17.122 57.8497 16.6445C57.8478 16.1952 57.8475 15.7459 57.8486 15.2966C57.8486 15.132 57.8481 14.9673 57.847 14.8026C57.8455 14.5773 57.8464 14.3521 57.8474 14.1268C57.8472 14.0009 57.8471 13.8749 57.8469 13.7452C57.8984 13.3259 58.0229 13.0472 58.242 12.6875C58.6815 12.3945 58.8934 12.3903 59.4139 12.4531Z" fill="#DF2429"/>
<path d="M0.996287 12.3799C1.50758 12.4712 1.67418 12.6366 1.99238 13.0391C2.11786 13.4155 2.12493 13.6863 2.12603 14.0822C2.12703 14.2988 2.12703 14.2988 2.12805 14.5198C2.1282 14.6801 2.12833 14.8404 2.12845 15.0007C2.12899 15.1694 2.12958 15.338 2.13021 15.5066C2.13175 15.965 2.13251 16.4233 2.13303 16.8817C2.13337 17.1681 2.13385 17.4544 2.13438 17.7408C2.13598 18.637 2.13711 19.5331 2.13756 20.4292C2.13809 21.4635 2.14015 22.4978 2.14354 23.5321C2.14607 24.3317 2.14726 25.1312 2.14741 25.9308C2.14754 26.4083 2.14823 26.8858 2.15032 27.3633C2.15225 27.8126 2.1525 28.2619 2.15148 28.7112C2.15139 28.8758 2.1519 29.0405 2.15305 29.2052C2.15455 29.4305 2.15365 29.6557 2.15263 29.881C2.15281 30.0069 2.15298 30.1329 2.15316 30.2626C2.10162 30.6819 1.97713 30.9606 1.75801 31.3203C1.34684 31.5944 1.1872 31.6031 0.703319 31.5547C0.160465 31.2893 0.160465 31.2893 0.000193603 30.9688C-0.0120743 30.734 -0.0166721 30.4989 -0.0178416 30.2638C-0.0188494 30.1135 -0.0198573 29.9632 -0.0208957 29.8083C-0.0214155 29.6407 -0.0219192 29.4731 -0.0224085 29.3056C-0.0233343 29.1298 -0.0243033 28.9541 -0.0253124 28.7784C-0.0283864 28.2004 -0.030179 27.6224 -0.0318499 27.0443C-0.0324779 26.8455 -0.0331081 26.6466 -0.0337404 26.4478C-0.0362751 25.6207 -0.0384709 24.7937 -0.0397899 23.9666C-0.0416935 22.7807 -0.0455827 21.5948 -0.0522587 20.4089C-0.0567911 19.5753 -0.0590825 18.7419 -0.0597025 17.9083C-0.060131 17.4103 -0.0615433 16.9124 -0.0653395 16.4144C-0.0688599 15.9458 -0.0696059 15.4773 -0.0682242 15.0088C-0.0681983 14.8369 -0.0691748 14.665 -0.0712305 14.4931C-0.0738854 14.2583 -0.0725692 14.0234 -0.0710566 13.7886C-0.0714445 13.6573 -0.0718324 13.5259 -0.0722321 13.3905C0.0534141 12.7808 0.394883 12.4873 0.996287 12.3799Z" fill="#DF2429"/>
</g>
<defs>
<clipPath id="clip0_82_3346">
<rect width="60" height="60" fill="white" transform="translate(0 0.5)"/>
</clipPath>
</defs>
</svg>
