<svg width="75" height="75" viewBox="0 0 75 75" fill="none" xmlns="http://www.w3.org/2000/svg">
<g clip-path="url(#clip0_82_6832)">
<path d="M10.5414 -0.0195167C10.6886 -0.0201697 10.8359 -0.0208227 10.9875 -0.0214955C11.2297 -0.021455 11.2297 -0.021455 11.4768 -0.0214136C11.6485 -0.0219522 11.8202 -0.0224908 11.9972 -0.0230457C12.474 -0.0243814 12.9509 -0.0250576 13.4277 -0.0254465C13.942 -0.0260188 14.4563 -0.0274218 14.9705 -0.0287003C16.2126 -0.0315939 17.4546 -0.0330698 18.6967 -0.0343733C19.2818 -0.0350156 19.8669 -0.0358017 20.452 -0.0365689C22.3975 -0.0390608 24.343 -0.0411839 26.2885 -0.042245C26.7932 -0.0425248 27.298 -0.0428061 27.8027 -0.0430926C27.9909 -0.0431989 27.9909 -0.0431989 28.1829 -0.0433073C30.2147 -0.0445229 32.2464 -0.048234 34.2782 -0.0529921C36.3649 -0.0578389 38.4515 -0.0604751 40.5382 -0.0609429C41.7095 -0.0612598 42.8808 -0.062538 44.0521 -0.0662839C45.0498 -0.0694671 46.0474 -0.0706412 47.045 -0.0692185C47.5537 -0.0685537 48.0624 -0.0688247 48.571 -0.0716738C49.1235 -0.0742652 49.6758 -0.0732302 50.2282 -0.0713027C50.3877 -0.0729095 50.5472 -0.0745164 50.7115 -0.0761719C52.3143 -0.062697 53.4516 0.43429 54.609 1.53709C55.613 2.67993 55.834 3.86152 55.8273 5.34128C55.8273 5.46426 55.8273 5.58724 55.8273 5.71394C55.8272 6.11896 55.8261 6.52396 55.825 6.92897C55.8247 7.21037 55.8245 7.49176 55.8243 7.77316C55.8238 8.5127 55.8223 9.25225 55.8207 9.99179C55.8189 10.8797 55.8183 11.7676 55.8174 12.6555C55.816 14.0035 55.8132 15.3514 55.8106 16.6994C53.8771 16.6994 51.9435 16.6994 49.9513 16.6994C49.9055 14.2 49.9055 14.2 49.8944 13.4172C49.8897 13.2095 49.8848 13.0018 49.8797 12.7941C49.8784 12.6359 49.8784 12.6359 49.877 12.4745C49.8562 11.7335 49.7313 11.1978 49.3653 10.547C48.7005 9.99096 48.0288 10.0462 47.205 10.0527C47.0602 10.0522 46.9154 10.0516 46.7663 10.051C46.2807 10.0496 45.7952 10.0513 45.3096 10.053C44.9617 10.0527 44.6137 10.0521 44.2658 10.0514C43.4185 10.0502 42.5713 10.051 41.724 10.0528C40.7372 10.0548 39.7503 10.0545 38.7635 10.0542C37.0024 10.0537 35.2414 10.0555 33.4804 10.0583C31.772 10.0611 30.0637 10.0621 28.3553 10.0613C26.4947 10.0604 24.6342 10.0605 22.7736 10.0621C22.5751 10.0623 22.3767 10.0625 22.1782 10.0627C22.0318 10.0628 22.0318 10.0628 21.8823 10.0629C21.1946 10.0635 20.507 10.0634 19.8193 10.0632C18.8934 10.0629 17.9675 10.0641 17.0416 10.0664C16.7015 10.067 16.3615 10.0671 16.0215 10.0667C15.5577 10.0663 15.094 10.0676 14.6303 10.0694C14.4954 10.0688 14.3605 10.0683 14.2215 10.0677C13.2287 10.0707 13.2287 10.0707 12.3048 10.4005C12.0447 11.0139 11.9752 11.542 11.975 12.2041C11.9738 12.48 11.9738 12.48 11.9726 12.7613C11.9733 12.9643 11.9739 13.1672 11.9746 13.3701C11.9743 13.5865 11.9738 13.803 11.9732 14.0194C11.972 14.6137 11.9726 15.2079 11.9735 15.8021C11.9742 16.4432 11.9732 17.0842 11.9724 17.7253C11.9711 18.9809 11.9713 20.2366 11.9722 21.4922C11.9728 22.5126 11.9729 23.533 11.9726 24.5534C11.9726 24.6986 11.9725 24.8437 11.9725 24.9933C11.9724 25.2882 11.9723 25.5831 11.9722 25.878C11.9714 28.644 11.9723 31.4099 11.9739 34.1759C11.9752 36.5497 11.975 38.9236 11.9736 41.2974C11.9721 44.0534 11.9714 46.8094 11.9723 49.5654C11.9724 49.8593 11.9725 50.1531 11.9726 50.4469C11.9727 50.5915 11.9727 50.736 11.9728 50.885C11.973 51.9043 11.9726 52.9236 11.9719 53.9429C11.9711 55.1848 11.9713 56.4268 11.9729 57.6688C11.9736 58.3026 11.9739 58.9364 11.973 59.5702C11.9721 60.1503 11.9726 60.7304 11.9741 61.3105C11.9744 61.5204 11.9743 61.7304 11.9736 61.9403C11.9727 62.2256 11.9738 62.5109 11.975 62.7962C11.975 63.0339 11.975 63.0339 11.9751 63.2764C12.0153 63.7627 12.1144 64.1508 12.3048 64.5998C13.0267 64.9909 13.829 64.9342 14.6303 64.9309C14.8477 64.9318 14.8477 64.9318 15.0696 64.9326C15.5551 64.9341 16.0405 64.9335 16.526 64.933C16.8742 64.9336 17.2224 64.9344 17.5706 64.9352C18.4178 64.937 19.2651 64.9374 20.1124 64.937C20.801 64.9368 21.4896 64.937 22.1782 64.9376C22.3253 64.9378 22.3253 64.9378 22.4754 64.9379C22.6746 64.9381 22.8738 64.9382 23.073 64.9384C24.9401 64.94 26.8073 64.9397 28.6745 64.9388C30.3828 64.9381 32.091 64.9397 33.7993 64.9425C35.5538 64.9453 37.3083 64.9465 39.0627 64.946C40.0476 64.9457 41.0324 64.9461 42.0173 64.9481C42.943 64.95 43.8686 64.9497 44.7943 64.9478C45.1344 64.9474 45.4745 64.9479 45.8145 64.9491C46.278 64.9506 46.7415 64.9494 47.205 64.9475C47.3402 64.9486 47.4754 64.9497 47.6147 64.9508C48.3149 64.9449 48.8041 64.921 49.3653 64.4533C49.8377 63.6396 49.8696 62.9199 49.8681 61.9937C49.8696 61.8535 49.8711 61.7134 49.8727 61.5689C49.8771 61.1084 49.8784 60.648 49.8797 60.1875C49.8822 59.8671 49.8849 59.5467 49.8877 59.2263C49.8947 58.3852 49.899 57.544 49.9029 56.7028C49.9072 55.8436 49.9141 54.9844 49.9207 54.1253C49.9333 52.441 49.9429 50.7567 49.9513 49.0724C51.8849 49.0724 53.8185 49.0724 55.8106 49.0724C55.8206 51.8929 55.8287 54.7134 55.8334 57.5339C55.8357 58.8436 55.8388 60.1532 55.8438 61.4629C55.8482 62.6049 55.851 63.7468 55.852 64.8888C55.8526 65.4931 55.8539 66.0973 55.8571 66.7016C55.8601 67.2713 55.861 67.8409 55.8604 68.4106C55.8605 68.6188 55.8613 68.827 55.863 69.0352C55.8775 70.9019 55.666 72.3035 54.3458 73.6818C53.1057 74.8177 51.9091 75.066 50.2694 75.0569C50.011 75.0581 50.011 75.0581 49.7474 75.0593C49.2719 75.0611 48.7964 75.0608 48.3209 75.0597C47.807 75.0591 47.2931 75.0609 46.7793 75.0624C45.7736 75.0649 44.7679 75.065 43.7621 75.0642C42.9444 75.0637 42.1267 75.0639 41.309 75.0647C41.1925 75.0648 41.076 75.0649 40.9559 75.065C40.7192 75.0652 40.4825 75.0654 40.2458 75.0657C38.0274 75.0677 35.809 75.0669 33.5905 75.0652C31.5626 75.0637 29.5347 75.0656 27.5067 75.0691C25.4227 75.0727 23.3386 75.0741 21.2545 75.0731C20.0852 75.0726 18.9159 75.073 17.7466 75.0755C16.7511 75.0777 15.7556 75.0778 14.7602 75.0752C14.2527 75.074 13.7452 75.0737 13.2377 75.0759C12.6866 75.0778 12.1355 75.0762 11.5844 75.0736C11.4253 75.075 11.2663 75.0764 11.1024 75.0778C9.65737 75.0639 8.50567 74.6817 7.44449 73.6806C6.44403 72.5857 5.95975 71.5279 5.96828 70.0352C5.96776 69.9208 5.96725 69.8065 5.96672 69.6887C5.96536 69.305 5.96608 68.9213 5.96679 68.5376C5.96624 68.2599 5.96557 67.9823 5.96478 67.7046C5.96298 66.9412 5.96303 66.1777 5.96337 65.4143C5.96343 64.5911 5.96181 63.7679 5.96042 62.9446C5.95799 61.3316 5.95719 59.7186 5.95702 58.1056C5.95688 56.7945 5.95628 55.4835 5.95535 54.1725C5.95319 51.0611 5.95139 47.9497 5.95154 44.8384C5.95155 44.7389 5.95155 44.6394 5.95156 44.5369C5.95158 44.0325 5.95161 43.5282 5.95164 43.0239C5.95165 42.9238 5.95165 42.8236 5.95166 42.7204C5.95167 42.5179 5.95168 42.3153 5.95169 42.1128C5.95187 38.9618 5.94968 35.8109 5.94567 32.66C5.94117 29.1197 5.93865 25.5794 5.93892 22.039C5.93902 20.1646 5.93821 18.2902 5.93506 16.4158C5.93239 14.8199 5.93175 13.224 5.93374 11.628C5.9347 10.8138 5.93471 9.99956 5.93217 9.1853C5.92987 8.43965 5.93029 7.69405 5.93284 6.9484C5.93329 6.6789 5.93276 6.40939 5.93113 6.13989C5.91974 4.12564 6.11616 2.70875 7.55206 1.20177C8.43681 0.404651 9.35191 -0.0170654 10.5414 -0.0195167ZM24.6461 69.1316C24.3929 69.5476 24.3929 69.5476 24.3165 70.0197C24.537 70.6812 24.7226 71.1361 25.3419 71.4845C25.8426 71.6514 26.2304 71.6516 26.7586 71.6546C26.9066 71.6557 26.9066 71.6557 27.0576 71.6568C27.3838 71.659 27.7101 71.66 28.0364 71.6608C28.2636 71.6616 28.4907 71.6624 28.7179 71.6633C29.1943 71.6648 29.6707 71.6657 30.1472 71.6662C30.7565 71.667 31.3657 71.6705 31.975 71.6747C32.4444 71.6774 32.9138 71.6782 33.3831 71.6784C33.6077 71.6788 33.8322 71.68 34.0568 71.6819C34.3716 71.6845 34.6863 71.6842 35.0012 71.6832C35.2695 71.684 35.2695 71.684 35.5432 71.6848C36.2114 71.6117 36.7102 71.4026 37.1797 70.9169C37.4607 70.4139 37.5503 70.0604 37.3994 69.4978C37.0935 68.9297 36.7969 68.6134 36.1817 68.4083C35.8465 68.393 35.5109 68.3866 35.1753 68.3847C35.0227 68.3837 35.0227 68.3837 34.867 68.3825C34.5304 68.3804 34.194 68.3794 33.8574 68.3786C33.6234 68.3778 33.3893 68.3769 33.1552 68.3761C32.6644 68.3745 32.1735 68.3737 31.6827 68.3732C31.0543 68.3724 30.426 68.3688 29.7977 68.3647C29.3141 68.3619 28.8306 68.3612 28.347 68.3609C28.1154 68.3605 27.8837 68.3593 27.6521 68.3574C27.3278 68.3549 27.0036 68.3552 26.6792 68.3561C26.4948 68.3556 26.3104 68.3551 26.1204 68.3545C25.4666 68.427 25.0836 68.6473 24.6461 69.1316Z" fill="#DF2429"/>
<path d="M34.8885 19.8837C35.0894 19.8828 35.0894 19.8828 35.2943 19.882C35.7423 19.8805 36.1903 19.881 36.6383 19.8816C36.9598 19.881 37.2813 19.8802 37.6028 19.8794C38.4756 19.8774 39.3484 19.8773 40.2213 19.8777C40.9501 19.8778 41.6789 19.8771 42.4077 19.8764C44.2254 19.8747 46.0431 19.8748 47.8609 19.8758C49.4381 19.8765 51.0154 19.8749 52.5926 19.8721C54.2135 19.8693 55.8344 19.8681 57.4553 19.8686C58.3648 19.8689 59.2742 19.8685 60.1837 19.8664C61.039 19.8646 61.8944 19.8649 62.7497 19.8668C63.0634 19.8671 63.3771 19.8667 63.6907 19.8655C64.1194 19.864 64.5481 19.8652 64.9768 19.867C65.1004 19.866 65.2241 19.8649 65.3515 19.8638C66.2816 19.8722 67.0787 20.0391 67.8527 20.5925C67.9303 20.6733 68.0079 20.7541 68.0878 20.8374C68.1673 20.9167 68.2468 20.996 68.3287 21.0777C69.1091 22.1445 69.0578 23.1752 69.0534 24.4574C69.0542 24.6646 69.0552 24.8719 69.0564 25.0792C69.0591 25.64 69.0589 26.2008 69.0581 26.7617C69.0576 27.2309 69.0585 27.7001 69.0594 28.1693C69.0614 29.2768 69.0612 30.3843 69.0595 31.4918C69.0579 32.6321 69.0599 33.7722 69.0639 34.9124C69.0671 35.8935 69.0681 36.8746 69.0672 37.8557C69.0667 38.4407 69.0671 39.0257 69.0696 39.6107C69.0719 40.1611 69.0713 40.7115 69.0685 41.262C69.0677 41.5586 69.0698 41.8552 69.072 42.1518C69.0626 43.3185 68.9799 44.3591 68.1519 45.2449C67.3498 45.989 66.6121 46.1865 65.5267 46.1804C65.4147 46.1809 65.3026 46.1815 65.1872 46.182C64.8123 46.1835 64.4374 46.1829 64.0625 46.1823C63.7935 46.1829 63.5245 46.1837 63.2554 46.1846C62.6762 46.1863 62.0969 46.1871 61.5177 46.1872C60.601 46.1875 59.6843 46.1902 58.7676 46.1932C56.4902 46.2004 54.2128 46.2049 51.9353 46.208C50.1663 46.2105 48.3973 46.2138 46.6283 46.2202C45.7179 46.2234 44.8075 46.2246 43.8971 46.2242C43.3294 46.2245 42.7616 46.2266 42.1939 46.2291C41.9316 46.2299 41.6693 46.23 41.407 46.2293C39.4084 46.2242 37.7751 46.312 36.2784 47.782C36.1021 47.9633 35.9264 48.1453 35.7514 48.3278C35.5581 48.5256 35.3647 48.7233 35.1712 48.9209C34.8696 49.2307 34.5686 49.5411 34.2687 49.8526C33.9772 50.1547 33.6835 50.4544 33.3893 50.754C33.2561 50.8943 33.2561 50.8943 33.1202 51.0374C32.7202 51.442 32.4519 51.6819 31.9068 51.8694C31.3975 51.8522 31.2555 51.7871 30.9083 51.416C30.8495 51.0147 30.8291 50.6716 30.8339 50.2699C30.8329 50.152 30.832 50.034 30.8311 49.9124C30.8287 49.5156 30.8306 49.119 30.8324 48.7222C30.8317 48.4383 30.8306 48.1544 30.8293 47.8705C30.8267 47.0981 30.8277 46.3257 30.8296 45.5533C30.831 44.7453 30.8297 43.9372 30.8287 43.1292C30.8277 41.7712 30.8291 40.4133 30.8319 39.0554C30.8351 37.4863 30.834 35.9173 30.8308 34.3483C30.8281 33.0013 30.8278 31.6544 30.8293 30.3075C30.8302 29.503 30.8303 28.6985 30.8284 27.894C30.8267 27.1368 30.8279 26.3798 30.8313 25.6227C30.832 25.3451 30.8318 25.0676 30.8305 24.7901C30.8289 24.4104 30.8309 24.0308 30.8339 23.6512C30.8326 23.542 30.8312 23.4329 30.8299 23.3204C30.8439 22.3762 31.1607 21.6277 31.7769 20.9118C31.8709 20.8328 31.9649 20.7539 32.0618 20.6726C32.1551 20.5914 32.2484 20.5102 32.3445 20.4265C33.1528 19.8944 33.9553 19.8795 34.8885 19.8837ZM41.2138 29.5625C40.9204 30.0368 40.9378 30.3627 41.0157 30.9082C41.3608 31.3766 41.6282 31.5341 42.1876 31.6406C42.4049 31.654 42.6228 31.6603 42.8406 31.6612C43.0356 31.6624 43.0356 31.6624 43.2345 31.6637C43.3759 31.6639 43.5174 31.664 43.6632 31.6642C43.888 31.6653 43.888 31.6653 44.1174 31.6664C44.6134 31.6686 45.1093 31.6696 45.6053 31.6704C45.9502 31.6712 46.295 31.6721 46.6398 31.6729C47.363 31.6744 48.0862 31.6753 48.8094 31.6758C49.7355 31.6766 50.6615 31.6801 51.5875 31.6843C52.2999 31.687 53.0123 31.6878 53.7247 31.688C54.0661 31.6885 54.4074 31.6896 54.7488 31.6916C55.2267 31.6941 55.7045 31.6938 56.1824 31.6928C56.323 31.6942 56.4636 31.6955 56.6084 31.6969C57.4297 31.6918 58.0163 31.6001 58.7403 31.2012C58.9667 30.7483 58.9298 30.3817 58.8868 29.8828C58.7013 29.5297 58.7013 29.5297 58.3008 29.2969C57.7715 29.2078 57.2464 29.2169 56.7107 29.221C56.5487 29.22 56.3866 29.219 56.2197 29.2179C55.6835 29.2154 55.1475 29.2171 54.6113 29.219C54.2391 29.2186 53.8669 29.2181 53.4948 29.2173C52.7146 29.2165 51.9344 29.2177 51.1542 29.2205C50.2525 29.2237 49.3509 29.2226 48.4492 29.2194C47.5813 29.2164 46.7135 29.2167 45.8456 29.2185C45.4765 29.2188 45.1074 29.2184 44.7383 29.217C44.2227 29.2155 43.7073 29.2178 43.1918 29.221C43.0387 29.2199 42.8855 29.2187 42.7278 29.2174C41.921 29.2169 41.921 29.2169 41.2138 29.5625ZM41.0157 35.7422C40.8936 36.1816 40.8936 36.1816 41.0157 36.6211C41.315 37.0458 41.5531 37.3133 42.0753 37.421C42.4937 37.4481 42.9064 37.4507 43.3257 37.4459C43.4846 37.447 43.6436 37.448 43.8073 37.4491C44.3325 37.4516 44.8576 37.4488 45.3828 37.4456C45.7478 37.4457 46.1128 37.4461 46.4778 37.4467C47.3408 37.4472 48.2036 37.444 49.0665 37.4394C49.7543 37.436 50.442 37.436 51.1298 37.4379C52.0786 37.4406 53.0273 37.4404 53.976 37.4376C54.3377 37.4369 54.6993 37.4369 55.0609 37.4378C55.5663 37.4386 56.0715 37.4357 56.5768 37.4316C56.7264 37.4326 56.876 37.4336 57.0302 37.4345C57.6776 37.4258 58.0509 37.4165 58.6131 37.074C58.9071 36.7449 58.9868 36.6167 58.9783 36.1816C58.9802 36.0849 58.9821 35.9883 58.9841 35.8887C58.8243 35.4076 58.5864 35.273 58.1544 35.0098C57.629 34.9214 57.1086 34.9282 56.5768 34.9316C56.4178 34.9303 56.2589 34.9291 56.0951 34.9278C55.57 34.9245 55.0449 34.9255 54.5197 34.9268C54.1547 34.926 53.7897 34.9251 53.4246 34.924C52.5617 34.9223 51.6989 34.9237 50.836 34.9261C50.1482 34.9277 49.4604 34.926 48.7726 34.9223C47.8239 34.9173 46.8752 34.9159 45.9264 34.9174C45.5648 34.9176 45.2032 34.9166 44.8415 34.9144C44.3362 34.9119 43.831 34.914 43.3257 34.9173C43.1761 34.9156 43.0264 34.9139 42.8723 34.9121C42.0058 34.9238 41.5477 34.9871 41.0157 35.7422Z" fill="#DF2429"/>
</g>
<defs>
<clipPath id="clip0_82_6832">
<rect width="75" height="75" fill="white"/>
</clipPath>
</defs>
</svg>
