<svg width="15" height="16" viewBox="0 0 15 16" fill="none" xmlns="http://www.w3.org/2000/svg">
<g clip-path="url(#clip0_114_5699)">
<path d="M9.98086 1.3874C10.0535 1.45176 10.1246 1.51746 10.1952 1.58401C10.2147 1.60157 10.2341 1.61913 10.2541 1.63723C10.9573 2.29761 11.3016 3.27377 11.3415 4.2197C11.354 4.85575 11.2121 5.46931 10.9276 6.03714C10.9178 6.05681 10.908 6.07649 10.8979 6.09676C10.7471 6.39317 10.5687 6.64434 10.3417 6.88675C10.3269 6.9028 10.3121 6.91885 10.2968 6.93538C9.69319 7.58437 8.88102 8.00943 7.99794 8.11721C7.91977 8.11883 7.84177 8.11779 7.76357 8.11721C7.76377 8.17295 7.76377 8.17295 7.76398 8.22982C7.76715 9.11165 7.76957 9.99349 7.77105 10.8753C7.77123 10.9838 7.77142 11.0924 7.77162 11.2009C7.77167 11.2333 7.77167 11.2333 7.77173 11.2663C7.77237 11.6162 7.77352 11.9661 7.77487 12.316C7.77624 12.675 7.77705 13.034 7.77735 13.3929C7.77755 13.6145 7.77819 13.836 7.77938 14.0576C7.78024 14.2274 7.78033 14.3972 7.78014 14.567C7.78018 14.6367 7.78047 14.7065 7.78103 14.7762C7.78176 14.8712 7.78159 14.9662 7.78118 15.0612C7.78161 15.0889 7.78204 15.1167 7.78248 15.1452C7.78095 15.2792 7.77793 15.3352 7.693 15.4438C7.61972 15.4981 7.5892 15.5201 7.4999 15.5183C7.48117 15.5187 7.46243 15.5191 7.44313 15.5195C7.34257 15.4871 7.30108 15.4365 7.23623 15.3535C7.21478 15.2561 7.21708 15.1606 7.21861 15.0612C7.21848 15.0315 7.21836 15.0019 7.21823 14.9713C7.21799 14.8717 7.2188 14.7722 7.2196 14.6726C7.21964 14.6013 7.21961 14.53 7.21953 14.4587C7.2195 14.3051 7.21991 14.1515 7.22074 13.9979C7.22193 13.7758 7.22231 13.5538 7.22249 13.3317C7.22281 12.9714 7.22379 12.6111 7.22517 12.2508C7.22652 11.9008 7.22756 11.5508 7.22818 11.2009C7.22822 11.1793 7.22826 11.1577 7.2283 11.1355C7.22849 11.0272 7.22867 10.919 7.22885 10.8107C7.23037 9.9129 7.23296 9.01506 7.23623 8.11721C7.21805 8.11731 7.19987 8.1174 7.18113 8.1175C7.15733 8.11757 7.13352 8.11764 7.10899 8.11771C7.08537 8.1178 7.06175 8.1179 7.03742 8.11799C6.97015 8.11719 6.90749 8.11095 6.84152 8.09776C6.81967 8.09339 6.79782 8.08903 6.77531 8.08453C6.75279 8.0796 6.73026 8.07468 6.70705 8.06961C6.6829 8.06434 6.65875 8.05908 6.63387 8.05366C5.64175 7.82663 4.79853 7.21069 4.24794 6.3594C4.23193 6.33629 4.21592 6.31318 4.19942 6.28936C3.65607 5.46278 3.57463 4.40546 3.7499 3.45901C3.85548 2.95192 4.08619 2.46746 4.39443 2.05276C4.41203 2.02867 4.42963 2.00457 4.44776 1.97975C4.99022 1.26933 5.70999 0.830449 6.5624 0.587918C6.5988 0.577305 6.63521 0.566693 6.67272 0.55576C7.82514 0.282884 9.09118 0.628519 9.98086 1.3874ZM5.41066 2.69363C5.24374 2.93313 5.18603 3.20127 5.23305 3.49014C5.29566 3.75334 5.44045 3.9674 5.65419 4.13284C5.94248 4.29578 6.19452 4.35019 6.51479 4.26284C6.80748 4.16674 7.00793 3.99764 7.14833 3.72268C7.25811 3.45863 7.26933 3.21682 7.17855 2.94574C7.08104 2.71122 6.92993 2.53111 6.70888 2.40432C6.22964 2.20798 5.74518 2.27753 5.41066 2.69363Z" fill="#F9F9F9"/>
</g>
<defs>
<clipPath id="clip0_114_5699">
<rect width="15" height="15" fill="white" transform="translate(0 0.5)"/>
</clipPath>
</defs>
</svg>
