<svg width="70" height="70" viewBox="0 0 70 70" fill="none" xmlns="http://www.w3.org/2000/svg">
<g clip-path="url(#clip0_82_5171)">
<path d="M35.0001 3.87691e-05C35.5525 -0.0993133 35.7801 -0.0255062 36.2568 0.276147C36.4121 0.40136 36.5656 0.528787 36.7176 0.657998C36.8007 0.72585 36.8837 0.793702 36.9692 0.86361C37.2263 1.07481 37.4807 1.28884 37.7345 1.50394C37.8106 1.56816 37.8867 1.63238 37.9651 1.69854C38.2576 1.94559 38.5497 2.19306 38.8406 2.44202C39.3894 2.91021 39.9513 3.35898 40.5201 3.80253C40.6802 3.92802 40.8402 4.05352 41.0003 4.17904C41.2474 4.37224 41.4952 4.5646 41.7447 4.75475C42.3274 5.2172 42.6032 5.58021 42.7931 6.2891C42.5484 7.81809 40.3861 9.12779 39.2427 10.0494C38.6554 10.533 38.0841 11.0345 37.5143 11.5385C36.0594 12.8144 36.0594 12.8144 35.4359 12.9114C35.1368 12.8516 35.1368 12.8516 34.8634 12.5782C34.8324 12.2334 34.8324 12.2334 34.8367 11.8038C34.838 11.5738 34.838 11.5738 34.8394 11.3392C34.8428 11.0981 34.8428 11.0981 34.8463 10.8521C34.8475 10.6903 34.8488 10.5285 34.85 10.3618C34.8533 9.96125 34.8578 9.56074 34.8634 9.1602C31.7868 9.32916 28.7455 9.73332 25.84 10.8008C25.7345 10.8394 25.6291 10.878 25.5205 10.9177C21.7063 12.3343 18.5385 14.4361 15.5861 17.2266C15.4103 17.3913 15.4103 17.3913 15.2309 17.5593C14.2907 18.4668 13.4873 19.4571 12.715 20.5079C12.6579 20.5855 12.6008 20.6631 12.542 20.7431C9.77227 24.5708 7.97504 29.1986 7.51965 33.9063C7.50467 34.0607 7.48969 34.2151 7.47425 34.3741C6.8456 41.9179 9.25911 49.0918 14.0592 54.8915C14.4551 55.3495 14.875 55.7738 15.3126 56.1914C15.9962 56.875 15.9962 56.875 16.2045 57.1025C19.487 60.5857 24.391 62.7869 28.9845 63.8477C29.1561 63.8884 29.3278 63.9291 29.5047 63.9711C35.761 65.3004 42.5198 64.2737 48.1307 61.2232C49.0524 60.7223 49.8131 60.5085 50.8595 60.7032C51.5996 60.9494 52.064 61.4474 52.5001 62.0704C52.8251 62.7822 52.92 63.5178 52.6844 64.2685C52.0113 65.7821 50.4977 66.3326 49.0821 66.9922C48.9938 67.034 48.9054 67.0759 48.8143 67.1189C46.3251 68.2894 43.7143 69.0742 41.0157 69.5899C40.9023 69.6125 40.7889 69.635 40.672 69.6583C32.602 71.1984 23.5777 69.3008 16.7772 64.7313C15.4044 63.7848 14.0931 62.7732 12.8517 61.6602C12.7706 61.5875 12.6895 61.5148 12.6059 61.44C11.6751 60.601 10.7767 59.7593 9.98059 58.7891C9.88224 58.677 9.7839 58.5649 9.68258 58.4494C5.19942 53.2644 2.65788 46.832 1.91418 40.0586C1.8962 39.9099 1.87823 39.7611 1.85971 39.6079C1.21069 33.3984 2.66295 26.8004 5.60559 21.3282C5.65222 21.2396 5.69886 21.1511 5.74691 21.0599C6.84058 18.9908 8.17834 17.0839 9.70715 15.3125C9.79703 15.2075 9.88691 15.1025 9.97952 14.9942C11.4467 13.3222 13.0143 11.7431 14.8085 10.4238C15.0352 10.2569 15.2591 10.0866 15.483 9.91589C20.0387 6.49654 25.5474 4.50691 31.172 3.82816C31.3856 3.8012 31.3856 3.8012 31.6035 3.77369C32.642 3.66068 33.6836 3.67878 34.7267 3.69145C34.7252 3.59419 34.7238 3.49694 34.7223 3.39675C34.7167 2.95665 34.7131 2.51657 34.7096 2.07645C34.7073 1.92339 34.705 1.77033 34.7026 1.61263C34.7018 1.46591 34.7009 1.31919 34.7 1.16802C34.6985 1.0327 34.6971 0.897386 34.6956 0.757967C34.7267 0.410195 34.7267 0.410195 35.0001 3.87691e-05Z" fill="#DF2429"/>
<path d="M29.4768 16.6514C30.0062 16.6837 30.4551 16.8204 30.9497 16.9975C31.0498 17.0322 31.1499 17.0668 31.253 17.1025C31.4735 17.179 31.6938 17.256 31.9139 17.3335C32.4038 17.506 32.8946 17.6757 33.3854 17.8455C33.6576 17.9398 33.9299 18.0342 34.202 18.1288C35.8765 18.71 37.556 19.2762 39.2353 19.8435C40.1474 20.1517 41.0592 20.4607 41.9711 20.7696C42.0595 20.7995 42.148 20.8295 42.2391 20.8604C45.4486 21.9475 45.4486 21.9475 46.8468 22.4236C47.0719 22.5002 47.2971 22.5767 47.5223 22.653C48.7066 23.0547 49.8871 23.4665 51.0629 23.8928C51.1751 23.9329 51.2873 23.973 51.403 24.0143C51.5067 24.0523 51.6104 24.0903 51.7172 24.1294C51.8091 24.1627 51.901 24.1961 51.9957 24.2304C52.2266 24.336 52.2266 24.336 52.5 24.6095C52.4559 25.432 52.2432 26.1469 51.9617 26.9166C51.9255 27.0202 51.8892 27.1238 51.8519 27.2306C51.5792 27.9912 51.5792 27.9912 51.2695 28.3009C50.9737 28.3276 50.9737 28.3276 50.6372 28.318C50.5255 28.3155 50.4137 28.313 50.2986 28.3105C50.213 28.3073 50.1273 28.3041 50.0391 28.3009C49.9895 28.4511 49.94 28.6013 49.8889 28.7561C49.7025 29.3198 49.514 29.8827 49.3248 30.4454C49.2436 30.6879 49.163 30.9305 49.083 31.1734C47.9031 34.7513 47.9031 34.7513 46.3477 35.8204C45.4061 36.2847 44.4118 36.5282 43.3911 36.7497C43.245 36.7823 43.0989 36.8149 42.9483 36.8485C42.6424 36.9165 42.3363 36.9841 42.0301 37.0511C41.5598 37.154 41.0898 37.2585 40.6199 37.3633C40.3217 37.4294 40.0235 37.4955 39.7253 37.5614C39.5845 37.5926 39.4437 37.6238 39.2986 37.6559C39.1689 37.6843 39.0392 37.7126 38.9056 37.7418C38.7913 37.7669 38.677 37.7919 38.5593 37.8178C38.2812 37.8712 38.2812 37.8712 38.0078 37.8712C37.785 38.3389 37.6918 38.7193 37.7344 39.2384C38.1035 39.8238 38.5556 40.3029 39.0346 40.7999C39.3257 41.1083 39.5889 41.4365 39.8535 41.7677C40.2409 42.2445 40.6344 42.7148 41.0346 43.1808C41.3506 43.5501 41.6622 43.923 41.9727 44.297C42.1355 44.4921 42.1355 44.4921 42.3016 44.6911C42.9628 45.5319 43.3239 46.2252 43.3398 47.3048C43.1342 48.7655 42.6428 50.1424 42.1521 51.526C42.0814 51.728 42.0108 51.93 41.9403 52.1321C41.77 52.6198 41.5983 53.1069 41.4258 53.5938C41.5555 53.6249 41.6852 53.6559 41.8188 53.6878C42.2461 53.8673 42.2461 53.8673 42.4446 54.1836C42.5313 54.6085 42.4905 54.8232 42.3513 55.2313C42.3091 55.3567 42.2669 55.4822 42.2234 55.6115C42.1773 55.7409 42.1312 55.8702 42.0837 56.0035C42.0186 56.1991 42.0186 56.1991 41.9521 56.3987C41.543 57.5866 41.543 57.5866 41.1523 57.8321C40.5094 57.7714 39.932 57.6294 39.3222 57.4216C39.0699 57.3363 39.0699 57.3363 38.8126 57.2494C38.6301 57.1867 38.4477 57.1241 38.2652 57.0615C38.0736 56.9963 37.8818 56.9313 37.6901 56.8663C37.1782 56.6926 36.6667 56.5178 36.1552 56.3428C35.6224 56.1607 35.0892 55.9796 34.556 55.7984C33.5175 55.4452 32.4794 55.0909 31.4413 54.7363C30.72 54.4899 29.9985 54.244 29.277 53.9981C28.62 53.7741 27.963 53.5499 27.3063 53.3247C26.1835 52.9397 25.0597 52.5578 23.9344 52.1801C23.2985 51.9666 22.6628 51.7524 22.0271 51.5382C21.7176 51.4341 21.4078 51.3303 21.098 51.227C20.6679 51.0835 20.2383 50.9388 19.8087 50.7938C19.6798 50.7511 19.551 50.7085 19.4182 50.6646C19.2992 50.6242 19.1802 50.5838 19.0577 50.5421C18.9544 50.5075 18.851 50.4729 18.7446 50.4373C18.4253 50.2988 18.18 50.1206 17.9102 49.9024C17.9857 49.0799 18.1653 48.3695 18.4485 47.5953C18.4847 47.4917 18.5209 47.388 18.5582 47.2813C18.8309 46.5207 18.8309 46.5207 19.1406 46.211C19.5558 46.2155 19.9605 46.2891 20.3711 46.3477C20.3939 46.2592 20.4166 46.1707 20.4401 46.0794C20.7054 45.0748 21.0226 44.0964 21.3708 43.1178C21.4208 42.9718 21.4708 42.8259 21.5223 42.6756C22.0156 41.2883 22.6967 39.9043 24.0823 39.233C24.9557 38.8804 25.8262 38.6453 26.7456 38.4458C26.8917 38.4132 27.0378 38.3806 27.1884 38.347C27.4943 38.2789 27.8004 38.2114 28.1066 38.1444C28.5769 38.0415 29.0469 37.937 29.5168 37.8322C29.815 37.7661 30.1132 37.7 30.4114 37.6341C30.5522 37.6029 30.6931 37.5717 30.8382 37.5396C31.0327 37.4971 31.0327 37.4971 31.2312 37.4537C31.3454 37.4286 31.4597 37.4035 31.5775 37.3777C31.8555 37.3243 31.8555 37.3243 32.1289 37.3243C32.3228 36.8611 32.4213 36.4613 32.4023 35.9571C32.1239 35.4589 31.7566 35.0672 31.3629 34.6564C31.0331 34.3056 30.7285 33.9338 30.4199 33.5645C30.2922 33.4137 30.1644 33.2629 30.0365 33.1122C29.2575 32.1913 28.4942 31.2593 27.7625 30.3004C27.6625 30.1696 27.5626 30.0388 27.4596 29.9041C26.8333 28.9799 26.7872 28.0229 26.9336 26.9337C27.1243 26.0744 27.4324 25.2488 27.7283 24.4215C27.8041 24.2024 27.8797 23.9833 27.955 23.764C28.2844 22.8101 28.6279 21.8623 28.9844 20.9181C28.7898 20.8631 28.7898 20.8631 28.5913 20.807C28.1641 20.6446 28.1641 20.6446 27.8906 20.2345C28.0043 19.3958 28.5211 16.7277 29.4768 16.6514ZM31.1719 21.7384C30.8974 22.5185 30.6249 23.2993 30.3541 24.0807C30.2618 24.3462 30.169 24.6116 30.0756 24.8767C29.9412 25.2587 29.8087 25.6414 29.6765 26.0242C29.6346 26.1419 29.5928 26.2595 29.5496 26.3808C29.1759 27.4701 29.1759 27.4701 29.3844 28.5711C29.4782 28.6827 29.4782 28.6827 29.574 28.7965C29.6487 28.8876 29.7234 28.9787 29.8004 29.0726C29.8921 29.1789 29.9837 29.2851 30.0781 29.3946C30.2494 29.5984 30.2494 29.5984 30.4242 29.8064C30.6818 30.1127 30.9409 30.4178 31.2007 30.7223C31.5356 31.1156 31.8633 31.5142 32.1887 31.9154C32.533 32.3393 32.8818 32.7581 33.2392 33.1709C33.3497 33.2986 33.3497 33.2986 33.4625 33.4289C33.6066 33.595 33.7512 33.7606 33.8963 33.9258C34.8568 35.0316 34.8568 35.0316 34.8706 35.5443C34.8047 36.3222 34.5907 37.049 34.342 37.7857C34.3081 37.8941 34.2742 38.0025 34.2392 38.1142C34.2046 38.2183 34.17 38.3225 34.1343 38.4298C34.1037 38.5229 34.073 38.616 34.0415 38.712C33.8108 39.1436 33.4808 39.3364 33.0207 39.483C32.894 39.5096 32.7674 39.5362 32.6369 39.5636C32.4206 39.6101 32.4206 39.6101 32.1998 39.6577C32.0446 39.6897 31.8894 39.7218 31.7294 39.7548C31.4887 39.8066 31.4887 39.8066 31.2431 39.8595C30.5569 40.0071 29.8701 40.1515 29.1833 40.296C28.6817 40.4021 28.1804 40.5099 27.6791 40.6178C27.525 40.6496 27.3709 40.6814 27.2121 40.7141C25.9653 40.983 24.9511 41.2786 24.1992 42.3829C24.0459 42.7193 23.9162 43.0353 23.7976 43.3827C23.7643 43.4759 23.7309 43.5692 23.6966 43.6652C23.6261 43.8632 23.5563 44.0615 23.4873 44.26C23.3752 44.581 23.2602 44.9007 23.1445 45.2203C23.0687 45.4309 22.993 45.6415 22.9175 45.8521C22.8815 45.9521 22.8456 46.0521 22.8086 46.1551C22.6231 46.6494 22.6231 46.6494 22.5586 47.1681C26.2581 48.4771 29.9715 49.7448 33.689 51.0017C34.0525 51.1247 34.416 51.2478 34.7794 51.371C35.3579 51.567 35.9365 51.7625 36.5153 51.9578C36.732 52.0309 36.9487 52.1042 37.1654 52.1777C37.4637 52.2788 37.7622 52.3793 38.0607 52.4798C38.2294 52.5367 38.3981 52.5937 38.5719 52.6524C38.9399 52.7869 38.9399 52.7869 39.2383 52.7735C39.4741 52.0933 39.7076 51.4124 39.9392 50.7308C40.0182 50.4993 40.0978 50.268 40.178 50.037C40.2936 49.7036 40.407 49.3694 40.52 49.0351C40.5559 48.9331 40.5918 48.8311 40.6288 48.726C40.8565 48.0433 40.9369 47.4784 40.8789 46.7579C40.6612 46.4206 40.4759 46.1784 40.2039 45.8949C40.0643 45.7403 39.925 45.5856 39.7857 45.4308C39.7159 45.3549 39.6462 45.279 39.5743 45.2008C39.2901 44.8867 39.0252 44.5585 38.7598 44.2286C38.373 43.7534 37.9821 43.2823 37.5856 42.8153C37.4575 42.6645 37.3297 42.5133 37.2023 42.362C36.898 42.0007 36.5913 41.6427 36.2764 41.2907C36.1654 41.1633 36.0543 41.0359 35.9399 40.9046C35.7914 40.7383 35.7914 40.7383 35.6398 40.5687C35.2718 39.9705 35.2007 39.4415 35.3451 38.7666C35.4534 38.4052 35.5773 38.0538 35.7092 37.7003C35.7509 37.5794 35.7926 37.4585 35.8355 37.3339C36.066 36.6943 36.2526 36.2724 36.7773 35.8204C37.1334 35.6908 37.1334 35.6908 37.5418 35.6038C37.6951 35.5701 37.8484 35.5363 38.0064 35.5015C38.1715 35.4671 38.3366 35.4328 38.5066 35.3974C38.6769 35.36 38.8471 35.3227 39.0225 35.2842C39.5669 35.1648 40.1117 35.0479 40.6567 34.9317C41.2008 34.8155 41.7446 34.6984 42.288 34.5793C42.6261 34.5052 42.9645 34.4327 43.3032 34.362C44.4093 34.1197 45.1992 33.8365 45.9222 32.9139C46.2096 32.464 46.3683 31.9734 46.5346 31.4689C46.5734 31.3554 46.6122 31.2419 46.6522 31.1249C46.7332 30.8867 46.8133 30.6481 46.8927 30.4093C47.0147 30.0425 47.1397 29.6769 47.2652 29.3113C47.3437 29.0792 47.422 28.8471 47.5002 28.6149C47.5376 28.5052 47.575 28.3956 47.6136 28.2826C47.8318 27.7424 47.8318 27.7424 47.7148 27.2071C47.3288 27.0587 46.946 26.9257 46.5527 26.7991C46.4316 26.7592 46.3105 26.7192 46.1857 26.6781C45.9225 26.5915 45.6592 26.5053 45.3957 26.4195C44.6907 26.1899 43.9868 25.9569 43.2827 25.7246C43.1386 25.6771 42.9944 25.6297 42.8459 25.5808C41.4435 25.1186 40.0456 24.6436 38.6487 24.1651C38.4183 24.0864 38.1879 24.0076 37.9575 23.9289C36.9609 23.5879 35.9647 23.2455 34.9697 22.8997C34.558 22.7567 34.1462 22.614 33.7344 22.4713C33.4522 22.3732 33.1702 22.2745 32.8882 22.1756C32.7211 22.1177 32.5541 22.0597 32.382 22.0001C32.2366 21.9492 32.0911 21.8984 31.9413 21.846C31.5791 21.7187 31.5791 21.7187 31.1719 21.7384Z" fill="#DF2429"/>
<path d="M59.2951 54.2913C59.9383 54.6895 60.4983 55.1668 60.7029 55.918C60.8277 56.8564 60.8516 57.7206 60.2682 58.5007C60.1861 58.5959 60.1039 58.6911 60.0193 58.7891C59.9034 58.9266 59.7874 59.064 59.6679 59.2057C59.5378 59.355 59.4071 59.5038 59.2759 59.6522C59.2138 59.7227 59.1517 59.7933 59.0878 59.8661C58.4735 60.5324 57.8159 60.905 56.9031 60.9836C56.1686 60.9667 55.518 60.7991 54.9442 60.3288C54.3542 59.6971 54.01 59.1032 54.0005 58.2161C54.0764 57.0351 54.7093 56.2416 55.4905 55.4053C55.5939 55.2898 55.5939 55.2898 55.6993 55.1719C56.6586 54.1341 57.9348 53.7369 59.2951 54.2913Z" fill="#DF2429"/>
<path d="M64.7278 45.4845C65.5066 45.9423 65.8143 46.5379 66.1147 47.3628C66.3264 48.6664 65.6831 50.1496 64.9766 51.2203C64.4465 51.8565 63.9389 52.3022 63.0903 52.4054C62.2199 52.4449 61.5532 52.3302 60.8398 51.8163C60.2243 51.234 59.94 50.4607 59.8545 49.6261C59.8844 48.8824 60.1774 48.2205 60.4639 47.5438C60.5228 47.4032 60.5228 47.4032 60.5829 47.2597C60.9447 46.4513 61.4668 45.884 62.207 45.3905C63.0248 45.1179 63.9398 45.1172 64.7278 45.4845Z" fill="#DF2429"/>
<path d="M65.3124 25.0276C66.5326 25.7768 66.8045 26.9208 67.1608 28.2458C67.3733 29.1903 67.3889 29.9255 66.8986 30.7815C66.4147 31.4636 65.9059 31.8617 65.0865 32.0606C64.2362 32.187 63.6438 32.017 62.8648 31.6504C61.8695 30.7657 61.5105 29.2929 61.2498 28.0274C61.2144 27.2527 61.2612 26.647 61.66 25.9766C62.6448 24.9118 63.8912 24.4734 65.3124 25.0276Z" fill="#DF2429"/>
<path d="M66.6035 35.2313C67.2959 35.5943 67.7866 36.1437 68.1063 36.8517C68.2654 37.4974 68.2337 38.0909 68.1971 38.7513C68.1928 38.8765 68.1885 39.0017 68.184 39.1307C68.1263 40.2967 67.8409 41.1241 66.9923 41.9727C66.2699 42.3895 65.6205 42.4899 64.8048 42.3829C64.0154 42.1198 63.4065 41.7722 62.9249 41.0841C62.3424 39.9191 62.5449 38.3011 62.754 37.0509C63.0454 36.264 63.5189 35.7796 64.1981 35.2992C64.9695 35.0327 65.8172 34.9792 66.6035 35.2313Z" fill="#DF2429"/>
<path d="M61.0759 16.2508C61.984 17.1043 62.8591 18.3574 63.0866 19.6015C63.0883 20.4693 62.8892 21.171 62.2807 21.812C61.4993 22.4903 60.9055 22.6317 59.8871 22.6083C58.926 22.4931 58.4079 21.9447 57.8064 21.2256C57.027 20.1991 56.3779 19.2357 56.4649 17.9102C56.6521 16.9571 57.1743 16.393 57.9688 15.8594C59.0772 15.3757 60.1119 15.5523 61.0759 16.2508Z" fill="#DF2429"/>
<path d="M51.5855 8.57904C51.7327 8.57375 51.7327 8.57375 51.883 8.56836C52.7532 8.68205 53.4602 9.17316 54.1575 9.67279C54.2388 9.72813 54.32 9.78347 54.4037 9.84048C55.0855 10.3251 55.6342 10.8858 55.8921 11.6969C55.9693 12.652 55.8984 13.4554 55.2844 14.2251C54.6242 14.8719 53.9682 15.1402 53.0467 15.1757C51.6291 15.0182 50.3218 13.9973 49.3553 12.9882C48.8064 12.2507 48.8599 11.41 48.9451 10.5273C49.1835 9.73767 49.7838 9.2134 50.449 8.74994C50.8272 8.61965 51.1867 8.58754 51.5855 8.57904Z" fill="#DF2429"/>
</g>
<defs>
<clipPath id="clip0_82_5171">
<rect width="70" height="70" fill="white"/>
</clipPath>
</defs>
</svg>
