<svg width="20" height="21" viewBox="0 0 20 21" fill="none" xmlns="http://www.w3.org/2000/svg">
<g clip-path="url(#clip0_1_465)">
<path d="M12.4517 0.994072C12.5048 0.99389 12.5578 0.993694 12.6109 0.993484C12.7539 0.992976 12.8969 0.99272 13.04 0.992546C13.1296 0.992431 13.2193 0.99227 13.3089 0.992097C13.5904 0.991564 13.8718 0.991186 14.1533 0.991034C14.4765 0.990859 14.7997 0.990174 15.1229 0.989042C15.374 0.988194 15.625 0.987803 15.876 0.987751C16.0254 0.987711 16.1748 0.987486 16.3241 0.986782C16.4648 0.986132 16.6055 0.986057 16.7462 0.986397C16.8215 0.98644 16.8968 0.98591 16.9721 0.985352C17.6824 0.988696 18.2953 1.17548 18.8123 1.67725C19.3075 2.22713 19.4265 2.85075 19.4242 3.56891C19.4243 3.62145 19.4244 3.67399 19.4246 3.72654C19.4249 3.86803 19.4248 4.00952 19.4246 4.15101C19.4244 4.30008 19.4245 4.44915 19.4247 4.59822C19.4248 4.84865 19.4246 5.09908 19.4242 5.34951C19.4238 5.63746 19.424 5.9254 19.4244 6.21334C19.4247 6.46196 19.4248 6.71059 19.4246 6.95921C19.4245 7.10707 19.4244 7.25494 19.4247 7.4028C19.4269 8.86061 19.4269 8.86061 19.2383 9.4696C19.2234 9.51801 19.2234 9.51801 19.2083 9.5674C19.0284 10.1204 18.7481 10.6088 18.3594 11.0394C18.3366 11.0656 18.3139 11.0917 18.2905 11.1186C17.9764 11.4762 17.6353 11.808 17.2987 12.1442C17.2268 12.2162 17.1549 12.2881 17.083 12.3601C16.9088 12.5345 16.7344 12.7089 16.56 12.8831C16.4182 13.0249 16.2764 13.1666 16.1347 13.3084C16.1144 13.3287 16.0942 13.3489 16.0733 13.3698C16.0322 13.4109 15.991 13.4521 15.9499 13.4932C15.5651 13.8782 15.1802 14.263 14.7952 14.6478C14.4653 14.9774 14.1356 15.3072 13.8059 15.637C13.4223 16.0209 13.0386 16.4046 12.6549 16.7883C12.6139 16.8292 12.5729 16.8702 12.532 16.9111C12.5118 16.9313 12.4917 16.9514 12.4709 16.9722C12.3294 17.1137 12.1879 17.2552 12.0464 17.3968C11.8558 17.5875 11.6651 17.7781 11.4744 17.9686C11.4045 18.0385 11.3346 18.1083 11.2648 18.1782C11.1693 18.2738 11.0737 18.3693 10.9781 18.4648C10.9507 18.4923 10.9232 18.5198 10.895 18.5481C10.7408 18.7017 10.5825 18.8482 10.4172 18.9898C10.3398 19.0575 10.2698 19.1303 10.2002 19.2059C9.82583 19.5832 9.3064 19.7898 8.7781 19.7989C7.85358 19.8021 7.31468 19.3713 6.68419 18.7459C6.6036 18.6657 6.52311 18.5855 6.44261 18.5052C6.38412 18.447 6.32563 18.3888 6.26713 18.3307C6.07639 18.141 5.88585 17.951 5.69534 17.7611C5.62945 17.6954 5.56355 17.6297 5.49765 17.564C5.22355 17.2908 4.9495 17.0174 4.67559 16.744C4.28436 16.3534 3.8928 15.9631 3.50077 15.5733C3.22431 15.2984 2.94823 15.023 2.67242 14.7474C2.50802 14.5832 2.34346 14.4191 2.17849 14.2554C2.02336 14.1014 1.8687 13.947 1.71438 13.7922C1.65792 13.7358 1.60128 13.6795 1.54446 13.6233C0.994864 13.08 0.613972 12.5437 0.60791 11.7377C0.626509 10.5692 1.48643 9.89873 2.25325 9.13083C2.33018 9.05367 2.4071 8.97648 2.48401 8.89929C2.71323 8.66931 2.94262 8.43951 3.17205 8.20974C3.25872 8.12293 3.34537 8.03612 3.43202 7.9493C3.81492 7.56569 4.19786 7.18212 4.58097 6.79872C4.67429 6.70532 4.76761 6.61192 4.86094 6.51853C4.88412 6.49532 4.90731 6.47211 4.93121 6.4482C5.30719 6.07188 5.68285 5.69524 6.05837 5.31845C6.44521 4.93032 6.83234 4.54248 7.21977 4.15493C7.43677 3.93784 7.65365 3.72063 7.87019 3.50308C8.05446 3.31796 8.239 3.13312 8.42388 2.94861C8.51798 2.85469 8.61191 2.76061 8.70558 2.66626C9.16926 2.19941 9.62928 1.74211 10.2319 1.45691C10.2576 1.44444 10.2833 1.43197 10.3097 1.41912C11.0012 1.09228 11.6937 0.994749 12.4517 0.994072ZM10.8911 2.81921C10.8679 2.82981 10.8446 2.84041 10.8207 2.85133C10.2546 3.13408 9.78557 3.74805 9.34508 4.18867C9.26787 4.26579 9.19062 4.34288 9.11338 4.41997C8.92642 4.60661 8.73957 4.79335 8.55276 4.98014C8.40095 5.13193 8.24911 5.28369 8.09725 5.43543C7.66604 5.8663 7.23491 6.29725 6.80388 6.7283C6.76915 6.76304 6.76915 6.76304 6.73371 6.79848C6.69894 6.83326 6.69894 6.83326 6.66346 6.86874C6.28672 7.24549 5.90979 7.62205 5.53277 7.99852C5.14501 8.38572 4.75738 8.77307 4.36992 9.16057C4.15262 9.37788 3.93527 9.59512 3.71777 9.81221C3.53287 9.99675 3.34811 10.1814 3.16352 10.3663C3.06938 10.4605 2.97518 10.5547 2.8808 10.6488C2.77857 10.7507 2.67657 10.8529 2.57464 10.9551C2.54475 10.9848 2.51486 11.0145 2.48407 11.0451C2.30077 11.2296 2.14345 11.3889 2.11182 11.6571C2.10744 11.688 2.10305 11.7188 2.09854 11.7506C2.13362 12.1039 2.40605 12.3339 2.64478 12.5685C2.68365 12.6073 2.72248 12.6461 2.76128 12.6849C2.86618 12.7897 2.97156 12.894 3.07702 12.9982C3.18771 13.1078 3.29794 13.2178 3.40821 13.3278C3.61717 13.536 3.8265 13.7439 4.03599 13.9516C4.34281 14.2559 4.64915 14.5607 4.95539 14.8656C4.97794 14.888 5.00049 14.9105 5.02372 14.9336C5.06871 14.9784 5.11371 15.0232 5.1587 15.068C5.28975 15.1985 5.42094 15.3288 5.55225 15.459C5.63422 15.5403 5.71611 15.6216 5.79799 15.703C5.85354 15.7582 5.9092 15.8133 5.96486 15.8684C6.13851 16.0411 6.306 16.2162 6.46553 16.4021C6.54024 16.4886 6.61883 16.5706 6.69888 16.6521C6.73045 16.6843 6.76202 16.7165 6.79454 16.7497C6.93737 16.8942 7.08029 17.0388 7.22356 17.1829C7.29887 17.2587 7.37389 17.3349 7.44866 17.4112C7.55743 17.5223 7.667 17.6326 7.77664 17.7428C7.80965 17.7767 7.84267 17.8106 7.87668 17.8455C8.09153 18.0596 8.33118 18.277 8.64435 18.3163C9.04168 18.2987 9.33794 17.9687 9.60077 17.7035C9.63342 17.6711 9.66607 17.6386 9.69971 17.6052C9.78946 17.5158 9.87894 17.4262 9.96831 17.3364C10.0651 17.2394 10.1622 17.1427 10.2592 17.046C10.449 16.8567 10.6385 16.6671 10.8278 16.4775C10.9818 16.3232 11.1359 16.1691 11.2901 16.015C11.3231 15.9821 11.3231 15.9821 11.3567 15.9484C11.4014 15.9038 11.4461 15.8591 11.4908 15.8145C11.9092 15.3964 12.3273 14.9779 12.7453 14.5593C13.1035 14.2006 13.4619 13.8422 13.8206 13.4841C14.2377 13.0676 14.6547 12.6509 15.0713 12.2339C15.1158 12.1894 15.1602 12.1449 15.2047 12.1004C15.2266 12.0785 15.2485 12.0566 15.271 12.034C15.4248 11.8802 15.5787 11.7264 15.7326 11.5728C15.9204 11.3853 16.108 11.1976 16.2953 11.0097C16.3908 10.9139 16.4863 10.8183 16.5821 10.7229C16.6862 10.6191 16.7899 10.515 16.8935 10.4108C16.9235 10.3811 16.9535 10.3514 16.9843 10.3208C17.8254 9.47056 17.9156 8.53928 17.9129 7.40534C17.9127 7.28359 17.913 7.16185 17.9133 7.0401C17.9139 6.75294 17.9138 6.46579 17.9131 6.17863C17.9125 5.88323 17.9131 5.58786 17.9144 5.29247C17.9154 5.03761 17.9157 4.78275 17.9154 4.52789C17.9152 4.37619 17.9152 4.22451 17.9161 4.07281C17.9168 3.93044 17.9165 3.7881 17.9156 3.64572C17.9153 3.569 17.916 3.49228 17.9167 3.41557C17.9137 3.13578 17.8949 2.9265 17.6953 2.71912C17.4489 2.48137 17.1698 2.49618 16.8439 2.49915C16.7897 2.49895 16.7356 2.49867 16.6815 2.4983C16.5351 2.49758 16.3888 2.49808 16.2425 2.49885C16.0886 2.4995 15.9347 2.49915 15.7808 2.49895C15.5222 2.49877 15.2635 2.49939 15.0049 2.50049C14.7072 2.50173 14.4096 2.50174 14.1119 2.50106C13.8243 2.50044 13.5366 2.50071 13.249 2.50137C13.1272 2.50164 13.0055 2.5016 12.8838 2.50131C12.7398 2.50101 12.5958 2.5015 12.4518 2.50256C12.3748 2.50295 12.2978 2.50259 12.2208 2.50219C11.7565 2.50707 11.3068 2.60655 10.8911 2.81921Z" fill="#7F7F7F"/>
<path d="M15.4297 4.47689C15.945 4.9113 16.2418 5.43474 16.3025 6.11096C16.3182 6.74512 16.145 7.28729 15.73 7.77279C15.2968 8.22584 14.7725 8.45656 14.1513 8.4988C13.5031 8.50654 12.9402 8.26865 12.4731 7.8265C11.9819 7.31557 11.8546 6.73631 11.8642 6.05206C11.8853 5.45471 12.1888 4.95699 12.6172 4.55502C13.4335 3.91639 14.5893 3.84896 15.4297 4.47689ZM13.5034 5.82211C13.3741 6.01851 13.325 6.19397 13.3594 6.43002C13.4341 6.67245 13.5675 6.81807 13.7891 6.93783C13.999 7.00781 14.1823 7.0047 14.3823 6.91342C14.57 6.80962 14.6968 6.6756 14.7656 6.46908C14.7851 6.26547 14.7919 6.09394 14.7022 5.90756C14.4912 5.66989 14.4912 5.66989 14.2049 5.56134C13.8951 5.55322 13.7229 5.59075 13.5034 5.82211Z" fill="#7F7F7F"/>
</g>
<defs>
<clipPath id="clip0_1_465">
<rect width="20" height="20" fill="white" transform="translate(0 0.414429)"/>
</clipPath>
</defs>
</svg>
