<svg width="53" height="43" viewBox="0 0 53 43" fill="none" xmlns="http://www.w3.org/2000/svg">
<path opacity="0.987" fill-rule="evenodd" clip-rule="evenodd" d="M32.4464 2.44611C32.6729 2.41241 32.8453 2.49823 32.9635 2.70359C28.9665 9.75863 30.3455 15.552 37.1001 20.0838C39.3243 21.4662 41.7374 22.1958 44.3391 22.2725C48.5791 24.6273 50.2596 28.2319 49.3806 33.0868C48.3012 36.5652 46.0173 38.8396 42.5293 39.9102C37.8878 40.2786 33.2342 40.4074 28.5684 40.2964C28.4823 36.6018 28.5686 32.9112 28.8269 29.2245C29.934 29.6932 31.0542 30.1221 32.1879 30.512C33.5853 29.962 33.9731 29.0178 33.3513 27.6796C31.2398 25.7485 29.1286 23.8174 27.0171 21.8862C26.1684 21.6949 25.3928 21.8666 24.6903 22.4012C22.9237 24.1607 21.157 25.9202 19.3903 27.6796C18.6737 28.9992 19.0184 29.9434 20.4245 30.512C21.5725 30.0477 22.7359 29.6188 23.9147 29.2245C24.2566 32.8886 24.2566 36.5361 23.9147 40.1677C19.7781 40.3394 15.6415 40.3394 11.505 40.1677C5.58992 38.9096 2.78911 35.2618 3.10251 29.2245C3.77067 25.9213 5.62353 23.5182 8.66105 22.015C8.92499 15.0132 12.5445 11.7946 19.5196 12.3593C19.9336 12.4297 20.3214 12.5584 20.683 12.7455C22.2285 6.61412 26.1498 3.18097 32.4464 2.44611Z" fill="#DF2429"/>
<path opacity="0.999" fill-rule="evenodd" clip-rule="evenodd" d="M32.4463 2.44611C37.9219 1.96369 42.1877 4.02357 45.2439 8.62575C46.3228 11.0073 46.6677 13.4964 46.278 16.0928C45.8634 18.2323 45.217 20.2922 44.339 22.2725C41.7374 22.1958 39.3242 21.4662 37.1 20.0838C30.3455 15.5521 28.9664 9.75864 32.9634 2.7036C32.8453 2.49824 32.6728 2.41241 32.4463 2.44611Z" fill="#DF2429"/>
</svg>
