<svg width="31" height="31" viewBox="0 0 31 31" fill="none" xmlns="http://www.w3.org/2000/svg">
<path d="M17.0326 8.70312C17.2594 8.77874 17.3073 8.87645 17.4464 9.06934C17.4932 9.13354 17.5402 9.1977 17.5871 9.26183C17.6114 9.29522 17.6358 9.32861 17.6608 9.36302C17.7833 9.52957 17.9096 9.6931 18.036 9.85669C18.0726 9.90428 18.0726 9.90428 18.1099 9.95283C18.2221 10.0987 18.3352 10.2437 18.4498 10.3877C18.4873 10.4348 18.5247 10.482 18.5633 10.5305C18.5961 10.5712 18.6289 10.6119 18.6626 10.6539C18.7318 10.7539 18.7318 10.7539 18.7318 10.8711C18.8159 10.8826 18.9002 10.8934 18.9845 10.9041C19.0314 10.9102 19.0783 10.9163 19.1266 10.9226C19.269 10.9383 19.269 10.9383 19.4349 10.8711C19.4856 10.7433 19.4856 10.7433 19.5155 10.5818C19.5903 10.252 19.6741 9.92618 19.7645 9.60034C19.7837 9.52982 19.7837 9.52982 19.8033 9.45788C19.8967 9.12027 19.8967 9.12027 19.9622 9.05469C20.1107 9.04818 20.2575 9.04547 20.406 9.04525C20.4525 9.04496 20.499 9.04466 20.5469 9.04436C20.7017 9.0435 20.8564 9.04311 21.0112 9.04279C21.1188 9.04245 21.2263 9.04211 21.3339 9.04177C21.56 9.04116 21.7861 9.04082 22.0123 9.04061C22.3009 9.04029 22.5895 9.03889 22.8782 9.03721C23.1007 9.03612 23.3232 9.03582 23.5458 9.03573C23.6521 9.03555 23.7584 9.03508 23.8647 9.03431C24.602 9.02934 25.232 9.02998 25.823 9.52596C26.1629 9.8625 26.3315 10.2541 26.3631 10.7335C26.3628 10.8096 26.3625 10.8857 26.3623 10.9641C26.3623 11.0065 26.3623 11.0488 26.3623 11.0925C26.3622 11.231 26.3613 11.3695 26.3604 11.5081C26.3602 11.6047 26.36 11.7013 26.3599 11.798C26.3595 12.0512 26.3583 12.3044 26.357 12.5577C26.3558 12.8165 26.3553 13.0754 26.3547 13.3342C26.3534 13.8413 26.3514 14.3484 26.349 14.8555C26.2959 14.8558 26.2428 14.8562 26.188 14.8565C25.6839 14.8599 25.1797 14.8642 24.6756 14.8693C24.4165 14.8719 24.1574 14.8742 23.8983 14.8758C23.6475 14.8773 23.3968 14.8797 23.146 14.8826C23.0511 14.8836 22.9562 14.8843 22.8612 14.8846C21.4938 14.8905 20.3622 15.1994 19.336 16.1555C18.5237 17.0027 18.1702 18.106 18.19 19.2601C18.2616 20.3742 18.7458 21.3781 19.5562 22.1456C20.6157 23.0142 21.7845 23.18 23.1046 23.1943C23.1984 23.1955 23.2922 23.1968 23.3861 23.198C23.6314 23.2012 23.8767 23.2041 24.1221 23.207C24.3731 23.2099 24.6241 23.2132 24.8751 23.2164C25.3664 23.2227 25.8577 23.2286 26.349 23.2344C26.3544 23.7886 26.3586 24.3428 26.3611 24.897C26.3623 25.1544 26.364 25.4118 26.3666 25.6692C26.3692 25.918 26.3706 26.1669 26.3712 26.4157C26.3716 26.5102 26.3725 26.6047 26.3737 26.6992C26.3825 27.3733 26.3542 28.022 25.8624 28.5373C25.3054 29.0288 24.7285 29.0525 24.0127 29.0508C23.9301 29.051 23.8475 29.0513 23.7649 29.0516C23.5387 29.0523 23.3126 29.0523 23.0864 29.0522C22.8422 29.0522 22.5979 29.0528 22.3537 29.0534C21.8755 29.0543 21.3972 29.0547 20.919 29.0547C20.5302 29.0548 20.1414 29.055 19.7527 29.0554C18.6498 29.0564 17.5469 29.057 16.444 29.0569C16.3846 29.0569 16.3252 29.0569 16.264 29.0569C16.1747 29.0569 16.1747 29.0569 16.0837 29.0569C15.1195 29.0568 14.1552 29.0579 13.191 29.0596C12.2004 29.0613 11.2098 29.0621 10.2192 29.062C9.66328 29.0619 9.10736 29.0623 8.55143 29.0635C8.07812 29.0646 7.60482 29.0648 7.13152 29.064C6.89018 29.0637 6.64885 29.0637 6.40751 29.0647C6.18627 29.0656 5.96505 29.0654 5.74381 29.0644C5.62652 29.0641 5.50924 29.065 5.39195 29.066C4.78186 29.0613 4.229 28.9526 3.77708 28.5168C3.3852 28.0408 3.26973 27.553 3.27776 26.9503C3.27729 26.8795 3.27683 26.8087 3.27635 26.7357C3.27542 26.5412 3.27605 26.3468 3.27737 26.1523C3.27842 25.9417 3.27742 25.7312 3.27669 25.5207C3.27558 25.1091 3.27635 24.6976 3.27777 24.286C3.27937 23.8063 3.27918 23.3265 3.27893 22.8468C3.27856 21.9907 3.27992 21.1345 3.28222 20.2784C3.28445 19.4484 3.28528 18.6185 3.28462 17.7885C3.28391 16.8836 3.28393 15.9786 3.28526 15.0736C3.28541 14.9771 3.28555 14.8805 3.28569 14.784C3.28576 14.7365 3.28583 14.689 3.2859 14.6401C3.28636 14.306 3.28631 13.9719 3.28609 13.6377C3.28584 13.2305 3.28645 12.8233 3.28815 12.4161C3.289 12.2084 3.28948 12.0008 3.28894 11.7932C3.28838 11.5679 3.28963 11.3426 3.29106 11.1172C3.29062 11.052 3.29018 10.9868 3.28972 10.9195C3.29626 10.3377 3.46495 9.93139 3.86132 9.50719C4.24408 9.13863 4.64544 9.03958 5.16707 9.04138C5.20885 9.04137 5.25063 9.04135 5.29368 9.04133C5.43032 9.04141 5.56695 9.04232 5.70359 9.04324C5.7989 9.04346 5.89421 9.04363 5.98953 9.04375C6.2393 9.04419 6.48907 9.04534 6.73884 9.04664C6.99415 9.04784 7.24946 9.04838 7.50477 9.04897C8.00492 9.05022 8.50506 9.05222 9.00521 9.05469C8.9925 9.10495 8.9925 9.10495 8.97954 9.15622C8.94077 9.30973 8.90215 9.46327 8.86353 9.61682C8.8502 9.66952 8.83687 9.72222 8.82314 9.77652C8.27426 11.962 8.62423 14.1974 9.75042 16.1386C9.96136 16.4845 10.1884 16.8552 10.5286 17.082C10.7259 17.0738 10.8384 17.0679 10.9764 16.9211C11.0666 16.7714 11.0847 16.6731 11.0992 16.4998C11.1048 16.4431 11.1103 16.3864 11.116 16.328C11.1216 16.2674 11.1272 16.2069 11.1329 16.1445C11.2471 15.1069 11.5323 14.1792 12.0521 13.2734C12.0726 13.2377 12.093 13.2019 12.1141 13.165C12.4244 12.6328 12.7941 12.1892 13.224 11.75C13.2673 11.7037 13.3107 11.6574 13.3553 11.6097C13.6796 11.2706 14.0405 10.9895 14.4153 10.7099C14.5699 10.5942 14.7226 10.4762 14.8756 10.3584C14.9215 10.3231 14.9215 10.3231 14.9683 10.2871C15.2024 10.1071 15.4355 9.9257 15.6684 9.74404C15.8472 9.60464 16.0264 9.4657 16.2057 9.32677C16.3198 9.23796 16.4334 9.14846 16.5469 9.05881C16.6099 9.0098 16.6729 8.96081 16.7359 8.91187C16.7896 8.86964 16.8433 8.82742 16.8987 8.78392C16.9428 8.75726 16.987 8.7306 17.0326 8.70312Z" fill="#DF2429"/>
<path d="M13.1068 1.96484C15.6785 1.96484 18.2501 1.96484 20.8997 1.96484C20.6304 3.10963 20.6304 3.10963 20.5026 3.58905C20.4809 3.67144 20.4809 3.67144 20.4586 3.7555C20.4117 3.93288 20.3646 4.11021 20.3175 4.28754C20.2842 4.41303 20.2509 4.53852 20.2177 4.66402C20.1484 4.92522 20.0791 5.1864 20.0097 5.44757C19.9212 5.78036 19.833 6.11322 19.7449 6.44611C19.6765 6.70462 19.6079 6.9631 19.5392 7.22157C19.5067 7.34423 19.4742 7.46691 19.4417 7.5896C19.2752 8.21855 19.1073 8.84545 18.9076 9.46484C18.8689 9.46484 18.8302 9.46484 18.7904 9.46484C18.7083 9.36669 18.6311 9.2645 18.556 9.16089C18.5088 9.09646 18.4616 9.03207 18.4143 8.96771C18.3897 8.93399 18.365 8.90026 18.3396 8.86552C18.2127 8.69357 18.0823 8.5244 17.9517 8.35522C17.9048 8.29427 17.8579 8.23332 17.8096 8.17052C17.7659 8.11425 17.7221 8.05798 17.6771 8C17.6412 7.94554 17.6053 7.89108 17.5684 7.83498C17.4472 7.69319 17.4472 7.69319 17.2527 7.63814C16.9396 7.65279 16.7907 7.7922 16.5565 7.98901C16.4681 8.05997 16.3798 8.13092 16.2914 8.20187C16.2482 8.23732 16.2049 8.27276 16.1603 8.30928C15.99 8.44798 15.8158 8.58113 15.641 8.71411C15.5799 8.76117 15.5187 8.80822 15.4558 8.8567C15.3358 8.94911 15.2157 9.04143 15.0955 9.13365C13.0031 10.7402 11.2885 12.1849 10.5204 14.8026C10.4685 14.9779 10.4115 15.151 10.3529 15.3242C10.1633 15.1695 10.0906 14.9713 10.005 14.7493C9.98977 14.7104 9.97457 14.6716 9.95891 14.6316C9.24112 12.7575 9.21679 10.6995 10.0269 8.84961C10.0943 8.70186 10.1644 8.55613 10.2357 8.41016C10.264 8.35185 10.2923 8.29354 10.3215 8.23346C10.9617 6.99205 11.9982 6.08876 13.1086 5.28249C13.3963 5.07358 13.6808 4.86074 13.9637 4.64551C14.0064 4.61335 14.0491 4.58118 14.0931 4.54805C14.1321 4.51827 14.1711 4.4885 14.2114 4.45782C14.2457 4.43175 14.28 4.40567 14.3154 4.3788C14.4431 4.26734 14.4542 4.19454 14.4691 4.02518C14.4523 3.81338 14.4076 3.73557 14.2787 3.56976C14.2227 3.49656 14.2227 3.49656 14.1656 3.42188C14.1256 3.37128 14.0855 3.32068 14.0443 3.26855C13.9842 3.19051 13.9842 3.19051 13.9228 3.11088C13.68 2.79663 13.4335 2.48488 13.1784 2.18045C13.1068 2.08203 13.1068 2.08203 13.1068 1.96484Z" fill="#DF2429"/>
<path d="M22.8864 15.7639C22.9976 15.7639 23.1088 15.7638 23.22 15.7636C23.4515 15.7635 23.6829 15.7643 23.9144 15.7656C24.2107 15.7673 24.5071 15.7671 24.8035 15.7664C25.0324 15.766 25.2613 15.7664 25.4902 15.7671C25.5996 15.7674 25.7089 15.7674 25.8182 15.7672C25.9706 15.767 26.123 15.768 26.2754 15.7693C26.3203 15.769 26.3651 15.7687 26.4113 15.7685C26.7249 15.7728 26.9159 15.8398 27.1427 16.0546C27.4073 16.3785 27.4125 16.6178 27.4131 17.0257C27.4134 17.0729 27.4137 17.1202 27.414 17.1689C27.4148 17.3252 27.4152 17.4815 27.4156 17.6377C27.4159 17.7466 27.4162 17.8555 27.4166 17.9644C27.4172 18.1928 27.4175 18.4211 27.4177 18.6495C27.4181 18.9413 27.4195 19.2331 27.4211 19.525C27.4222 19.75 27.4225 19.975 27.4226 20.2C27.4228 20.3075 27.4233 20.4151 27.424 20.5226C27.425 20.6735 27.4249 20.8244 27.4245 20.9752C27.4251 21.0192 27.4256 21.0632 27.4262 21.1085C27.4237 21.4227 27.3574 21.6581 27.2279 21.9453C27.0851 22.0845 27.0851 22.0845 26.9349 22.1797C26.9024 22.2006 26.8699 22.2216 26.8365 22.2432C26.643 22.3196 26.4553 22.3137 26.2503 22.313C26.2052 22.3133 26.1601 22.3135 26.1137 22.3139C25.9645 22.3147 25.8154 22.3146 25.6662 22.3145C25.562 22.3147 25.4577 22.315 25.3535 22.3152C25.1346 22.3157 24.9158 22.3157 24.6969 22.3154C24.4184 22.315 24.1398 22.316 23.8613 22.3174C23.6457 22.3182 23.4301 22.3183 23.2145 22.3181C23.1119 22.3181 23.0093 22.3184 22.9068 22.319C21.8114 22.3246 20.857 22.1683 20.0355 21.3797C19.4036 20.7204 19.0585 19.9743 19.065 19.0559C19.0654 19.0069 19.0657 18.9578 19.066 18.9073C19.0734 18.5299 19.1164 18.196 19.2591 17.8437C19.2935 17.7584 19.2935 17.7584 19.3285 17.6714C19.6881 16.8737 20.2974 16.2981 21.1055 15.967C21.6999 15.7576 22.2627 15.7597 22.8864 15.7639ZM21.3795 18.2392C21.1476 18.5838 21.0301 18.8761 21.0966 19.2946C21.2127 19.7002 21.4683 19.9772 21.8249 20.1921C22.1132 20.3123 22.4859 20.2987 22.7823 20.2079C23.0981 20.0433 23.3276 19.7641 23.4998 19.4587C23.5925 19.0788 23.5639 18.7082 23.3607 18.3711C23.0557 18.0351 22.7733 17.8447 22.317 17.8218C21.9181 17.8313 21.6621 17.9629 21.3795 18.2392Z" fill="#DF2429"/>
</svg>
