<svg width="20" height="20" viewBox="0 0 20 20" fill="none" xmlns="http://www.w3.org/2000/svg">
<g clip-path="url(#clip0_240_1106)">
<path d="M4.25999 -0.0107093C4.31141 -0.0110161 4.31141 -0.0110161 4.36387 -0.0113292C4.47805 -0.0119123 4.59221 -0.0119426 4.70639 -0.0119687C4.78855 -0.0122666 4.87071 -0.0125959 4.95287 -0.012954C5.17564 -0.0138098 5.39841 -0.0141548 5.62118 -0.0143535C5.76058 -0.014496 5.89999 -0.0147399 6.03939 -0.0150176C6.52641 -0.015974 7.01342 -0.0164841 7.50043 -0.0166227C7.95326 -0.0167645 8.40608 -0.017931 8.85891 -0.0195681C9.24852 -0.020927 9.63812 -0.0215269 10.0277 -0.0215541C10.2601 -0.021585 10.4924 -0.0219218 10.7247 -0.0230384C10.9435 -0.0240666 11.1623 -0.0241442 11.3811 -0.0235206C11.4609 -0.0234502 11.5408 -0.0237072 11.6206 -0.0243339C12.2843 -0.0292201 12.8543 0.0521447 13.3985 0.46875C13.4317 0.493977 13.465 0.519205 13.4992 0.545196C13.8867 0.865522 14.1698 1.30947 14.2969 1.79687C14.3034 1.82103 14.3099 1.84519 14.3166 1.87008C14.3932 2.19449 14.3849 2.51849 14.3827 2.84943C14.3825 2.9128 14.3824 2.97617 14.3823 3.03955C14.382 3.2051 14.3813 3.37065 14.3804 3.5362C14.3796 3.70563 14.3793 3.87506 14.3789 4.04449C14.378 4.37602 14.3767 4.70754 14.375 5.03906C14.3322 5.03912 14.2894 5.03918 14.2453 5.03924C13.2023 5.04067 12.1593 5.04299 11.1163 5.04625C10.6119 5.0478 10.1075 5.04907 9.60312 5.04965C9.16336 5.05016 8.7236 5.05121 8.28384 5.05291C8.05111 5.0538 7.81839 5.05441 7.58566 5.05437C7.36632 5.05434 7.14699 5.05505 6.92765 5.0563C6.84743 5.05663 6.7672 5.0567 6.68698 5.05648C6.0289 5.05491 5.47418 5.11969 4.95992 5.57846C4.58701 5.97095 4.44089 6.46014 4.44272 6.98867C4.44246 7.04548 4.44246 7.04548 4.44219 7.10344C4.4417 7.22976 4.44176 7.35608 4.44182 7.4824C4.44159 7.57322 4.44132 7.66404 4.44103 7.75485C4.44034 8.00118 4.44015 8.24751 4.4401 8.49383C4.44005 8.64787 4.43988 8.80191 4.43967 8.95594C4.43899 9.46599 4.43863 9.97604 4.43868 10.4861C4.43869 10.5273 4.43869 10.5273 4.43869 10.5693C4.4387 10.6105 4.4387 10.6105 4.4387 10.6526C4.43874 11.0978 4.43799 11.5431 4.43689 11.9883C4.43576 12.4462 4.43523 12.9042 4.43529 13.3622C4.43531 13.619 4.43509 13.8758 4.43426 14.1326C4.4335 14.3742 4.4335 14.6159 4.43407 14.8575C4.43415 14.9459 4.43397 15.0343 4.43349 15.1228C4.43004 15.8118 4.4798 16.4147 4.97319 16.9458C5.33741 17.2875 5.79273 17.4275 6.28135 17.4281C6.31598 17.4282 6.3506 17.4284 6.38627 17.4286C6.50226 17.4292 6.61826 17.4296 6.73426 17.4299C6.81741 17.4303 6.90057 17.4307 6.98372 17.4311C7.20952 17.4321 7.43532 17.4329 7.66113 17.4337C7.89708 17.4346 8.13304 17.4356 8.369 17.4367C8.81584 17.4386 9.26268 17.4404 9.70953 17.4421C10.2182 17.444 10.7269 17.4462 11.2356 17.4483C12.2821 17.4528 13.3286 17.4569 14.375 17.4609C14.3758 17.5163 14.3763 17.5717 14.3767 17.6271C14.377 17.6579 14.3773 17.6887 14.3776 17.7205C14.3596 18.3732 14.0022 18.986 13.5399 19.424C12.9266 19.9428 12.2991 20.0177 11.5292 20.0158C11.4469 20.016 11.3646 20.0163 11.2822 20.0166C11.0597 20.0173 10.8371 20.0173 10.6145 20.017C10.4282 20.0169 10.2419 20.0171 10.0556 20.0174C9.61594 20.0179 9.17624 20.0179 8.73653 20.0174C8.28394 20.017 7.83136 20.0175 7.37877 20.0186C6.98926 20.0194 6.59975 20.0197 6.21024 20.0195C5.97802 20.0193 5.7458 20.0194 5.51357 20.0201C5.29506 20.0207 5.07656 20.0205 4.85805 20.0198C4.77822 20.0197 4.69839 20.0198 4.61856 20.0202C3.81987 20.024 3.18767 19.8781 2.58778 19.3089C2.01802 18.7233 1.85657 18.0689 1.86017 17.2744C1.86003 17.2089 1.85984 17.1434 1.85961 17.0779C1.85912 16.8991 1.85936 16.7202 1.85973 16.5414C1.85999 16.348 1.85958 16.1547 1.85926 15.9614C1.85874 15.5831 1.85885 15.2048 1.85919 14.8266C1.85946 14.5191 1.85949 14.2115 1.85936 13.904C1.85935 13.8602 1.85933 13.8164 1.85931 13.7712C1.85927 13.6822 1.85923 13.5932 1.8592 13.5042C1.85886 12.67 1.85925 11.8358 1.85988 11.0017C1.8604 10.2864 1.86031 9.57108 1.85977 8.85578C1.85914 8.02454 1.85889 7.19329 1.85925 6.36205C1.85929 6.27336 1.85933 6.18467 1.85936 6.09598C1.85938 6.05235 1.8594 6.00872 1.85942 5.96376C1.85952 5.65672 1.85935 5.34968 1.85907 5.04264C1.85874 4.66831 1.85884 4.29398 1.85946 3.91965C1.85977 3.72876 1.85989 3.53789 1.8595 3.34701C1.85915 3.17207 1.85934 2.99715 1.85997 2.82222C1.8601 2.75914 1.86003 2.69606 1.85975 2.63297C1.85673 1.91205 2.0188 1.27996 2.5263 0.747366C3.00324 0.270429 3.58195 -0.0127404 4.25999 -0.0107093ZM7.01909 2.76367C6.91746 2.9594 6.89313 3.0925 6.95561 3.30566C7.04811 3.46679 7.15054 3.59078 7.33178 3.65695C7.46539 3.67907 7.59873 3.67984 7.73381 3.68118C7.77919 3.68166 7.77919 3.68166 7.82548 3.68214C7.88944 3.68268 7.9534 3.6831 8.01736 3.6834C8.08236 3.68385 8.14737 3.68465 8.21236 3.68581C8.30676 3.68748 8.40112 3.68811 8.49553 3.68851C8.53852 3.68953 8.53852 3.68953 8.58237 3.69058C8.79707 3.68969 8.96116 3.63452 9.14067 3.51562C9.26456 3.38245 9.30661 3.28122 9.31401 3.10303C9.30424 2.90228 9.23358 2.79495 9.10161 2.64648C8.94332 2.50798 8.76027 2.53213 8.5613 2.53113C8.52734 2.53091 8.49338 2.53068 8.45839 2.53045C8.38651 2.53008 8.31463 2.52983 8.24276 2.52968C8.13319 2.5293 8.02365 2.52809 7.91409 2.52686C7.84418 2.5266 7.77427 2.5264 7.70436 2.52624C7.67176 2.52576 7.63916 2.52528 7.60557 2.52478C7.35775 2.52572 7.18546 2.56582 7.01909 2.76367Z" fill="black"/>
<path d="M5.54683 8.55469C5.61893 8.57371 5.61893 8.57371 5.69248 8.59312C5.92216 8.64379 6.14613 8.64373 6.38049 8.6429C6.45191 8.64312 6.45191 8.64312 6.52478 8.64334C6.6561 8.64366 6.78742 8.64363 6.91875 8.64346C7.0607 8.64337 7.20265 8.64372 7.3446 8.64403C7.59034 8.6445 7.83607 8.6447 8.08181 8.64473C8.43743 8.64478 8.79306 8.64537 9.14869 8.64611C9.72618 8.64732 10.3037 8.64826 10.8812 8.64896C10.9157 8.649 10.9502 8.64904 10.9858 8.64909C11.3712 8.64955 11.7565 8.64995 12.1419 8.65027C12.2817 8.65039 12.4215 8.65052 12.5613 8.65064C12.6131 8.65068 12.6131 8.65068 12.6659 8.65073C13.2413 8.65124 13.8168 8.6522 14.3922 8.65352C14.7469 8.65431 15.1016 8.65471 15.4563 8.65461C15.6993 8.65457 15.9423 8.65495 16.1854 8.65565C16.3255 8.65604 16.4656 8.65625 16.6058 8.65593C16.7578 8.6556 16.9098 8.65617 17.0619 8.65683C17.106 8.65658 17.1502 8.65634 17.1956 8.65609C17.4676 8.65822 17.7158 8.6734 17.9319 8.85757C17.9497 8.88089 17.9675 8.9042 17.9858 8.92822C18.0043 8.95164 18.0228 8.97505 18.0418 8.99918C18.1499 9.15446 18.1299 9.30747 18.1288 9.49005C18.1287 9.54191 18.1287 9.54191 18.1286 9.59481C18.1284 9.70546 18.1279 9.81611 18.1274 9.92676C18.1272 10.0017 18.127 10.0766 18.1269 10.1515C18.1264 10.3354 18.1258 10.5193 18.125 10.7031C18.0898 10.7033 18.0546 10.7034 18.0184 10.7036C17.6851 10.705 17.3518 10.7073 17.0186 10.7103C16.8473 10.7118 16.676 10.7131 16.5047 10.7137C16.339 10.7143 16.1734 10.7157 16.0078 10.7175C15.9449 10.7181 15.8821 10.7184 15.8192 10.7184C15.211 10.7191 14.7255 10.8371 14.27 11.2598C13.8898 11.662 13.7627 12.1229 13.7754 12.6675C13.8212 13.1557 14.0552 13.6004 14.4314 13.9133C14.9243 14.2645 15.4066 14.3086 15.9925 14.313C16.0542 14.3138 16.1159 14.3145 16.1776 14.3153C16.3388 14.3173 16.5001 14.3189 16.6613 14.3203C16.8263 14.3219 16.9913 14.3239 17.1562 14.3259C17.4791 14.3296 17.802 14.3329 18.125 14.3359C18.1288 14.5479 18.1317 14.7598 18.1335 14.9718C18.1343 15.0438 18.1354 15.1158 18.1367 15.1879C18.1386 15.2917 18.1395 15.3955 18.1402 15.4994C18.141 15.5313 18.1418 15.5632 18.1427 15.5961C18.1427 15.8205 18.0972 15.948 17.9687 16.1328C17.8036 16.2858 17.6833 16.3329 17.4609 16.3335C17.4203 16.3337 17.3797 16.3339 17.3379 16.3341C17.2931 16.3341 17.2484 16.3341 17.2023 16.3341C17.1312 16.3344 17.1312 16.3344 17.0586 16.3347C16.9268 16.3351 16.7949 16.3353 16.663 16.3355C16.5209 16.3358 16.3788 16.3362 16.2367 16.3366C15.8934 16.3376 15.55 16.3382 15.2067 16.3387C15.1097 16.3388 15.0128 16.339 14.9158 16.3391C14.3137 16.3401 13.7116 16.341 13.1095 16.3415C12.9701 16.3416 12.8306 16.3417 12.6911 16.3418C12.6391 16.3418 12.6391 16.3418 12.5861 16.3419C12.0245 16.3424 11.463 16.3437 10.9014 16.3453C10.3249 16.347 9.74842 16.3479 9.17193 16.3481C8.84823 16.3482 8.52453 16.3487 8.20083 16.35C7.92516 16.3511 7.64949 16.3515 7.37382 16.3511C7.23319 16.3509 7.09258 16.351 6.95195 16.3519C6.79939 16.353 6.64686 16.3525 6.49429 16.3519C6.44999 16.3524 6.40569 16.353 6.36004 16.3535C6.09712 16.3509 5.89603 16.3231 5.70308 16.1328C5.55923 15.939 5.52406 15.7458 5.52804 15.5069C5.5279 15.477 5.52777 15.447 5.52763 15.4162C5.52738 15.3167 5.52823 15.2173 5.52909 15.1179C5.52913 15.0462 5.52911 14.9746 5.52902 14.903C5.52898 14.7091 5.52989 14.5153 5.53099 14.3215C5.53196 14.1187 5.53205 13.9159 5.53224 13.7131C5.53272 13.3293 5.53401 12.9456 5.53558 12.5618C5.53732 12.1248 5.53818 11.6878 5.53897 11.2508C5.5406 10.3521 5.54334 9.45339 5.54683 8.55469Z" fill="black"/>
<path d="M6.29202 6.16663C6.33228 6.16646 6.37254 6.16628 6.41402 6.1661C6.45819 6.16611 6.50236 6.16612 6.54787 6.16613C6.59484 6.16598 6.64181 6.16584 6.6902 6.16569C6.82063 6.16533 6.95106 6.16515 7.08148 6.16505C7.22214 6.1649 7.36279 6.16452 7.50344 6.16418C7.84311 6.16341 8.18277 6.16302 8.52244 6.16267C8.68242 6.1625 8.84239 6.16229 9.00236 6.16208C9.53416 6.16142 10.066 6.16085 10.5978 6.16057C10.7357 6.1605 10.8737 6.16042 11.0117 6.16034C11.0631 6.16032 11.0631 6.16032 11.1156 6.16029C11.6712 6.15996 12.2268 6.15897 12.7825 6.1577C13.3529 6.15641 13.9234 6.15571 14.4939 6.15558C14.8142 6.1555 15.1345 6.15516 15.4548 6.15416C15.7275 6.15331 16.0003 6.153 16.273 6.15338C16.4121 6.15356 16.5512 6.15348 16.6904 6.15272C16.8413 6.15191 16.9922 6.15231 17.1431 6.15282C17.187 6.15239 17.2308 6.15197 17.2759 6.15152C17.5648 6.1539 17.7798 6.19419 18.0025 6.3932C18.1609 6.64016 18.1474 6.88209 18.1372 7.16797C18.1363 7.215 18.1354 7.26203 18.1345 7.31049C18.1322 7.42579 18.129 7.54099 18.125 7.65625C17.8625 7.6195 17.8625 7.6195 17.754 7.59659C17.5529 7.56946 17.3534 7.57282 17.1506 7.57326C17.1033 7.5732 17.0559 7.57315 17.0071 7.57309C16.9033 7.573 16.7995 7.57298 16.6957 7.57307C16.5268 7.57323 16.3579 7.57312 16.189 7.57298C15.9756 7.57282 15.7621 7.57274 15.5487 7.57273C15.1292 7.57272 14.7098 7.57224 14.2903 7.57158C14.2243 7.57147 14.1582 7.57137 14.0921 7.57127C13.992 7.57112 13.8919 7.57096 13.7918 7.57081C13.4145 7.57022 13.0372 7.56969 12.6599 7.56922C12.6082 7.56915 12.6082 7.56915 12.5554 7.56909C11.9965 7.5684 11.4376 7.56829 10.8787 7.56835C10.3047 7.5684 9.73067 7.56771 9.15665 7.56636C8.8027 7.56555 8.44875 7.56534 8.09479 7.5659C7.85222 7.56623 7.60966 7.56585 7.36708 7.56491C7.22717 7.56439 7.08727 7.56419 6.94735 7.56484C6.79557 7.56554 6.64381 7.56472 6.49202 7.56377C6.44795 7.56421 6.40388 7.56466 6.35847 7.56511C6.09563 7.56189 5.90103 7.52633 5.70308 7.34375C5.55636 7.14095 5.51938 6.96584 5.54683 6.71875C5.61517 6.48558 5.73532 6.34048 5.93745 6.21094C6.05744 6.17324 6.16664 6.16688 6.29202 6.16663Z" fill="black"/>
<path d="M15.6372 11.8182C15.6643 11.8182 15.6914 11.8182 15.7193 11.8181C15.8079 11.8182 15.8964 11.8194 15.985 11.8207C16.0467 11.821 16.1085 11.8212 16.1703 11.8213C16.3322 11.8219 16.4941 11.8235 16.656 11.8252C16.8506 11.8271 17.0453 11.8278 17.2399 11.8287C17.535 11.8302 17.8299 11.8332 18.125 11.8359C18.125 12.2871 18.125 12.7383 18.125 13.2031C17.452 13.2078 17.452 13.2078 17.1645 13.2088C16.9685 13.2095 16.7725 13.2104 16.5766 13.212C16.4185 13.2132 16.2605 13.2139 16.1024 13.2142C16.0422 13.2145 15.982 13.2149 15.9218 13.2155C15.8373 13.2164 15.7528 13.2165 15.6682 13.2164C15.6202 13.2167 15.5721 13.217 15.5226 13.2172C15.312 13.1947 15.16 13.1128 15.0269 12.9492C15.0077 12.9263 14.9885 12.9033 14.9687 12.8796C14.8496 12.709 14.8572 12.5037 14.8828 12.3047C14.9636 12.0919 15.0763 11.9805 15.2755 11.8695C15.3966 11.8161 15.506 11.8173 15.6372 11.8182Z" fill="black"/>
</g>
<defs>
<clipPath id="clip0_240_1106">
<rect width="20" height="20" fill="white"/>
</clipPath>
</defs>
</svg>
